<svg version="1.1" viewBox="0.0 0.0 960.0 720.0" fill="none" stroke="none" stroke-linecap="square" stroke-miterlimit="10" xmlns:xlink="http://www.w3.org/1999/xlink" xmlns="http://www.w3.org/2000/svg"><clipPath id="p.0"><path d="m0 0l960.0 0l0 720.0l-960.0 0l0 -720.0z" clip-rule="nonzero"/></clipPath><g clip-path="url(#p.0)"><path fill="#000000" fill-opacity="0.0" d="m0 0l960.0 0l0 720.0l-960.0 0z" fill-rule="evenodd"/><path fill="#6aa84f" d="m253.70341 174.69554l273.3228 0l0 119.18111l-273.3228 0z" fill-rule="evenodd"/><path fill="#000000" d="m322.94785 225.84608l0 -25.765625l3.40625 0l0 22.71875l12.6875 0l0 3.046875l-16.09375 0zm32.53711 -6.015625l3.265625 0.40625q-0.765625 2.859375 -2.859375 4.453125q-2.09375 1.578125 -5.34375 1.578125q-4.09375 0 -6.5 -2.515625q-2.40625 -2.53125 -2.40625 -7.078125q0 -4.71875 2.421875 -7.3125q2.4375 -2.609375 6.296875 -2.609375q3.75 0 6.125 2.546875q2.375 2.546875 2.375 7.171875q0 0.28125 -0.015625 0.84375l-13.921875 0q0.171875 3.078125 1.734375 4.71875q1.5625 1.625 3.90625 1.625q1.734375 0 2.96875 -0.90625q1.234375 -0.921875 1.953125 -2.921875zm-10.390625 -5.109375l10.421875 0q-0.203125 -2.359375 -1.1875 -3.53125q-1.515625 -1.828125 -3.921875 -1.828125q-2.1875 0 -3.671875 1.453125q-1.484375 1.453125 -1.640625 3.90625zm29.81836 8.828125q-1.765625 1.484375 -3.390625 2.109375q-1.625 0.609375 -3.484375 0.609375q-3.078125 0 -4.734375 -1.5q-1.65625 -1.5 -1.65625 -3.84375q0 -1.375 0.625 -2.5q0.625 -1.140625 1.640625 -1.828125q1.015625 -0.6875 2.28125 -1.03125q0.921875 -0.25 2.8125 -0.484375q3.828125 -0.453125 5.640625 -1.078125q0.015625 -0.65625 0.015625 -0.828125q0 -1.9375 -0.90625 -2.734375q-1.203125 -1.0625 -3.59375 -1.0625q-2.234375 0 -3.296875 0.78125q-1.0625 0.78125 -1.578125 2.765625l-3.09375 -0.421875q0.421875 -1.984375 1.390625 -3.203125q0.96875 -1.21875 2.796875 -1.875q1.828125 -0.671875 4.234375 -0.671875q2.390625 0 3.875 0.5625q1.5 0.5625 2.203125 1.421875q0.703125 0.84375 0.984375 2.15625q0.15625 0.796875 0.15625 2.90625l0 4.21875q0 4.421875 0.203125 5.59375q0.203125 1.15625 0.8125 2.234375l-3.3125 0q-0.484375 -0.984375 -0.625 -2.296875zm-0.265625 -7.078125q-1.734375 0.703125 -5.171875 1.203125q-1.953125 0.28125 -2.765625 0.640625q-0.796875 0.34375 -1.25 1.015625q-0.4375 0.671875 -0.4375 1.5q0 1.265625 0.953125 2.109375q0.96875 0.84375 2.8125 0.84375q1.828125 0 3.25 -0.796875q1.421875 -0.796875 2.09375 -2.1875q0.515625 -1.078125 0.515625 -3.15625l0 -1.171875zm8.068329 9.375l0 -18.671875l2.84375 0l0 2.828125q1.09375 -1.984375 2.015625 -2.609375q0.921875 -0.640625 2.03125 -0.640625q1.59375 0 3.25 1.015625l-1.09375 2.9375q-1.15625 -0.6875 -2.3125 -0.6875q-1.046875 0 -1.875 0.625q-0.828125 0.625 -1.171875 1.734375q-0.53125 1.6875 -0.53125 3.6875l0 9.78125l-3.15625 0zm12.019531 0l0 -18.671875l2.84375 0l0 2.65625q2.0625 -3.078125 5.9375 -3.078125q1.6875 0 3.109375 0.609375q1.421875 0.609375 2.125 1.59375q0.703125 0.984375 0.984375 2.328125q0.171875 0.890625 0.171875 3.078125l0 11.484375l-3.171875 0l0 -11.359375q0 -1.9375 -0.375 -2.890625q-0.359375 -0.953125 -1.296875 -1.515625q-0.9375 -0.578125 -2.203125 -0.578125q-2.03125 0 -3.5 1.28125q-1.46875 1.28125 -1.46875 4.859375l0 10.203125l-3.15625 0zm20.03711 -22.125l0 -3.640625l3.171875 0l0 3.640625l-3.171875 0zm0 22.125l0 -18.671875l3.171875 0l0 18.671875l-3.171875 0zm7.982422 0l0 -18.671875l2.84375 0l0 2.65625q2.0625 -3.078125 5.9375 -3.078125q1.6875 0 3.109375 0.609375q1.421875 0.609375 2.125 1.59375q0.703125 0.984375 0.984375 2.328125q0.171875 0.890625 0.171875 3.078125l0 11.484375l-3.171875 0l0 -11.359375q0 -1.9375 -0.375 -2.890625q-0.359375 -0.953125 -1.296875 -1.515625q-0.9375 -0.578125 -2.203125 -0.578125q-2.03125 0 -3.5 1.28125q-1.46875 1.28125 -1.46875 4.859375l0 10.203125l-3.15625 0zm19.44336 1.546875l3.078125 0.453125q0.1875 1.421875 1.0625 2.078125q1.1875 0.875 3.21875 0.875q2.203125 0 3.390625 -0.875q1.203125 -0.875 1.625 -2.453125q0.25 -0.96875 0.21875 -4.0625q-2.0625 2.4375 -5.15625 2.4375q-3.859375 0 -5.96875 -2.78125q-2.109375 -2.78125 -2.109375 -6.65625q0 -2.671875 0.96875 -4.921875q0.96875 -2.265625 2.796875 -3.5q1.84375 -1.234375 4.328125 -1.234375q3.296875 0 5.453125 2.671875l0 -2.25l2.90625 0l0 16.140625q0 4.359375 -0.890625 6.171875q-0.875 1.828125 -2.8125 2.875q-1.921875 1.0625 -4.734375 1.0625q-3.328125 0 -5.390625 -1.5q-2.0625 -1.5 -1.984375 -4.53125zm2.609375 -11.21875q0 3.671875 1.453125 5.359375q1.46875 1.6875 3.671875 1.6875q2.171875 0 3.640625 -1.671875q1.484375 -1.6875 1.484375 -5.265625q0 -3.421875 -1.515625 -5.15625q-1.515625 -1.75 -3.671875 -1.75q-2.109375 0 -3.59375 1.71875q-1.46875 1.703125 -1.46875 5.078125z" fill-rule="nonzero"/><path fill="#000000" d="m314.29257 268.8461l9.890625 -25.76564l3.671875 0l10.546875 25.76564l-3.875 0l-3.015625 -7.8125l-10.765625 0l-2.84375 7.8125l-3.609375 0zm7.4375 -10.578125l8.734375 0l-2.6875 -7.1406403q-1.234375 -3.25 -1.828125 -5.34375q-0.5 2.484375 -1.390625 4.921875l-2.828125 7.5625153zm18.917969 10.578125l0 -25.76564l3.171875 0l0 25.76564l-3.171875 0zm7.498047 1.546875l3.078125 0.453125q0.1875 1.421875 1.0625 2.078125q1.1875 0.875 3.21875 0.875q2.203125 0 3.390625 -0.875q1.203125 -0.875 1.625 -2.453125q0.25 -0.96875 0.21875 -4.0625q-2.0625 2.4375 -5.15625 2.4375q-3.859375 0 -5.96875 -2.78125q-2.109375 -2.78125 -2.109375 -6.65625q0 -2.671875 0.96875 -4.9218903q0.96875 -2.265625 2.796875 -3.5q1.84375 -1.234375 4.328125 -1.234375q3.296875 0 5.453125 2.671875l0 -2.25l2.90625 0l0 16.14064q0 4.359375 -0.890625 6.171875q-0.875 1.828125 -2.8125 2.875q-1.921875 1.0625 -4.734375 1.0625q-3.328125 0 -5.390625 -1.5q-2.0625 -1.5 -1.984375 -4.53125zm2.609375 -11.21875q0 3.671875 1.453125 5.359375q1.46875 1.6875 3.671875 1.6875q2.171875 0 3.640625 -1.671875q1.484375 -1.6875 1.484375 -5.265625q0 -3.4218903 -1.515625 -5.1562653q-1.515625 -1.75 -3.671875 -1.75q-2.109375 0 -3.59375 1.71875q-1.46875 1.703125 -1.46875 5.0781403zm16.81836 0.34375q0 -5.1875153 2.875 -7.6875153q2.40625 -2.078125 5.875 -2.078125q3.84375 0 6.2812195 2.53125q2.453125 2.515625 2.453125 6.9687653q0 3.59375 -1.078125 5.671875q-1.078125 2.0625 -3.1562195 3.203125q-2.0625 1.140625 -4.5 1.140625q-3.921875 0 -6.34375 -2.515625q-2.40625 -2.515625 -2.40625 -7.234375zm3.25 0q0 3.578125 1.5625 5.359375q1.5625 1.78125 3.9375 1.78125q2.359375 0 3.921875 -1.78125q1.5624695 -1.796875 1.5624695 -5.46875q0 -3.4687653 -1.5780945 -5.2500153q-1.578125 -1.78125 -3.90625 -1.78125q-2.375 0 -3.9375 1.78125q-1.5625 1.765625 -1.5625 5.3593903zm17.912079 9.328125l0 -18.67189l2.84375 0l0 2.828125q1.09375 -1.984375 2.015625 -2.609375q0.921875 -0.640625 2.03125 -0.640625q1.59375 0 3.25 1.015625l-1.09375 2.9375q-1.15625 -0.6875 -2.3125 -0.6875q-1.046875 0 -1.875 0.625q-0.828125 0.625 -1.171875 1.734375q-0.53125 1.6875153 -0.53125 3.6875153l0 9.78125l-3.15625 0zm12.035156 -22.125015l0 -3.640625l3.171875 0l0 3.640625l-3.171875 0zm0 22.125015l0 -18.67189l3.171875 0l0 18.67189l-3.171875 0zm14.888672 -2.828125l0.453125 2.796875q-1.328125 0.28125 -2.390625 0.28125q-1.71875 0 -2.671875 -0.546875q-0.9375 -0.546875 -1.328125 -1.4375q-0.390625 -0.890625 -0.390625 -3.734375l0 -10.73439l-2.3125 0l0 -2.46875l2.3125 0l0 -4.625l3.140625 -1.890625l0 6.515625l3.1875 0l0 2.46875l-3.1875 0l0 10.906265q0 1.359375 0.171875 1.75q0.171875 0.375 0.546875 0.609375q0.375 0.234375 1.078125 0.234375q0.53125 0 1.390625 -0.125zm3.0957031 2.828125l0 -25.76564l3.15625 0l0 9.234375q2.21875 -2.5625 5.59375 -2.5625q2.078125 0 3.609375 0.828125q1.53125 0.8125 2.1875 2.25q0.65625 1.4375 0.65625 4.1875153l0 11.828125l-3.15625 0l0 -11.828125q0 -2.3750153 -1.03125 -3.4531403q-1.03125 -1.078125 -2.90625 -1.078125q-1.40625 0 -2.65625 0.734375q-1.234375 0.71875 -1.765625 1.96875q-0.53125 1.2500153 -0.53125 3.4375153l0 10.21875l-3.15625 0zm20.021484 0l0 -18.67189l2.828125 0l0 2.625q0.875 -1.375 2.328125 -2.203125q1.46875 -0.84375 3.328125 -0.84375q2.078125 0 3.40625 0.859375q1.328125 0.859375 1.875 2.40625q2.21875 -3.265625 5.765625 -3.265625q2.78125 0 4.265625 1.546875q1.5 1.53125 1.5 4.7343903l0 12.8125l-3.15625 0l0 -11.765625q0 -1.8906403 -0.3125 -2.7187653q-0.296875 -0.84375 -1.109375 -1.34375q-0.796875 -0.515625 -1.890625 -0.515625q-1.96875 0 -3.28125 1.3125q-1.296875 1.296875 -1.296875 4.1875153l0 10.84375l-3.15625 0l0 -12.125q0 -2.1093903 -0.78125 -3.1562653q-0.765625 -1.0625 -2.53125 -1.0625q-1.328125 0 -2.46875 0.703125q-1.125 0.703125 -1.640625 2.0625q-0.515625 1.3437653 -0.515625 3.8906403l0 9.6875l-3.15625 0z" fill-rule="nonzero"/><path fill="#9fc5e8" d="m527.02625 341.38846l232.50397 0l0 179.90549l-232.50397 0z" fill-rule="evenodd"/><path fill="#000000" d="m566.01746 422.9012l0 -25.765625l9.71875 0q2.5625 0 3.921875 0.234375q1.890625 0.328125 3.171875 1.21875q1.296875 0.875 2.078125 2.484375q0.78125 1.59375 0.78125 3.515625q0 3.28125 -2.09375 5.5625q-2.09375 2.265625 -7.5625 2.265625l-6.609375 0l0 10.484375l-3.40625 0zm3.40625 -13.515625l6.65625 0q3.3125 0 4.703125 -1.234375q1.390625 -1.234375 1.390625 -3.46875q0 -1.609375 -0.828125 -2.75q-0.8125 -1.15625 -2.140625 -1.53125q-0.875 -0.234375 -3.1875 -0.234375l-6.59375 0l0 9.21875zm20.167969 13.515625l0 -18.671875l2.84375 0l0 2.828125q1.09375 -1.984375 2.015625 -2.609375q0.921875 -0.640625 2.03125 -0.640625q1.59375 0 3.25 1.015625l-1.09375 2.9375q-1.15625 -0.6875 -2.3125 -0.6875q-1.046875 0 -1.875 0.625q-0.828125 0.625 -1.171875 1.734375q-0.53125 1.6875 -0.53125 3.6875l0 9.78125l-3.15625 0zm24.800781 -6.015625l3.265625 0.40625q-0.765625 2.859375 -2.859375 4.453125q-2.09375 1.578125 -5.34375 1.578125q-4.09375 0 -6.5 -2.515625q-2.40625 -2.53125 -2.40625 -7.078125q0 -4.71875 2.421875 -7.3125q2.4375 -2.609375 6.296875 -2.609375q3.75 0 6.125 2.546875q2.375 2.546875 2.375 7.171875q0 0.28125 -0.015625 0.84375l-13.921875 0q0.171875 3.078125 1.734375 4.71875q1.5625 1.625 3.90625 1.625q1.734375 0 2.96875 -0.90625q1.234375 -0.921875 1.953125 -2.921875zm-10.390625 -5.109375l10.421875 0q-0.203125 -2.359375 -1.1875 -3.53125q-1.515625 -1.828125 -3.921875 -1.828125q-2.1875 0 -3.671875 1.453125q-1.484375 1.453125 -1.640625 3.90625zm29.740234 11.125l0 -2.359375q-1.78125 2.78125 -5.21875 2.78125q-2.234375 0 -4.109375 -1.234375q-1.875 -1.234375 -2.90625 -3.4375q-1.015625 -2.203125 -1.015625 -5.0625q0 -2.796875 0.921875 -5.078125q0.9375 -2.28125 2.796875 -3.484375q1.875 -1.21875 4.171875 -1.21875q1.6875 0 3.0 0.71875q1.328125 0.703125 2.15625 1.84375l0 -9.234375l3.140625 0l0 25.765625l-2.9375 0zm-10.0 -9.3125q0 3.578125 1.5 5.359375q1.515625 1.765625 3.578125 1.765625q2.078125 0 3.515625 -1.6875q1.453125 -1.703125 1.453125 -5.171875q0 -3.84375 -1.484375 -5.625q-1.46875 -1.796875 -3.625 -1.796875q-2.109375 0 -3.53125 1.71875q-1.40625 1.71875 -1.40625 5.4375zm17.927734 -12.8125l0 -3.640625l3.171875 0l0 3.640625l-3.171875 0zm0 22.125l0 -18.671875l3.171875 0l0 18.671875l-3.171875 0zm20.169922 -6.84375l3.109375 0.40625q-0.515625 3.21875 -2.625 5.046875q-2.09375 1.8125 -5.15625 1.8125q-3.828125 0 -6.15625 -2.5q-2.328125 -2.515625 -2.328125 -7.1875q0 -3.015625 1.0 -5.28125q1.0 -2.28125 3.046875 -3.40625q2.046875 -1.140625 4.46875 -1.140625q3.03125 0 4.96875 1.546875q1.9375 1.53125 2.484375 4.359375l-3.078125 0.484375q-0.4375 -1.890625 -1.5625 -2.828125q-1.109375 -0.953125 -2.703125 -0.953125q-2.390625 0 -3.890625 1.71875q-1.484375 1.703125 -1.484375 5.40625q0 3.765625 1.4375 5.46875q1.453125 1.703125 3.765625 1.703125q1.859375 0 3.109375 -1.140625q1.25 -1.140625 1.59375 -3.515625zm12.71875 4.015625l0.453125 2.796875q-1.328125 0.28125 -2.390625 0.28125q-1.71875 0 -2.671875 -0.546875q-0.9375 -0.546875 -1.328125 -1.4375q-0.390625 -0.890625 -0.390625 -3.734375l0 -10.734375l-2.3125 0l0 -2.46875l2.3125 0l0 -4.625l3.140625 -1.890625l0 6.515625l3.1875 0l0 2.46875l-3.1875 0l0 10.90625q0 1.359375 0.171875 1.75q0.171875 0.375 0.546875 0.609375q0.375 0.234375 1.078125 0.234375q0.53125 0 1.390625 -0.125zm3.1113281 -19.296875l0 -3.640625l3.171875 0l0 3.640625l-3.171875 0zm0 22.125l0 -18.671875l3.171875 0l0 18.671875l-3.171875 0zm6.810547 -9.328125q0 -5.1875 2.875 -7.6875q2.40625 -2.078125 5.875 -2.078125q3.84375 0 6.28125 2.53125q2.453125 2.515625 2.453125 6.96875q0 3.59375 -1.078125 5.671875q-1.078125 2.0625 -3.15625 3.203125q-2.0625 1.140625 -4.5 1.140625q-3.921875 0 -6.34375 -2.515625q-2.40625 -2.515625 -2.40625 -7.234375zm3.25 0q0 3.578125 1.5625 5.359375q1.5625 1.78125 3.9375 1.78125q2.359375 0 3.921875 -1.78125q1.5625 -1.796875 1.5625 -5.46875q0 -3.46875 -1.578125 -5.25q-1.578125 -1.78125 -3.90625 -1.78125q-2.375 0 -3.9375 1.78125q-1.5625 1.765625 -1.5625 5.359375zm17.94336 9.328125l0 -18.671875l2.84375 0l0 2.65625q2.0625 -3.078125 5.9375 -3.078125q1.6875 0 3.109375 0.609375q1.421875 0.609375 2.125 1.59375q0.703125 0.984375 0.984375 2.328125q0.171875 0.890625 0.171875 3.078125l0 11.484375l-3.171875 0l0 -11.359375q0 -1.9375 -0.375 -2.890625q-0.359375 -0.953125 -1.296875 -1.515625q-0.9375 -0.578125 -2.203125 -0.578125q-2.03125 0 -3.5 1.28125q-1.46875 1.28125 -1.46875 4.859375l0 10.203125l-3.15625 0z" fill-rule="nonzero"/><path fill="#000000" d="m567.20593 465.9012l9.890625 -25.765625l3.671875 0l10.546875 25.765625l-3.875 0l-3.015625 -7.8125l-10.765625 0l-2.84375 7.8125l-3.609375 0zm7.4375 -10.578125l8.734375 0l-2.6875 -7.140625q-1.234375 -3.25 -1.828125 -5.34375q-0.5 2.484375 -1.390625 4.921875l-2.828125 7.5625zm18.917969 10.578125l0 -25.765625l3.171875 0l0 25.765625l-3.171875 0zm7.498047 1.546875l3.078125 0.453125q0.1875 1.421875 1.0625 2.078125q1.1875 0.875 3.21875 0.875q2.203125 0 3.390625 -0.875q1.203125 -0.875 1.625 -2.453125q0.25 -0.96875 0.21875 -4.0625q-2.0625 2.4375 -5.15625 2.4375q-3.859375 0 -5.96875 -2.78125q-2.109375 -2.78125 -2.109375 -6.65625q0 -2.671875 0.96875 -4.921875q0.96875 -2.265625 2.796875 -3.5q1.84375 -1.234375 4.328125 -1.234375q3.296875 0 5.453125 2.671875l0 -2.25l2.90625 0l0 16.140625q0 4.359375 -0.890625 6.171875q-0.875 1.828125 -2.8125 2.875q-1.921875 1.0625 -4.734375 1.0625q-3.328125 0 -5.390625 -1.5q-2.0625 -1.5 -1.984375 -4.53125zm2.609375 -11.21875q0 3.671875 1.453125 5.359375q1.46875 1.6875 3.671875 1.6875q2.171875 0 3.640625 -1.671875q1.484375 -1.6875 1.484375 -5.265625q0 -3.421875 -1.515625 -5.15625q-1.515625 -1.75 -3.671875 -1.75q-2.109375 0 -3.59375 1.71875q-1.46875 1.703125 -1.46875 5.078125zm16.81836 0.34375q0 -5.1875 2.875 -7.6875q2.40625 -2.078125 5.875 -2.078125q3.84375 0 6.28125 2.53125q2.453125 2.515625 2.453125 6.96875q0 3.59375 -1.078125 5.671875q-1.078125 2.0625 -3.15625 3.203125q-2.0625 1.140625 -4.5 1.140625q-3.921875 0 -6.34375 -2.515625q-2.40625 -2.515625 -2.40625 -7.234375zm3.25 0q0 3.578125 1.5625 5.359375q1.5625 1.78125 3.9375 1.78125q2.359375 0 3.921875 -1.78125q1.5625 -1.796875 1.5625 -5.46875q0 -3.46875 -1.578125 -5.25q-1.578125 -1.78125 -3.90625 -1.78125q-2.375 0 -3.9375 1.78125q-1.5625 1.765625 -1.5625 5.359375zm17.91211 9.328125l0 -18.671875l2.84375 0l0 2.828125q1.09375 -1.984375 2.015625 -2.609375q0.921875 -0.640625 2.03125 -0.640625q1.59375 0 3.25 1.015625l-1.09375 2.9375q-1.15625 -0.6875 -2.3125 -0.6875q-1.046875 0 -1.875 0.625q-0.828125 0.625 -1.171875 1.734375q-0.53125 1.6875 -0.53125 3.6875l0 9.78125l-3.15625 0zm12.035156 -22.125l0 -3.640625l3.171875 0l0 3.640625l-3.171875 0zm0 22.125l0 -18.671875l3.171875 0l0 18.671875l-3.171875 0zm14.888672 -2.828125l0.453125 2.796875q-1.328125 0.28125 -2.390625 0.28125q-1.71875 0 -2.671875 -0.546875q-0.9375 -0.546875 -1.328125 -1.4375q-0.390625 -0.890625 -0.390625 -3.734375l0 -10.734375l-2.3125 0l0 -2.46875l2.3125 0l0 -4.625l3.140625 -1.890625l0 6.515625l3.1875 0l0 2.46875l-3.1875 0l0 10.90625q0 1.359375 0.171875 1.75q0.171875 0.375 0.546875 0.609375q0.375 0.234375 1.078125 0.234375q0.53125 0 1.390625 -0.125zm3.0957031 2.828125l0 -25.765625l3.15625 0l0 9.234375q2.21875 -2.5625 5.59375 -2.5625q2.078125 0 3.609375 0.828125q1.53125 0.8125 2.1875 2.25q0.65625 1.4375 0.65625 4.1875l0 11.828125l-3.15625 0l0 -11.828125q0 -2.375 -1.03125 -3.453125q-1.03125 -1.078125 -2.90625 -1.078125q-1.40625 0 -2.65625 0.734375q-1.234375 0.71875 -1.765625 1.96875q-0.53125 1.25 -0.53125 3.4375l0 10.21875l-3.15625 0zm20.021484 0l0 -18.671875l2.828125 0l0 2.625q0.875 -1.375 2.328125 -2.203125q1.46875 -0.84375 3.328125 -0.84375q2.078125 0 3.40625 0.859375q1.328125 0.859375 1.875 2.40625q2.21875 -3.265625 5.765625 -3.265625q2.78125 0 4.265625 1.546875q1.5 1.53125 1.5 4.734375l0 12.8125l-3.15625 0l0 -11.765625q0 -1.890625 -0.3125 -2.71875q-0.296875 -0.84375 -1.109375 -1.34375q-0.796875 -0.515625 -1.890625 -0.515625q-1.96875 0 -3.28125 1.3125q-1.296875 1.296875 -1.296875 4.1875l0 10.84375l-3.15625 0l0 -12.125q0 -2.109375 -0.78125 -3.15625q-0.765625 -1.0625 -2.53125 -1.0625q-1.328125 0 -2.46875 0.703125q-1.125 0.703125 -1.640625 2.0625q-0.515625 1.34375 -0.515625 3.890625l0 9.6875l-3.15625 0z" fill-rule="nonzero"/><path fill="#c27ba0" d="m22.506561 121.64042l132.25197 0l0 225.29135l-132.25197 0z" fill-rule="evenodd"/><path fill="#ead1dc" d="m136.63255 121.64042l18.141724 0l0 225.29135l-18.141724 0z" fill-rule="evenodd"/><path fill="#000000" fill-opacity="0.0" d="m88.632545 121.64042l0 225.29135" fill-rule="evenodd"/><path stroke="#a64d79" stroke-width="1.0" stroke-linejoin="round" stroke-linecap="butt" d="m88.632545 121.64042l0 225.29135" fill-rule="evenodd"/><path fill="#000000" fill-opacity="0.0" d="m104.632545 121.64042l0 225.29135" fill-rule="evenodd"/><path stroke="#a64d79" stroke-width="1.0" stroke-linejoin="round" stroke-linecap="butt" d="m104.632545 121.64042l0 225.29135" fill-rule="evenodd"/><path fill="#000000" fill-opacity="0.0" d="m120.632545 121.64042l0 225.29135" fill-rule="evenodd"/><path stroke="#a64d79" stroke-width="1.0" stroke-linejoin="round" stroke-linecap="butt" d="m120.632545 121.64042l0 225.29135" fill-rule="evenodd"/><path fill="#000000" fill-opacity="0.0" d="m136.63255 121.64042l0 225.29135" fill-rule="evenodd"/><path stroke="#a64d79" stroke-width="1.0" stroke-linejoin="round" stroke-linecap="butt" d="m136.63255 121.64042l0 225.29135" fill-rule="evenodd"/><path fill="#000000" fill-opacity="0.0" d="m72.632545 121.64042l0 225.29135" fill-rule="evenodd"/><path stroke="#a64d79" stroke-width="1.0" stroke-linejoin="round" stroke-linecap="butt" d="m72.632545 121.64042l0 225.29135" fill-rule="evenodd"/><path fill="#000000" fill-opacity="0.0" d="m56.632545 121.64042l0 225.29135" fill-rule="evenodd"/><path stroke="#a64d79" stroke-width="1.0" stroke-linejoin="round" stroke-linecap="butt" d="m56.632545 121.64042l0 225.29135" fill-rule="evenodd"/><path fill="#000000" fill-opacity="0.0" d="m40.632545 121.64042l0 225.29135" fill-rule="evenodd"/><path stroke="#a64d79" stroke-width="1.0" stroke-linejoin="round" stroke-linecap="butt" d="m40.632545 121.64042l0 225.29135" fill-rule="evenodd"/><path fill="#000000" fill-opacity="0.0" d="m22.506561 234.28609l132.25197 0" fill-rule="evenodd"/><path stroke="#a64d79" stroke-width="1.0" stroke-linejoin="round" stroke-linecap="butt" d="m22.506561 234.28609l132.25197 0" fill-rule="evenodd"/><path fill="#000000" fill-opacity="0.0" d="m22.506561 250.28609l132.25197 0" fill-rule="evenodd"/><path stroke="#a64d79" stroke-width="1.0" stroke-linejoin="round" stroke-linecap="butt" d="m22.506561 250.28609l132.25197 0" fill-rule="evenodd"/><path fill="#000000" fill-opacity="0.0" d="m22.506561 266.2861l132.25197 0" fill-rule="evenodd"/><path stroke="#a64d79" stroke-width="1.0" stroke-linejoin="round" stroke-linecap="butt" d="m22.506561 266.2861l132.25197 0" fill-rule="evenodd"/><path fill="#000000" fill-opacity="0.0" d="m22.506561 282.2861l132.25197 0" fill-rule="evenodd"/><path stroke="#a64d79" stroke-width="1.0" stroke-linejoin="round" stroke-linecap="butt" d="m22.506561 282.2861l132.25197 0" fill-rule="evenodd"/><path fill="#000000" fill-opacity="0.0" d="m22.506561 298.2861l132.25197 0" fill-rule="evenodd"/><path stroke="#a64d79" stroke-width="1.0" stroke-linejoin="round" stroke-linecap="butt" d="m22.506561 298.2861l132.25197 0" fill-rule="evenodd"/><path fill="#000000" fill-opacity="0.0" d="m22.506561 314.2861l132.25197 0" fill-rule="evenodd"/><path stroke="#a64d79" stroke-width="1.0" stroke-linejoin="round" stroke-linecap="butt" d="m22.506561 314.2861l132.25197 0" fill-rule="evenodd"/><path fill="#000000" fill-opacity="0.0" d="m22.506561 330.2861l132.25197 0" fill-rule="evenodd"/><path stroke="#a64d79" stroke-width="1.0" stroke-linejoin="round" stroke-linecap="butt" d="m22.506561 330.2861l132.25197 0" fill-rule="evenodd"/><path fill="#000000" fill-opacity="0.0" d="m22.506561 138.28609l132.25197 0" fill-rule="evenodd"/><path stroke="#a64d79" stroke-width="1.0" stroke-linejoin="round" stroke-linecap="butt" d="m22.506561 138.28609l132.25197 0" fill-rule="evenodd"/><path fill="#000000" fill-opacity="0.0" d="m22.506561 154.28609l132.25197 0" fill-rule="evenodd"/><path stroke="#a64d79" stroke-width="1.0" stroke-linejoin="round" stroke-linecap="butt" d="m22.506561 154.28609l132.25197 0" fill-rule="evenodd"/><path fill="#000000" fill-opacity="0.0" d="m22.506561 170.28609l132.25197 0" fill-rule="evenodd"/><path stroke="#a64d79" stroke-width="1.0" stroke-linejoin="round" stroke-linecap="butt" d="m22.506561 170.28609l132.25197 0" fill-rule="evenodd"/><path fill="#000000" fill-opacity="0.0" d="m22.506561 186.28609l132.25197 0" fill-rule="evenodd"/><path stroke="#a64d79" stroke-width="1.0" stroke-linejoin="round" stroke-linecap="butt" d="m22.506561 186.28609l132.25197 0" fill-rule="evenodd"/><path fill="#000000" fill-opacity="0.0" d="m22.506561 202.28609l132.25197 0" fill-rule="evenodd"/><path stroke="#a64d79" stroke-width="1.0" stroke-linejoin="round" stroke-linecap="butt" d="m22.506561 202.28609l132.25197 0" fill-rule="evenodd"/><path fill="#000000" fill-opacity="0.0" d="m22.506561 218.28609l132.25197 0" fill-rule="evenodd"/><path stroke="#a64d79" stroke-width="1.0" stroke-linejoin="round" stroke-linecap="butt" d="m22.506561 218.28609l132.25197 0" fill-rule="evenodd"/><path fill="#000000" fill-opacity="0.0" d="m22.506561 234.28609l132.25197 0" fill-rule="evenodd"/><path stroke="#a64d79" stroke-width="1.0" stroke-linejoin="round" stroke-linecap="butt" d="m22.506561 234.28609l132.25197 0" fill-rule="evenodd"/><path fill="#000000" fill-opacity="0.0" d="m46.04987 169.6483l108.72441 0l0 64.62991l-108.72441 0z" fill-rule="evenodd"/><path fill="#000000" d="m59.89362 196.5683l0 -11.78125l-4.40625 0l0 -1.578125l10.578121 0l0 1.578125l-4.406246 0l0 11.78125l-1.765625 0zm7.078274 0l0 -9.671875l1.46875 0l0 1.46875q0.5625 -1.03125 1.03125 -1.359375q0.484375 -0.328125 1.0625 -0.328125q0.828125 0 1.6875 0.53125l-0.5625 1.515625q-0.609375 -0.359375 -1.203125 -0.359375q-0.546875 0 -0.96875 0.328125q-0.421875 0.328125 -0.609375 0.890625q-0.28125 0.875 -0.28125 1.921875l0 5.0625l-1.625 0zm12.540802 -1.1875q-0.921875 0.765625 -1.765625 1.09375q-0.828125 0.3125 -1.796875 0.3125q-1.59375 0 -2.453125 -0.78125q-0.859375 -0.78125 -0.859375 -1.984375q0 -0.71875 0.328125 -1.296875q0.328125 -0.59375 0.84375 -0.9375q0.53125 -0.359375 1.1875 -0.546875q0.46875 -0.125 1.453125 -0.25q1.984375 -0.234375 2.921875 -0.5625q0.015625 -0.34375 0.015625 -0.421875q0 -1.0 -0.46875 -1.421875q-0.625 -0.546875 -1.875 -0.546875q-1.15625 0 -1.703125 0.40625q-0.546875 0.40625 -0.8125 1.421875l-1.609375 -0.21875q0.21875 -1.015625 0.71875 -1.640625q0.5 -0.640625 1.453125 -0.984375q0.953125 -0.34375 2.1875 -0.34375q1.25 0 2.015625 0.296875q0.78125 0.28125 1.140625 0.734375q0.375 0.4375 0.515625 1.109375q0.078125 0.421875 0.078125 1.515625l0 2.1875q0 2.28125 0.109375 2.890625q0.109375 0.59375 0.40625 1.15625l-1.703125 0q-0.265625 -0.515625 -0.328125 -1.1875zm-0.140625 -3.671875q-0.890625 0.375 -2.671875 0.625q-1.015625 0.140625 -1.4375 0.328125q-0.421875 0.1875 -0.65625 0.53125q-0.21875 0.34375 -0.21875 0.78125q0 0.65625 0.5 1.09375q0.5 0.4375 1.453125 0.4375q0.9375 0 1.671875 -0.40625q0.75 -0.421875 1.09375 -1.140625q0.265625 -0.5625 0.265625 -1.640625l0 -0.609375zm4.203842 -6.609375l0 -1.890625l1.640625 0l0 1.890625l-1.640625 0zm0 11.46875l0 -9.671875l1.640625 0l0 9.671875l-1.640625 0zm4.144821 0l0 -9.671875l1.46875 0l0 1.375q1.0625 -1.59375 3.078125 -1.59375q0.875 0 1.609375 0.3125q0.734375 0.3125 1.09375 0.828125q0.375 0.5 0.515625 1.203125q0.09375 0.453125 0.09375 1.59375l0 5.953125l-1.640625 0l0 -5.890625q0 -1.0 -0.203125 -1.484375q-0.1875 -0.5 -0.671875 -0.796875q-0.484375 -0.296875 -1.140625 -0.296875q-1.046875 0 -1.8125 0.671875q-0.75 0.65625 -0.75 2.515625l0 5.28125l-1.640625 0zm10.375717 -11.46875l0 -1.890625l1.640625 0l0 1.890625l-1.640625 0zm0 11.46875l0 -9.671875l1.640625 0l0 9.671875l-1.640625 0zm4.144821 0l0 -9.671875l1.46875 0l0 1.375q1.0625 -1.59375 3.078125 -1.59375q0.875 0 1.609375 0.3125q0.734375 0.3125 1.09375 0.828125q0.375 0.5 0.515625 1.203125q0.09375 0.453125 0.09375 1.59375l0 5.953125l-1.640625 0l0 -5.890625q0 -1.0 -0.203125 -1.484375q-0.1875 -0.5 -0.671875 -0.796875q-0.484375 -0.296875 -1.140625 -0.296875q-1.046875 0 -1.8125 0.671875q-0.75 0.65625 -0.75 2.515625l0 5.28125l-1.640625 0zm10.063217 0.796875l1.59375 0.234375q0.109375 0.75 0.5625 1.078125q0.609375 0.453125 1.671875 0.453125q1.140625 0 1.75 -0.453125q0.625 -0.453125 0.84375 -1.265625q0.125 -0.5 0.109375 -2.109375q-1.0625 1.265625 -2.671875 1.265625q-2.0 0 -3.09375 -1.4375q-1.09375 -1.4375 -1.09375 -3.453125q0 -1.390625 0.5 -2.5625q0.515625 -1.171875 1.453125 -1.796875q0.953125 -0.640625 2.25 -0.640625q1.703125 0 2.8125 1.375l0 -1.15625l1.515625 0l0 8.359375q0 2.265625 -0.46875 3.203125q-0.453125 0.9375 -1.453125 1.484375q-0.984375 0.546875 -2.453125 0.546875q-1.71875 0 -2.796875 -0.78125q-1.0625 -0.765625 -1.03125 -2.34375zm1.359375 -5.8125q0 1.90625 0.75 2.78125q0.765625 0.875 1.90625 0.875q1.125 0 1.890625 -0.859375q0.765625 -0.875 0.765625 -2.734375q0 -1.78125 -0.796875 -2.671875q-0.78125 -0.90625 -1.890625 -0.90625q-1.09375 0 -1.859375 0.890625q-0.765625 0.875 -0.765625 2.625z" fill-rule="nonzero"/><path fill="#000000" d="m62.54987 218.96829l0 -1.21875q-0.90625 1.4375 -2.703125 1.4375q-1.15625 0 -2.125 -0.640625q-0.96875 -0.640625 -1.5 -1.78125q-0.53125 -1.140625 -0.53125 -2.625q0 -1.453125 0.484375 -2.625q0.484375 -1.1875 1.4375 -1.8125q0.96875 -0.625 2.171875 -0.625q0.875 0 1.546875 0.375q0.6875 0.359375 1.109375 0.953125l0 -4.796875l1.6406212 0l0 13.359375l-1.5312462 0zm-5.171875 -4.828125q0 1.859375 0.78125 2.78125q0.78125 0.921875 1.84375 0.921875q1.078125 0 1.828125 -0.875q0.75 -0.890625 0.75 -2.6875q0 -1.984375 -0.765625 -2.90625q-0.765625 -0.9375 -1.890625 -0.9375q-1.078125 0 -1.8125 0.890625q-0.734375 0.890625 -0.734375 2.8125zm15.594463 3.640625q-0.921875 0.765625 -1.765625 1.09375q-0.828125 0.3125 -1.796875 0.3125q-1.59375 0 -2.453125 -0.78125q-0.859375 -0.78125 -0.859375 -1.984375q0 -0.71875 0.328125 -1.296875q0.328125 -0.59375 0.84375 -0.9375q0.53125 -0.359375 1.1875 -0.546875q0.46875 -0.125 1.453125 -0.25q1.984375 -0.234375 2.921875 -0.5625q0.015625 -0.34375 0.015625 -0.421875q0 -1.0 -0.46875 -1.421875q-0.625 -0.546875 -1.875 -0.546875q-1.15625 0 -1.703125 0.40625q-0.546875 0.40625 -0.8125 1.421875l-1.609375 -0.21875q0.21875 -1.015625 0.71875 -1.640625q0.5 -0.640625 1.453125 -0.984375q0.953125 -0.34375 2.1875 -0.34375q1.25 0 2.015625 0.296875q0.78125 0.28125 1.140625 0.734375q0.375 0.4375 0.515625 1.109375q0.078125 0.421875 0.078125 1.515625l0 2.1875q0 2.28125 0.109375 2.890625q0.109375 0.59375 0.40625 1.15625l-1.703125 0q-0.265625 -0.515625 -0.328125 -1.1875zm-0.140625 -3.671875q-0.890625 0.375 -2.671875 0.625q-1.015625 0.140625 -1.4375 0.328125q-0.421875 0.1875 -0.65625 0.53125q-0.21875 0.34375 -0.21875 0.78125q0 0.65625 0.5 1.09375q0.5 0.4375 1.453125 0.4375q0.9375 0 1.671875 -0.40625q0.75 -0.421875 1.09375 -1.140625q0.265625 -0.5625 0.265625 -1.640625l0 -0.609375zm7.781967 3.390625l0.234375 1.453125q-0.6875 0.140625 -1.234375 0.140625q-0.890625 0 -1.390625 -0.28125q-0.484375 -0.28125 -0.6875 -0.734375q-0.203125 -0.46875 -0.203125 -1.9375l0 -5.578125l-1.203125 0l0 -1.265625l1.203125 0l0 -2.390625l1.625 -0.984375l0 3.375l1.65625 0l0 1.265625l-1.65625 0l0 5.671875q0 0.6875 0.078125 0.890625q0.09375 0.203125 0.28125 0.328125q0.203125 0.109375 0.578125 0.109375q0.265625 0 0.71875 -0.0625zm7.917679 0.28125q-0.921875 0.765625 -1.765625 1.09375q-0.828125 0.3125 -1.796875 0.3125q-1.59375 0 -2.453125 -0.78125q-0.859375 -0.78125 -0.859375 -1.984375q0 -0.71875 0.328125 -1.296875q0.328125 -0.59375 0.84375 -0.9375q0.53125 -0.359375 1.1875 -0.546875q0.46875 -0.125 1.453125 -0.25q1.984375 -0.234375 2.921875 -0.5625q0.015625 -0.34375 0.015625 -0.421875q0 -1.0 -0.46875 -1.421875q-0.625 -0.546875 -1.875 -0.546875q-1.15625 0 -1.703125 0.40625q-0.546875 0.40625 -0.8125 1.421875l-1.609375 -0.21875q0.21875 -1.015625 0.71875 -1.640625q0.5 -0.640625 1.453125 -0.984375q0.953125 -0.34375 2.1875 -0.34375q1.25 0 2.015625 0.296875q0.78125 0.28125 1.140625 0.734375q0.375 0.4375 0.515625 1.109375q0.078125 0.421875 0.078125 1.515625l0 2.1875q0 2.28125 0.109375 2.890625q0.109375 0.59375 0.40625 1.15625l-1.703125 0q-0.265625 -0.515625 -0.328125 -1.1875zm-0.140625 -3.671875q-0.890625 0.375 -2.671875 0.625q-1.015625 0.140625 -1.4375 0.328125q-0.421875 0.1875 -0.65625 0.53125q-0.21875 0.34375 -0.21875 0.78125q0 0.65625 0.5 1.09375q0.5 0.4375 1.453125 0.4375q0.9375 0 1.671875 -0.40625q0.75 -0.421875 1.09375 -1.140625q0.265625 -0.5625 0.265625 -1.640625l0 -0.609375z" fill-rule="nonzero"/><path fill="#000000" fill-opacity="0.0" d="m154.77428 234.28609l98.92914 0" fill-rule="evenodd"/><path stroke="#000000" stroke-width="8.0" stroke-linejoin="round" stroke-linecap="butt" d="m154.77428 234.28609l50.92914 0" fill-rule="evenodd"/><path fill="#000000" stroke="#000000" stroke-width="8.0" stroke-linecap="butt" d="m205.70341 247.49995l36.30478 -13.213867l-36.30478 -13.213852z" fill-rule="evenodd"/><path fill="#ead1dc" d="m882.6116 403.6719l60.094482 0l0 55.338593l-60.094482 0z" fill-rule="evenodd"/><path fill="#000000" fill-opacity="0.0" d="m527.02625 234.28609l116.25195 0l0 107.11812" fill-rule="evenodd"/><path stroke="#000000" stroke-width="8.0" stroke-linejoin="round" stroke-linecap="butt" d="m527.02625 234.28609l116.25195 0l0 59.11812" fill-rule="evenodd"/><path fill="#000000" stroke="#000000" stroke-width="8.0" stroke-linecap="butt" d="m630.06433 293.4042l13.213867 36.30478l13.213867 -36.30478z" fill-rule="evenodd"/><path fill="#c27ba0" d="m236.09222 414.07663l183.15833 0l0 44.93271l-183.15833 0z" fill-rule="evenodd"/><path fill="#000000" fill-opacity="0.0" d="m342.20575 414.07663l0 44.93271" fill-rule="evenodd"/><path stroke="#a64d79" stroke-width="1.0" stroke-linejoin="round" stroke-linecap="butt" d="m342.20575 414.07663l0 44.93271" fill-rule="evenodd"/><path fill="#000000" fill-opacity="0.0" d="m367.88736 414.07663l0 44.93271" fill-rule="evenodd"/><path stroke="#a64d79" stroke-width="1.0" stroke-linejoin="round" stroke-linecap="butt" d="m367.88736 414.07663l0 44.93271" fill-rule="evenodd"/><path fill="#000000" fill-opacity="0.0" d="m393.56897 414.07663l0 44.93271" fill-rule="evenodd"/><path stroke="#a64d79" stroke-width="1.0" stroke-linejoin="round" stroke-linecap="butt" d="m393.56897 414.07663l0 44.93271" fill-rule="evenodd"/><path fill="#000000" fill-opacity="0.0" d="m419.25055 414.07663l0 44.93271" fill-rule="evenodd"/><path stroke="#a64d79" stroke-width="1.0" stroke-linejoin="round" stroke-linecap="butt" d="m419.25055 414.07663l0 44.93271" fill-rule="evenodd"/><path fill="#000000" fill-opacity="0.0" d="m316.52417 414.07663l0 44.93271" fill-rule="evenodd"/><path stroke="#a64d79" stroke-width="1.0" stroke-linejoin="round" stroke-linecap="butt" d="m316.52417 414.07663l0 44.93271" fill-rule="evenodd"/><path fill="#000000" fill-opacity="0.0" d="m290.84256 414.07663l0 44.93271" fill-rule="evenodd"/><path stroke="#a64d79" stroke-width="1.0" stroke-linejoin="round" stroke-linecap="butt" d="m290.84256 414.07663l0 44.93271" fill-rule="evenodd"/><path fill="#000000" fill-opacity="0.0" d="m265.16095 414.07663l0 44.93271" fill-rule="evenodd"/><path stroke="#a64d79" stroke-width="1.0" stroke-linejoin="round" stroke-linecap="butt" d="m265.16095 414.07663l0 44.93271" fill-rule="evenodd"/><path fill="#000000" fill-opacity="0.0" d="m261.8832 414.09055l148.56693 0l0 42.015747l-148.56693 0z" fill-rule="evenodd"/><path fill="#000000" d="m275.72696 441.01056l0 -11.78125l-4.40625 0l0 -1.578125l10.578125 0l0 1.578125l-4.40625 0l0 11.78125l-1.765625 0zm12.34259 -3.109375l1.6875 0.203125q-0.40625 1.484375 -1.484375 2.3125q-1.078125 0.8125 -2.765625 0.8125q-2.125 0 -3.375 -1.296875q-1.234375 -1.3125 -1.234375 -3.671875q0 -2.453125 1.25 -3.796875q1.265625 -1.34375 3.265625 -1.34375q1.9375 0 3.15625 1.328125q1.234375 1.3125 1.234375 3.703125q0 0.15625 0 0.4375l-7.21875 0q0.09375 1.59375 0.90625 2.453125q0.8125 0.84375 2.015625 0.84375q0.90625 0 1.546875 -0.46875q0.640625 -0.484375 1.015625 -1.515625zm-5.390625 -2.65625l5.40625 0q-0.109375 -1.21875 -0.625 -1.828125q-0.78125 -0.953125 -2.03125 -0.953125q-1.125 0 -1.90625 0.765625q-0.765625 0.75 -0.84375 2.015625zm8.485077 2.875l1.625 -0.25q0.125 0.96875 0.75 1.5q0.625 0.515625 1.75 0.515625q1.125 0 1.671875 -0.453125q0.546875 -0.46875 0.546875 -1.09375q0 -0.546875 -0.484375 -0.875q-0.328125 -0.21875 -1.671875 -0.546875q-1.8125 -0.46875 -2.515625 -0.796875q-0.6875 -0.328125 -1.046875 -0.90625q-0.359375 -0.59375 -0.359375 -1.3125q0 -0.640625 0.296875 -1.1875q0.296875 -0.5625 0.8125 -0.921875q0.375 -0.28125 1.03125 -0.46875q0.671875 -0.203125 1.421875 -0.203125q1.140625 0 2.0 0.328125q0.859375 0.328125 1.265625 0.890625q0.421875 0.5625 0.578125 1.5l-1.609375 0.21875q-0.109375 -0.75 -0.640625 -1.171875q-0.515625 -0.421875 -1.46875 -0.421875q-1.140625 0 -1.625 0.375q-0.46875 0.375 -0.46875 0.875q0 0.3125 0.1875 0.578125q0.203125 0.265625 0.640625 0.4375q0.234375 0.09375 1.4375 0.421875q1.75 0.453125 2.4375 0.75q0.6875 0.296875 1.078125 0.859375q0.390625 0.5625 0.390625 1.40625q0 0.828125 -0.484375 1.546875q-0.46875 0.71875 -1.375 1.125q-0.90625 0.390625 -2.046875 0.390625q-1.875 0 -2.875 -0.78125q-0.984375 -0.78125 -1.25 -2.328125zm13.5625 1.421875l0.234375 1.453125q-0.6875 0.140625 -1.234375 0.140625q-0.890625 0 -1.390625 -0.28125q-0.484375 -0.28125 -0.6875 -0.734375q-0.203125 -0.46875 -0.203125 -1.9375l0 -5.578125l-1.203125 0l0 -1.265625l1.203125 0l0 -2.390625l1.625 -0.984375l0 3.375l1.65625 0l0 1.265625l-1.65625 0l0 5.671875q0 0.6875 0.078125 0.890625q0.09375 0.203125 0.28125 0.328125q0.203125 0.109375 0.578125 0.109375q0.265625 0 0.71875 -0.0625zm6.1322327 -1.421875l1.625 -0.25q0.125 0.96875 0.75 1.5q0.625 0.515625 1.75 0.515625q1.125 0 1.671875 -0.453125q0.546875 -0.46875 0.546875 -1.09375q0 -0.546875 -0.484375 -0.875q-0.328125 -0.21875 -1.671875 -0.546875q-1.8125 -0.46875 -2.515625 -0.796875q-0.6875 -0.328125 -1.046875 -0.90625q-0.359375 -0.59375 -0.359375 -1.3125q0 -0.640625 0.296875 -1.1875q0.296875 -0.5625 0.8125 -0.921875q0.375 -0.28125 1.03125 -0.46875q0.671875 -0.203125 1.421875 -0.203125q1.140625 0 2.0 0.328125q0.859375 0.328125 1.265625 0.890625q0.421875 0.5625 0.578125 1.5l-1.609375 0.21875q-0.109375 -0.75 -0.640625 -1.171875q-0.515625 -0.421875 -1.46875 -0.421875q-1.140625 0 -1.625 0.375q-0.46875 0.375 -0.46875 0.875q0 0.3125 0.1875 0.578125q0.203125 0.265625 0.640625 0.4375q0.234375 0.09375 1.4375 0.421875q1.75 0.453125 2.4375 0.75q0.6875 0.296875 1.078125 0.859375q0.390625 0.5625 0.390625 1.40625q0 0.828125 -0.484375 1.546875q-0.46875 0.71875 -1.375 1.125q-0.90625 0.390625 -2.046875 0.390625q-1.875 0 -2.875 -0.78125q-0.984375 -0.78125 -1.25 -2.328125zm16.296875 1.703125q-0.921875 0.765625 -1.765625 1.09375q-0.828125 0.3125 -1.796875 0.3125q-1.59375 0 -2.453125 -0.78125q-0.859375 -0.78125 -0.859375 -1.984375q0 -0.71875 0.328125 -1.296875q0.328125 -0.59375 0.84375 -0.9375q0.53125 -0.359375 1.1875 -0.546875q0.46875 -0.125 1.453125 -0.25q1.984375 -0.234375 2.921875 -0.5625q0.015625 -0.34375 0.015625 -0.421875q0 -1.0 -0.46875 -1.421875q-0.625 -0.546875 -1.875 -0.546875q-1.15625 0 -1.703125 0.40625q-0.546875 0.40625 -0.8125 1.421875l-1.609375 -0.21875q0.21875 -1.015625 0.71875 -1.640625q0.5 -0.640625 1.453125 -0.984375q0.953125 -0.34375 2.1875 -0.34375q1.25 0 2.015625 0.296875q0.78125 0.28125 1.140625 0.734375q0.375 0.4375 0.515625 1.109375q0.078125 0.421875 0.078125 1.515625l0 2.1875q0 2.28125 0.109375 2.890625q0.109375 0.59375 0.40625 1.15625l-1.703125 0q-0.265625 -0.515625 -0.328125 -1.1875zm-0.140625 -3.671875q-0.890625 0.375 -2.671875 0.625q-1.015625 0.140625 -1.4375 0.328125q-0.421875 0.1875 -0.65625 0.53125q-0.21875 0.34375 -0.21875 0.78125q0 0.65625 0.5 1.09375q0.5 0.4375 1.453125 0.4375q0.9375 0 1.671875 -0.40625q0.75 -0.421875 1.09375 -1.140625q0.265625 -0.5625 0.265625 -1.640625l0 -0.609375zm4.2038574 4.859375l0 -9.671875l1.46875 0l0 1.359375q0.453125 -0.71875 1.203125 -1.140625q0.765625 -0.4375 1.71875 -0.4375q1.078125 0 1.765625 0.453125q0.6875 0.4375 0.96875 1.234375q1.15625 -1.6875 2.984375 -1.6875q1.453125 0 2.21875 0.796875q0.78125 0.796875 0.78125 2.453125l0 6.640625l-1.640625 0l0 -6.09375q0 -0.984375 -0.15625 -1.40625q-0.15625 -0.4375 -0.578125 -0.703125q-0.421875 -0.265625 -0.984375 -0.265625q-1.015625 0 -1.6875 0.6875q-0.671875 0.671875 -0.671875 2.15625l0 5.625l-1.640625 0l0 -6.28125q0 -1.09375 -0.40625 -1.640625q-0.40625 -0.546875 -1.3125 -0.546875q-0.6875 0 -1.28125 0.359375q-0.59375 0.359375 -0.859375 1.0625q-0.25 0.703125 -0.25 2.03125l0 5.015625l-1.640625 0zm15.540802 3.703125l0 -13.375l1.484375 0l0 1.25q0.53125 -0.734375 1.1875 -1.09375q0.671875 -0.375 1.625 -0.375q1.234375 0 2.171875 0.640625q0.953125 0.625 1.4375 1.796875q0.484375 1.15625 0.484375 2.546875q0 1.484375 -0.53125 2.671875q-0.53125 1.1875 -1.546875 1.828125q-1.015625 0.625 -2.140625 0.625q-0.8125 0 -1.46875 -0.34375q-0.65625 -0.34375 -1.0625 -0.875l0 4.703125l-1.640625 0zm1.484375 -8.484375q0 1.859375 0.75 2.765625q0.765625 0.890625 1.828125 0.890625q1.09375 0 1.875 -0.921875q0.78125 -0.9375 0.78125 -2.875q0 -1.84375 -0.765625 -2.765625q-0.75 -0.921875 -1.8125 -0.921875q-1.046875 0 -1.859375 0.984375q-0.796875 0.96875 -0.796875 2.84375zm8.844452 4.78125l0 -13.359375l1.640625 0l0 13.359375l-1.640625 0zm10.816711 -3.109375l1.6875 0.203125q-0.40625 1.484375 -1.484375 2.3125q-1.078125 0.8125 -2.765625 0.8125q-2.125 0 -3.375 -1.296875q-1.234375 -1.3125 -1.234375 -3.671875q0 -2.453125 1.25 -3.796875q1.265625 -1.34375 3.265625 -1.34375q1.9375 0 3.15625 1.328125q1.234375 1.3125 1.234375 3.703125q0 0.15625 0 0.4375l-7.21875 0q0.09375 1.59375 0.90625 2.453125q0.8125 0.84375 2.015625 0.84375q0.90625 0 1.546875 -0.46875q0.640625 -0.484375 1.015625 -1.515625zm-5.390625 -2.65625l5.40625 0q-0.109375 -1.21875 -0.625 -1.828125q-0.78125 -0.953125 -2.03125 -0.953125q-1.125 0 -1.90625 0.765625q-0.765625 0.75 -0.84375 2.015625z" fill-rule="nonzero"/><path fill="#000000" fill-opacity="0.0" d="m419.25055 436.54297l107.77954 -5.1968384" fill-rule="evenodd"/><path stroke="#000000" stroke-width="8.0" stroke-linejoin="round" stroke-linecap="butt" d="m419.25058 436.54297l59.835205 -2.8850708" fill-rule="evenodd"/><path fill="#000000" stroke="#000000" stroke-width="8.0" stroke-linecap="butt" d="m479.7222 446.8564l35.62625 -14.9470215l-36.899048 -11.450043z" fill-rule="evenodd"/><path fill="#000000" fill-opacity="0.0" d="m759.5302 431.34122l123.08661 0" fill-rule="evenodd"/><path stroke="#000000" stroke-width="8.0" stroke-linejoin="round" stroke-linecap="butt" d="m759.5302 431.34122l75.08661 0" fill-rule="evenodd"/><path fill="#000000" stroke="#000000" stroke-width="8.0" stroke-linecap="butt" d="m834.6168 444.55505l36.30475 -13.213837l-36.30475 -13.213867z" fill-rule="evenodd"/></g></svg>