<svg version="1.1" viewBox="0.0 0.0 1261.706036745407 713.9737532808399" fill="none" stroke="none" stroke-linecap="square" stroke-miterlimit="10" xmlns:xlink="http://www.w3.org/1999/xlink" xmlns="http://www.w3.org/2000/svg"><clipPath id="p.0"><path d="m0 0l1261.706 0l0 713.97375l-1261.706 0l0 -713.97375z" clip-rule="nonzero"/></clipPath><g clip-path="url(#p.0)"><path fill="#000000" fill-opacity="0.0" d="m0 0l1261.706 0l0 713.97375l-1261.706 0z" fill-rule="evenodd"/><path fill="#9fc5e8" d="m7.8950133 138.76715l417.95276 0l0 563.37006l-417.95276 0z" fill-rule="evenodd"/><path fill="#cfe2f3" d="m63.720802 138.76715l61.102364 0l0 563.37006l-61.102364 0z" fill-rule="evenodd"/><path fill="#a64d79" d="m430.4326 138.76715l61.102356 0l0 563.37006l-61.102356 0z" fill-rule="evenodd"/><path fill="#6fa8dc" d="m185.95807 138.76715l61.102356 0l0 563.37006l-61.102356 0z" fill-rule="evenodd"/><path fill="#3d85c6" d="m124.832664 138.76715l61.102364 0l0 563.37006l-61.102364 0z" fill-rule="evenodd"/><path fill="#cfe2f3" d="m308.1953 138.76715l61.102386 0l0 563.37006l-61.102386 0z" fill-rule="evenodd"/><path fill="#3d85c6" d="m369.3072 138.76715l61.102356 0l0 563.37006l-61.102356 0z" fill-rule="evenodd"/><path fill="#9d9d9d" fill-opacity="0.8155" d="m8.616456 137.8819l482.92914 0l0 32.7874l-482.92914 0z" fill-rule="evenodd"/><path stroke="#000000" stroke-width="3.0" stroke-linejoin="round" stroke-linecap="butt" d="m8.616456 137.8819l482.92914 0l0 32.7874l-482.92914 0z" fill-rule="evenodd"/><path fill="#000000" d="m222.26978 161.19559l0 -13.359375l1.640625 0l0 4.796875q1.140625 -1.328125 2.890625 -1.328125q1.078125 0 1.859375 0.421875q0.796875 0.421875 1.140625 1.171875q0.34375 0.75 0.34375 2.171875l0 6.125l-1.640625 0l0 -6.125q0 -1.234375 -0.53125 -1.796875q-0.53125 -0.5625 -1.515625 -0.5625q-0.71875 0 -1.359375 0.390625q-0.640625 0.375 -0.921875 1.015625q-0.265625 0.640625 -0.265625 1.78125l0 5.296875l-1.640625 0zm17.000717 -3.109375l1.6875 0.203125q-0.40625 1.484375 -1.484375 2.3125q-1.078125 0.8125 -2.765625 0.8125q-2.125 0 -3.375 -1.296875q-1.234375 -1.3125 -1.234375 -3.671875q0 -2.453125 1.25 -3.796875q1.265625 -1.34375 3.265625 -1.34375q1.9375 0 3.15625 1.328125q1.234375 1.3125 1.234375 3.703125q0 0.15625 0 0.4375l-7.21875 0q0.09375 1.59375 0.90625 2.453125q0.8125 0.84375 2.015625 0.84375q0.90625 0 1.546875 -0.46875q0.640625 -0.484375 1.015625 -1.515625zm-5.390625 -2.65625l5.40625 0q-0.109375 -1.21875 -0.625 -1.828125q-0.78125 -0.953125 -2.03125 -0.953125q-1.125 0 -1.90625 0.765625q-0.765625 0.75 -0.84375 2.015625zm15.453842 4.578125q-0.921875 0.765625 -1.765625 1.09375q-0.828125 0.3125 -1.796875 0.3125q-1.59375 0 -2.453125 -0.78125q-0.859375 -0.78125 -0.859375 -1.984375q0 -0.71875 0.328125 -1.296875q0.328125 -0.59375 0.84375 -0.9375q0.53125 -0.359375 1.1875 -0.546875q0.46875 -0.125 1.453125 -0.25q1.984375 -0.234375 2.921875 -0.5625q0.015625 -0.34375 0.015625 -0.421875q0 -1.0 -0.46875 -1.421875q-0.625 -0.546875 -1.875 -0.546875q-1.15625 0 -1.703125 0.40625q-0.546875 0.40625 -0.8125 1.421875l-1.609375 -0.21875q0.21875 -1.015625 0.71875 -1.640625q0.5 -0.640625 1.453125 -0.984375q0.953125 -0.34375 2.1875 -0.34375q1.25 0 2.015625 0.296875q0.78125 0.28125 1.140625 0.734375q0.375 0.4375 0.515625 1.109375q0.078125 0.421875 0.078125 1.515625l0 2.1875q0 2.28125 0.109375 2.890625q0.109375 0.59375 0.40625 1.15625l-1.703125 0q-0.265625 -0.515625 -0.328125 -1.1875zm-0.140625 -3.671875q-0.890625 0.375 -2.671875 0.625q-1.015625 0.140625 -1.4375 0.328125q-0.421875 0.1875 -0.65625 0.53125q-0.21875 0.34375 -0.21875 0.78125q0 0.65625 0.5 1.09375q0.5 0.4375 1.453125 0.4375q0.9375 0 1.671875 -0.40625q0.75 -0.421875 1.09375 -1.140625q0.265625 -0.5625 0.265625 -1.640625l0 -0.609375zm10.469482 4.859375l0 -1.21875q-0.90625 1.4375 -2.703125 1.4375q-1.1562653 0 -2.1250153 -0.640625q-0.96875 -0.640625 -1.5 -1.78125q-0.53125 -1.140625 -0.53125 -2.625q0 -1.453125 0.484375 -2.625q0.484375 -1.1875 1.4375 -1.8125q0.96875 -0.625 2.1718903 -0.625q0.875 0 1.546875 0.375q0.6875 0.359375 1.109375 0.953125l0 -4.796875l1.640625 0l0 13.359375l-1.53125 0zm-5.1718903 -4.828125q0 1.859375 0.78125 2.78125q0.78126526 0.921875 1.8437653 0.921875q1.078125 0 1.828125 -0.875q0.75 -0.890625 0.75 -2.6875q0 -1.984375 -0.765625 -2.90625q-0.765625 -0.9375 -1.890625 -0.9375q-1.0781403 0 -1.8125153 0.890625q-0.734375 0.890625 -0.734375 2.8125zm15.906967 1.71875l1.6875 0.203125q-0.40625 1.484375 -1.484375 2.3125q-1.078125 0.8125 -2.765625 0.8125q-2.125 0 -3.375 -1.296875q-1.234375 -1.3125 -1.234375 -3.671875q0 -2.453125 1.25 -3.796875q1.265625 -1.34375 3.265625 -1.34375q1.9375 0 3.15625 1.328125q1.234375 1.3125 1.234375 3.703125q0 0.15625 0 0.4375l-7.21875 0q0.09375 1.59375 0.90625 2.453125q0.8125 0.84375 2.015625 0.84375q0.90625 0 1.546875 -0.46875q0.640625 -0.484375 1.015625 -1.515625zm-5.390625 -2.65625l5.40625 0q-0.109375 -1.21875 -0.625 -1.828125q-0.78125 -0.953125 -2.03125 -0.953125q-1.125 0 -1.90625 0.765625q-0.765625 0.75 -0.84375 2.015625zm9.125732 5.765625l0 -9.671875l1.46875 0l0 1.46875q0.5625 -1.03125 1.03125 -1.359375q0.484375 -0.328125 1.0625 -0.328125q0.828125 0 1.6875 0.53125l-0.5625 1.515625q-0.609375 -0.359375 -1.203125 -0.359375q-0.546875 0 -0.96875 0.328125q-0.421875 0.328125 -0.609375 0.890625q-0.28125 0.875 -0.28125 1.921875l0 5.0625l-1.625 0z" fill-rule="nonzero"/><path fill="#000000" fill-opacity="0.0" d="m63.720802 369.36823l305.5748 0l0 77.57483l-305.5748 0z" fill-rule="evenodd"/><path fill="#000000" d="m133.96132 424.44824l0 -21.609375l-3.71875 0l0 -3.28125l3.71875 0l0 -2.65625q0 -2.5 0.453125 -3.71875q0.609375 -1.640625 2.140625 -2.65625q1.53125 -1.03125 4.296875 -1.03125q1.78125 0 3.9375 0.421875l-0.625 3.6875q-1.3125 -0.234375 -2.484375 -0.234375q-1.921875 0 -2.71875 0.828125q-0.796875 0.8125 -0.796875 3.0625l0 2.296875l4.84375 0l0 3.28125l-4.84375 0l0 21.609375l-4.203125 0zm29.367188 -8.015625l4.359375 0.53125q-1.03125 3.828125 -3.828125 5.9375q-2.78125 2.109375 -7.109375 2.109375q-5.46875 0 -8.671875 -3.359375q-3.1875 -3.375 -3.1875 -9.4375q0 -6.28125 3.234375 -9.75q3.234375 -3.46875 8.390625 -3.46875q4.984375 0 8.140625 3.40625q3.171875 3.390625 3.171875 9.546875q0 0.375 -0.015625 1.125l-18.5625 0q0.234375 4.109375 2.3125 6.296875q2.09375 2.171875 5.203125 2.171875q2.328125 0 3.96875 -1.21875q1.640625 -1.21875 2.59375 -3.890625zm-13.84375 -6.828125l13.890625 0q-0.28125 -3.140625 -1.59375 -4.703125q-2.015625 -2.4375 -5.21875 -2.4375q-2.90625 0 -4.890625 1.953125q-1.984375 1.9375 -2.1875 5.1875zm39.742188 11.765625q-2.34375 2.0 -4.515625 2.828125q-2.15625 0.8125 -4.640625 0.8125q-4.109375 0 -6.3125 -2.0q-2.203125 -2.015625 -2.203125 -5.125q0 -1.828125 0.828125 -3.34375q0.84375 -1.515625 2.1875 -2.421875q1.34375 -0.921875 3.03125 -1.390625q1.25 -0.328125 3.75 -0.625q5.109375 -0.609375 7.53125 -1.453125q0.015625 -0.875 0.015625 -1.109375q0 -2.578125 -1.1875 -3.625q-1.625 -1.4375 -4.8125 -1.4375q-2.96875 0 -4.390625 1.046875q-1.421875 1.046875 -2.09375 3.6875l-4.125 -0.5625q0.5625 -2.640625 1.84375 -4.265625q1.296875 -1.640625 3.734375 -2.515625q2.4375 -0.875 5.640625 -0.875q3.1875 0 5.171875 0.75q2.0 0.75 2.9375 1.890625q0.9375 1.125 1.3125 2.859375q0.21875 1.078125 0.21875 3.890625l0 5.625q0 5.890625 0.265625 7.453125q0.265625 1.546875 1.0625 2.984375l-4.40625 0q-0.65625 -1.3125 -0.84375 -3.078125zm-0.34375 -9.421875q-2.296875 0.9375 -6.890625 1.59375q-2.609375 0.375 -3.6875 0.84375q-1.078125 0.46875 -1.671875 1.375q-0.578125 0.90625 -0.578125 2.0q0 1.6875 1.28125 2.8125q1.28125 1.125 3.734375 1.125q2.4375 0 4.328125 -1.0625q1.90625 -1.0625 2.796875 -2.921875q0.6875 -1.421875 0.6875 -4.21875l0 -1.546875zm20.007812 8.71875l0.609375 3.734375q-1.78125 0.375 -3.1875 0.375q-2.296875 0 -3.5625 -0.71875q-1.265625 -0.734375 -1.78125 -1.921875q-0.515625 -1.1875 -0.515625 -4.984375l0 -14.3125l-3.09375 0l0 -3.28125l3.09375 0l0 -6.171875l4.203125 -2.53125l0 8.703125l4.234375 0l0 3.28125l-4.234375 0l0 14.546875q0 1.8125 0.21875 2.328125q0.21875 0.515625 0.71875 0.828125q0.515625 0.296875 1.453125 0.296875q0.703125 0 1.84375 -0.171875zm20.445312 3.78125l0 -3.65625q-2.90625 4.21875 -7.90625 4.21875q-2.203125 0 -4.109375 -0.84375q-1.90625 -0.84375 -2.84375 -2.125q-0.921875 -1.28125 -1.296875 -3.125q-0.25 -1.25 -0.25 -3.9375l0 -15.421875l4.21875 0l0 13.796875q0 3.3125 0.25 4.453125q0.40625 1.671875 1.6875 2.625q1.296875 0.9375 3.1875 0.9375q1.90625 0 3.5625 -0.96875q1.671875 -0.96875 2.359375 -2.640625q0.6875 -1.6875 0.6875 -4.875l0 -13.328125l4.21875 0l0 24.890625l-3.765625 0zm10.3359375 0l0 -24.890625l3.796875 0l0 3.765625q1.453125 -2.640625 2.671875 -3.484375q1.234375 -0.84375 2.71875 -0.84375q2.125 0 4.328125 1.359375l-1.453125 3.90625q-1.546875 -0.90625 -3.09375 -0.90625q-1.375 0 -2.484375 0.828125q-1.09375 0.828125 -1.5625 2.3125q-0.703125 2.25 -0.703125 4.921875l0 13.03125l-4.21875 0zm33.062515 -8.015625l4.359375 0.53125q-1.03125 3.828125 -3.828125 5.9375q-2.78125 2.109375 -7.109375 2.109375q-5.46875 0 -8.671875 -3.359375q-3.1875153 -3.375 -3.1875153 -9.4375q0 -6.28125 3.2343903 -9.75q3.234375 -3.46875 8.390625 -3.46875q4.984375 0 8.140625 3.40625q3.171875 3.390625 3.171875 9.546875q0 0.375 -0.015625 1.125l-18.5625 0q0.234375 4.109375 2.3125 6.296875q2.09375 2.171875 5.203125 2.171875q2.328125 0 3.96875 -1.21875q1.640625 -1.21875 2.59375 -3.890625zm-13.84375 -6.828125l13.890625 0q-0.28125 -3.140625 -1.59375 -4.703125q-2.015625 -2.4375 -5.21875 -2.4375q-2.90625 0 -4.890625 1.953125q-1.984375 1.9375 -2.1875 5.1875zm21.820312 7.40625l4.171875 -0.65625q0.34375 2.515625 1.953125 3.859375q1.609375 1.328125 4.484375 1.328125q2.90625 0 4.3125 -1.1875q1.40625 -1.1875 1.40625 -2.78125q0 -1.421875 -1.234375 -2.25q-0.875 -0.5625 -4.3125 -1.421875q-4.640625 -1.171875 -6.4375 -2.03125q-1.796875 -0.859375 -2.71875 -2.359375q-0.921875 -1.515625 -0.921875 -3.34375q0 -1.671875 0.75 -3.078125q0.765625 -1.421875 2.078125 -2.359375q0.984375 -0.734375 2.6875 -1.234375q1.703125 -0.5 3.640625 -0.5q2.9375 0 5.140625 0.84375q2.21875 0.84375 3.265625 2.28125q1.0625 1.4375 1.46875 3.859375l-4.125 0.5625q-0.28125 -1.921875 -1.640625 -3.0q-1.34375 -1.078125 -3.796875 -1.078125q-2.90625 0 -4.15625 0.96875q-1.234375 0.953125 -1.234375 2.234375q0 0.828125 0.515625 1.484375q0.515625 0.671875 1.609375 1.125q0.640625 0.234375 3.734375 1.078125q4.46875 1.1875 6.234375 1.953125q1.78125 0.765625 2.78125 2.21875q1.015625 1.453125 1.015625 3.609375q0 2.109375 -1.234375 3.96875q-1.234375 1.859375 -3.5625 2.890625q-2.3125 1.015625 -5.234375 1.015625q-4.859375 0 -7.40625 -2.015625q-2.53125 -2.015625 -3.234375 -5.984375z" fill-rule="nonzero"/><path fill="#000000" fill-opacity="0.0" d="m496.70865 246.67592l0 333.03937l-77.5748 0l0 -333.03937z" fill-rule="evenodd"/><path fill="#000000" d="m445.4099 364.1995l-3.734375 0.609375q-0.375 -1.78125 -0.375 -3.1875q0 -2.296875 0.71875 -3.5625q0.734375 -1.265625 1.921875 -1.78125q1.1875 -0.515625 4.984375 -0.515625l14.3125 0l0 -3.09375l3.28125 0l0 3.09375l6.171875 0l2.53125 4.203125l-8.703125 0l0 4.234375l-3.28125 0l0 -4.234375l-14.546875 0q-1.8125 0 -2.328125 0.21875q-0.515625 0.21875 -0.828125 0.71875q-0.296875 0.515625 -0.296875 1.453125q0 0.703125 0.171875 1.84375zm-0.703125 20.367188q-2.0 -2.34375 -2.828125 -4.515625q-0.8125 -2.15625 -0.8125 -4.640625q0 -4.109375 2.0 -6.3125q2.015625 -2.203125 5.125 -2.203125q1.828125 0 3.34375 0.828125q1.515625 0.84375 2.421875 2.1875q0.921875 1.34375 1.390625 3.03125q0.328125 1.25 0.625 3.75q0.609375 5.109375 1.453125 7.53125q0.875 0.015625 1.109375 0.015625q2.578125 0 3.625 -1.1875q1.4375 -1.625 1.4375 -4.8125q0 -2.96875 -1.046875 -4.390625q-1.046875 -1.421875 -3.6875 -2.09375l0.5625 -4.125q2.640625 0.5625 4.265625 1.84375q1.640625 1.296875 2.515625 3.734375q0.875 2.4375 0.875 5.640625q0 3.1875 -0.75 5.171875q-0.75 2.0 -1.890625 2.9375q-1.125 0.9375 -2.859375 1.3125q-1.078125 0.21875 -3.890625 0.21875l-5.625 0q-5.890625 0 -7.453125 0.265625q-1.546875 0.265625 -2.984375 1.0625l0 -4.40625q1.3125 -0.65625 3.078125 -0.84375zm9.421875 -0.34375q-0.9375 -2.296875 -1.59375 -6.890625q-0.375 -2.609375 -0.84375 -3.6875q-0.46875 -1.078125 -1.375 -1.671875q-0.90625 -0.578125 -2.0 -0.578125q-1.6875 0 -2.8125 1.28125q-1.125 1.28125 -1.125 3.734375q0 2.4375 1.0625 4.328125q1.0625 1.90625 2.921875 2.796875q1.421875 0.6875 4.21875 0.6875l1.546875 0zm-12.5 10.7578125l24.890625 0l0 3.796875l-3.765625 0q2.640625 1.453125 3.484375 2.671875q0.84375 1.234375 0.84375 2.71875q0 2.125 -1.359375 4.328125l-3.90625 -1.453125q0.90625 -1.546875 0.90625 -3.09375q0 -1.375 -0.828125 -2.484375q-0.828125 -1.09375 -2.3125 -1.5625q-2.25 -0.703125 -4.921875 -0.703125l-13.03125 0l0 -4.21875zm-2.0625 15.25l-0.609375 4.109375q-1.90625 0.25 -2.765625 1.421875q-1.171875 1.578125 -1.171875 4.296875q0 2.921875 1.171875 4.515625q1.171875 1.59375 3.28125 2.15625q1.28125 0.328125 5.421875 0.3125q-3.265625 -2.765625 -3.265625 -6.890625q0 -5.140625 3.703125 -7.953125q3.703125 -2.8125 8.890625 -2.8125q3.5625 0 6.5625 1.28125q3.015625 1.296875 4.65625 3.75q1.640625 2.453125 1.640625 5.75q0 4.40625 -3.5625 7.265625l3.0 0l0 3.890625l-21.515625 0q-5.8125 0 -8.234375 -1.1875q-2.4375 -1.171875 -3.84375 -3.75q-1.40625 -2.5625 -1.40625 -6.3125q0 -4.453125 2.015625 -7.203125q2.0 -2.734375 6.03125 -2.640625zm14.953125 3.5q-4.890625 0 -7.140625 1.9375q-2.25 1.953125 -2.25 4.875q0 2.90625 2.234375 4.875q2.234375 1.96875 7.015625 1.96875q4.578125 0 6.890625 -2.03125q2.328125 -2.015625 2.328125 -4.875q0 -2.8125 -2.296875 -4.78125q-2.28125 -1.96875 -6.78125 -1.96875zm-4.875 41.007812l-0.53125 4.359375q-3.828125 -1.03125 -5.9375 -3.828125q-2.109375 -2.78125 -2.109375 -7.109375q0 -5.46875 3.359375 -8.671875q3.375 -3.1875 9.4375 -3.1875q6.28125 0 9.75 3.234375q3.46875 3.234375 3.46875 8.390625q0 4.984375 -3.40625 8.140625q-3.390625 3.171875 -9.546875 3.171875q-0.375 0 -1.125 -0.015625l0 -18.5625q-4.109375 0.234375 -6.296875 2.3125q-2.171875 2.09375 -2.171875 5.203125q0 2.328125 1.21875 3.96875q1.21875 1.640625 3.890625 2.59375zm6.828125 -13.84375l0 13.890625q3.140625 -0.28125 4.703125 -1.59375q2.4375 -2.015625 2.4375 -5.21875q0 -2.90625 -1.953125 -4.890625q-1.9375 -1.984375 -5.1875 -2.1875zm-11.0625 32.710938l-3.734375 0.609375q-0.375 -1.78125 -0.375 -3.1875q0 -2.296875 0.71875 -3.5625q0.734375 -1.265625 1.921875 -1.78125q1.1875 -0.515625 4.984375 -0.515625l14.3125 0l0 -3.09375l3.28125 0l0 3.09375l6.171875 0l2.53125 4.203125l-8.703125 0l0 4.234375l-3.28125 0l0 -4.234375l-14.546875 0q-1.8125 0 -2.328125 0.21875q-0.515625 0.21875 -0.828125 0.71875q-0.296875 0.515625 -0.296875 1.453125q0 0.703125 0.171875 1.84375z" fill-rule="nonzero"/><path fill="#9fc5e8" d="m719.2782 30.066963l364.063 0l0 378.33072l-364.063 0z" fill-rule="evenodd"/><path fill="#cfe2f3" d="m767.90686 30.066963l53.228394 0l0 378.33072l-53.228394 0z" fill-rule="evenodd"/><path fill="#a64d79" d="m1087.3418 30.066963l53.228394 0l0 378.33072l-53.228394 0z" fill-rule="evenodd"/><path fill="#6fa8dc" d="m874.3852 30.066963l53.228333 0l0 378.33072l-53.228333 0z" fill-rule="evenodd"/><path fill="#3d85c6" d="m821.14014 30.066963l53.228333 0l0 378.33072l-53.228333 0z" fill-rule="evenodd"/><path fill="#cfe2f3" d="m980.86346 30.066963l53.228333 0l0 378.33072l-53.228333 0z" fill-rule="evenodd"/><path fill="#3d85c6" d="m1034.0968 30.066963l53.22827 0l0 378.33072l-53.22827 0z" fill-rule="evenodd"/><path fill="#9d9d9d" fill-opacity="0.8155" d="m719.9055 29.47244l420.66138 0l0 32.7874l-420.66138 0z" fill-rule="evenodd"/><path stroke="#000000" stroke-width="3.0" stroke-linejoin="round" stroke-linecap="butt" d="m719.9055 29.47244l420.66138 0l0 32.7874l-420.66138 0z" fill-rule="evenodd"/><path fill="#000000" d="m902.4249 52.78614l0 -13.359375l1.640625 0l0 4.796875q1.140625 -1.328125 2.890625 -1.328125q1.078125 0 1.859375 0.421875q0.796875 0.421875 1.140625 1.171875q0.34375 0.75 0.34375 2.171875l0 6.125l-1.640625 0l0 -6.125q0 -1.234375 -0.53125 -1.796875q-0.53125 -0.5625 -1.515625 -0.5625q-0.71875 0 -1.359375 0.390625q-0.640625 0.375 -0.921875 1.015625q-0.265625 0.640625 -0.265625 1.78125l0 5.296875l-1.640625 0zm17.000732 -3.109375l1.6875 0.203125q-0.40625 1.484375 -1.484375 2.3125q-1.078125 0.8125 -2.765625 0.8125q-2.125 0 -3.375 -1.296875q-1.234375 -1.3125 -1.234375 -3.671875q0 -2.453125 1.25 -3.796875q1.265625 -1.34375 3.265625 -1.34375q1.9375 0 3.15625 1.328125q1.234375 1.3125 1.234375 3.703125q0 0.15625 0 0.4375l-7.21875 0q0.09375 1.59375 0.90625 2.453125q0.8125 0.84375 2.015625 0.84375q0.90625 0 1.546875 -0.46875q0.640625 -0.484375 1.015625 -1.515625zm-5.390625 -2.65625l5.40625 0q-0.109375 -1.21875 -0.625 -1.828125q-0.78125 -0.953125 -2.03125 -0.953125q-1.125 0 -1.90625 0.765625q-0.765625 0.75 -0.84375 2.015625zm15.453857 4.578125q-0.921875 0.765625 -1.765625 1.09375q-0.828125 0.3125 -1.796875 0.3125q-1.59375 0 -2.453125 -0.78125q-0.859375 -0.78125 -0.859375 -1.984375q0 -0.71875 0.328125 -1.296875q0.328125 -0.59375 0.84375 -0.9375q0.53125 -0.359375 1.1875 -0.546875q0.46875 -0.125 1.453125 -0.25q1.984375 -0.234375 2.921875 -0.5625q0.015625 -0.34375 0.015625 -0.421875q0 -1.0 -0.46875 -1.421875q-0.625 -0.546875 -1.875 -0.546875q-1.15625 0 -1.703125 0.40625q-0.546875 0.40625 -0.8125 1.421875l-1.609375 -0.21875q0.21875 -1.015625 0.71875 -1.640625q0.5 -0.640625 1.453125 -0.984375q0.953125 -0.34375 2.1875 -0.34375q1.25 0 2.015625 0.296875q0.78125 0.28125 1.140625 0.734375q0.375 0.4375 0.515625 1.109375q0.078125 0.421875 0.078125 1.515625l0 2.1875q0 2.28125 0.109375 2.890625q0.109375 0.59375 0.40625 1.15625l-1.703125 0q-0.265625 -0.515625 -0.328125 -1.1875zm-0.140625 -3.671875q-0.890625 0.375 -2.671875 0.625q-1.015625 0.140625 -1.4375 0.328125q-0.421875 0.1875 -0.65625 0.53125q-0.21875 0.34375 -0.21875 0.78125q0 0.65625 0.5 1.09375q0.5 0.4375 1.453125 0.4375q0.9375 0 1.671875 -0.40625q0.75 -0.421875 1.09375 -1.140625q0.265625 -0.5625 0.265625 -1.640625l0 -0.609375zm10.469482 4.859375l0 -1.21875q-0.90625 1.4375 -2.703125 1.4375q-1.15625 0 -2.125 -0.640625q-0.96875 -0.640625 -1.5 -1.78125q-0.53125 -1.140625 -0.53125 -2.625q0 -1.453125 0.484375 -2.625q0.484375 -1.1875 1.4375 -1.8125q0.96875 -0.625 2.171875 -0.625q0.875 0 1.546875 0.375q0.6875 0.359375 1.109375 0.953125l0 -4.796875l1.640625 0l0 13.359375l-1.53125 0zm-5.171875 -4.828125q0 1.859375 0.78125 2.78125q0.78125 0.921875 1.84375 0.921875q1.078125 0 1.828125 -0.875q0.75 -0.890625 0.75 -2.6875q0 -1.984375 -0.765625 -2.90625q-0.765625 -0.9375 -1.890625 -0.9375q-1.078125 0 -1.8125 0.890625q-0.734375 0.890625 -0.734375 2.8125zm15.906921 1.71875l1.6875 0.203125q-0.40625 1.484375 -1.484375 2.3125q-1.078125 0.8125 -2.765625 0.8125q-2.125 0 -3.375 -1.296875q-1.234375 -1.3125 -1.234375 -3.671875q0 -2.453125 1.25 -3.796875q1.265625 -1.34375 3.265625 -1.34375q1.9375 0 3.15625 1.328125q1.234375 1.3125 1.234375 3.703125q0 0.15625 0 0.4375l-7.21875 0q0.09375 1.59375 0.90625 2.453125q0.8125 0.84375 2.015625 0.84375q0.90625 0 1.546875 -0.46875q0.640625 -0.484375 1.015625 -1.515625zm-5.390625 -2.65625l5.40625 0q-0.109375 -1.21875 -0.625 -1.828125q-0.78125 -0.953125 -2.03125 -0.953125q-1.125 0 -1.90625 0.765625q-0.765625 0.75 -0.84375 2.015625zm9.125732 5.765625l0 -9.671875l1.46875 0l0 1.46875q0.5625 -1.03125 1.03125 -1.359375q0.484375 -0.328125 1.0625 -0.328125q0.828125 0 1.6875 0.53125l-0.5625 1.515625q-0.609375 -0.359375 -1.203125 -0.359375q-0.546875 0 -0.96875 0.328125q-0.421875 0.328125 -0.609375 0.890625q-0.28125 0.875 -0.28125 1.921875l0 5.0625l-1.625 0z" fill-rule="nonzero"/><path fill="#000000" fill-opacity="0.0" d="m767.90686 184.93465l266.17322 0l0 77.574814l-266.17322 0z" fill-rule="evenodd"/><path fill="#000000" d="m818.44666 240.01465l0 -21.609375l-3.71875 0l0 -3.28125l3.71875 0l0 -2.65625q0 -2.5 0.453125 -3.71875q0.609375 -1.640625 2.140625 -2.65625q1.53125 -1.03125 4.296875 -1.03125q1.78125 0 3.9375 0.421875l-0.625 3.6875q-1.3125 -0.234375 -2.484375 -0.234375q-1.921875 0 -2.71875 0.828125q-0.796875 0.8125 -0.796875 3.0625l0 2.296875l4.84375 0l0 3.28125l-4.84375 0l0 21.609375l-4.203125 0zm29.367188 -8.015625l4.359375 0.53125q-1.03125 3.828125 -3.828125 5.9375q-2.78125 2.109375 -7.109375 2.109375q-5.46875 0 -8.671875 -3.359375q-3.1875 -3.375 -3.1875 -9.4375q0 -6.28125 3.234375 -9.75q3.234375 -3.46875 8.390625 -3.46875q4.984375 0 8.140625 3.40625q3.171875 3.390625 3.171875 9.546875q0 0.375 -0.015625 1.125l-18.5625 0q0.234375 4.109375 2.3125 6.296875q2.09375 2.171875 5.203125 2.171875q2.328125 0 3.96875 -1.21875q1.640625 -1.21875 2.59375 -3.890625zm-13.84375 -6.828125l13.890625 0q-0.28125 -3.140625 -1.59375 -4.703125q-2.015625 -2.4375 -5.21875 -2.4375q-2.90625 0 -4.890625 1.953125q-1.984375 1.9375 -2.1875 5.1875zm39.742188 11.765625q-2.34375 2.0 -4.515625 2.828125q-2.15625 0.8125 -4.640625 0.8125q-4.109375 0 -6.3125 -2.0q-2.203125 -2.015625 -2.203125 -5.125q0 -1.828125 0.828125 -3.34375q0.84375 -1.515625 2.1875 -2.421875q1.34375 -0.921875 3.03125 -1.390625q1.25 -0.328125 3.75 -0.625q5.109375 -0.609375 7.53125 -1.453125q0.015625 -0.875 0.015625 -1.109375q0 -2.578125 -1.1875 -3.625q-1.625 -1.4375 -4.8125 -1.4375q-2.96875 0 -4.390625 1.046875q-1.421875 1.046875 -2.09375 3.6875l-4.125 -0.5625q0.5625 -2.640625 1.84375 -4.265625q1.296875 -1.640625 3.734375 -2.515625q2.4375 -0.875 5.640625 -0.875q3.1875 0 5.171875 0.75q2.0 0.75 2.9375 1.890625q0.9375 1.125 1.3125 2.859375q0.21875 1.078125 0.21875 3.890625l0 5.625q0 5.890625 0.265625 7.453125q0.265625 1.546875 1.0625 2.984375l-4.40625 0q-0.65625 -1.3125 -0.84375 -3.078125zm-0.34375 -9.421875q-2.296875 0.9375 -6.890625 1.59375q-2.609375 0.375 -3.6875 0.84375q-1.078125 0.46875 -1.671875 1.375q-0.578125 0.90625 -0.578125 2.0q0 1.6875 1.28125 2.8125q1.28125 1.125 3.734375 1.125q2.4375 0 4.328125 -1.0625q1.90625 -1.0625 2.796875 -2.921875q0.6875 -1.421875 0.6875 -4.21875l0 -1.546875zm20.007812 8.71875l0.609375 3.734375q-1.78125 0.375 -3.1875 0.375q-2.296875 0 -3.5625 -0.71875q-1.265625 -0.734375 -1.78125 -1.921875q-0.515625 -1.1875 -0.515625 -4.984375l0 -14.3125l-3.09375 0l0 -3.28125l3.09375 0l0 -6.171875l4.203125 -2.53125l0 8.703125l4.234375 0l0 3.28125l-4.234375 0l0 14.546875q0 1.8125 0.21875 2.328125q0.21875 0.515625 0.71875 0.828125q0.515625 0.296875 1.453125 0.296875q0.703125 0 1.84375 -0.171875zm20.445251 3.78125l0 -3.65625q-2.90625 4.21875 -7.90625 4.21875q-2.203125 0 -4.109375 -0.84375q-1.90625 -0.84375 -2.84375 -2.125q-0.921875 -1.28125 -1.296875 -3.125q-0.25 -1.25 -0.25 -3.9375l0 -15.421875l4.21875 0l0 13.796875q0 3.3125 0.25 4.453125q0.40625 1.671875 1.6875 2.625q1.296875 0.9375 3.1875 0.9375q1.90625 0 3.5625 -0.96875q1.671875 -0.96875 2.359375 -2.640625q0.6875 -1.6875 0.6875 -4.875l0 -13.328125l4.21875 0l0 24.890625l-3.765625 0zm10.3359375 0l0 -24.890625l3.796875 0l0 3.765625q1.453125 -2.640625 2.671875 -3.484375q1.234375 -0.84375 2.71875 -0.84375q2.125 0 4.328125 1.359375l-1.453125 3.90625q-1.546875 -0.90625 -3.09375 -0.90625q-1.375 0 -2.484375 0.828125q-1.09375 0.828125 -1.5625 2.3125q-0.703125 2.25 -0.703125 4.921875l0 13.03125l-4.21875 0zm33.0625 -8.015625l4.359375 0.53125q-1.03125 3.828125 -3.828125 5.9375q-2.78125 2.109375 -7.109375 2.109375q-5.46875 0 -8.671875 -3.359375q-3.1875 -3.375 -3.1875 -9.4375q0 -6.28125 3.234375 -9.75q3.234375 -3.46875 8.390625 -3.46875q4.984375 0 8.140625 3.40625q3.171875 3.390625 3.171875 9.546875q0 0.375 -0.015625 1.125l-18.5625 0q0.234375 4.109375 2.3125 6.296875q2.09375 2.171875 5.203125 2.171875q2.328125 0 3.96875 -1.21875q1.640625 -1.21875 2.59375 -3.890625zm-13.84375 -6.828125l13.890625 0q-0.28125 -3.140625 -1.59375 -4.703125q-2.015625 -2.4375 -5.21875 -2.4375q-2.90625 0 -4.890625 1.953125q-1.984375 1.9375 -2.1875 5.1875zm21.820312 7.40625l4.171875 -0.65625q0.34375 2.515625 1.953125 3.859375q1.609375 1.328125 4.484375 1.328125q2.90625 0 4.3125 -1.1875q1.40625 -1.1875 1.40625 -2.78125q0 -1.421875 -1.234375 -2.25q-0.875 -0.5625 -4.3125 -1.421875q-4.640625 -1.171875 -6.4375 -2.03125q-1.796875 -0.859375 -2.71875 -2.359375q-0.921875 -1.515625 -0.921875 -3.34375q0 -1.671875 0.75 -3.078125q0.765625 -1.421875 2.078125 -2.359375q0.984375 -0.734375 2.6875 -1.234375q1.703125 -0.5 3.640625 -0.5q2.9375 0 5.140625 0.84375q2.21875 0.84375 3.265625 2.28125q1.0625 1.4375 1.46875 3.859375l-4.125 0.5625q-0.28125 -1.921875 -1.640625 -3.0q-1.34375 -1.078125 -3.796875 -1.078125q-2.90625 0 -4.15625 0.96875q-1.234375 0.953125 -1.234375 2.234375q0 0.828125 0.515625 1.484375q0.515625 0.671875 1.609375 1.125q0.640625 0.234375 3.734375 1.078125q4.46875 1.1875 6.234375 1.953125q1.78125 0.765625 2.78125 2.21875q1.015625 1.453125 1.015625 3.609375q0 2.109375 -1.234375 3.96875q-1.234375 1.859375 -3.5625 2.890625q-2.3125 1.015625 -5.234375 1.015625q-4.859375 0 -7.40625 -2.015625q-2.53125 -2.015625 -3.234375 -5.984375z" fill-rule="nonzero"/><path fill="#000000" fill-opacity="0.0" d="m1152.7428 102.174416l0 223.65353l-77.57483 0l0 -223.65353z" fill-rule="evenodd"/><path fill="#000000" d="m1101.4441 165.0051l-3.734375 0.609375q-0.375 -1.78125 -0.375 -3.1875q0 -2.296875 0.71875 -3.5625q0.734375 -1.265625 1.921875 -1.78125q1.1875 -0.515625 4.984375 -0.515625l14.3125 0l0 -3.09375l3.28125 0l0 3.09375l6.171875 0l2.53125 4.203125l-8.703125 0l0 4.234375l-3.28125 0l0 -4.234375l-14.546875 0q-1.8125 0 -2.328125 0.21875q-0.515625 0.21875 -0.828125 0.71875q-0.296875 0.515625 -0.296875 1.453125q0 0.703125 0.171875 1.84375zm-0.703125 20.367188q-2.0 -2.34375 -2.828125 -4.515625q-0.8125 -2.15625 -0.8125 -4.640625q0 -4.109375 2.0 -6.3125q2.015625 -2.203125 5.125 -2.203125q1.828125 0 3.34375 0.828125q1.515625 0.84375 2.421875 2.1875q0.921875 1.34375 1.390625 3.03125q0.328125 1.25 0.625 3.75q0.609375 5.109375 1.453125 7.53125q0.875 0.015625 1.109375 0.015625q2.578125 0 3.625 -1.1875q1.4375 -1.625 1.4375 -4.8125q0 -2.96875 -1.046875 -4.390625q-1.046875 -1.421875 -3.6875 -2.09375l0.5625 -4.125q2.640625 0.5625 4.265625 1.84375q1.640625 1.296875 2.515625 3.734375q0.875 2.4375 0.875 5.640625q0 3.1875 -0.75 5.171875q-0.75 2.0 -1.890625 2.9375q-1.125 0.9375 -2.859375 1.3125q-1.078125 0.21875 -3.890625 0.21875l-5.625 0q-5.890625 0 -7.453125 0.265625q-1.546875 0.265625 -2.984375 1.0625l0 -4.40625q1.3125 -0.65625 3.078125 -0.84375zm9.421875 -0.34375q-0.9375 -2.296875 -1.59375 -6.890625q-0.375 -2.609375 -0.84375 -3.6875q-0.46875 -1.078125 -1.375 -1.671875q-0.90625 -0.578125 -2.0 -0.578125q-1.6875 0 -2.8125 1.28125q-1.125 1.28125 -1.125 3.734375q0 2.4375 1.0625 4.328125q1.0625 1.90625 2.921875 2.796875q1.421875 0.6875 4.21875 0.6875l1.546875 0zm-12.5 10.7578125l24.890625 0l0 3.796875l-3.765625 0q2.640625 1.453125 3.484375 2.671875q0.84375 1.234375 0.84375 2.71875q0 2.125 -1.359375 4.328125l-3.90625 -1.453125q0.90625 -1.546875 0.90625 -3.09375q0 -1.375 -0.828125 -2.484375q-0.828125 -1.09375 -2.3125 -1.5625q-2.25 -0.703125 -4.921875 -0.703125l-13.03125 0l0 -4.21875zm-2.0625 15.25l-0.609375 4.109375q-1.90625 0.25 -2.765625 1.421875q-1.171875 1.578125 -1.171875 4.296875q0 2.921875 1.171875 4.515625q1.171875 1.59375 3.28125 2.15625q1.28125 0.328125 5.421875 0.3125q-3.265625 -2.765625 -3.265625 -6.890625q0 -5.140625 3.703125 -7.953125q3.703125 -2.8125 8.890625 -2.8125q3.5625 0 6.5625 1.28125q3.015625 1.296875 4.65625 3.75q1.640625 2.453125 1.640625 5.75q0 4.40625 -3.5625 7.265625l3.0 0l0 3.890625l-21.515625 0q-5.8125 0 -8.234375 -1.1875q-2.4375 -1.171875 -3.84375 -3.75q-1.4063721 -2.5625 -1.4063721 -6.3125q0 -4.453125 2.015747 -7.203125q2.0 -2.734375 6.03125 -2.640625zm14.953125 3.5q-4.890625 0 -7.140625 1.9375q-2.25 1.953125 -2.25 4.875q0 2.90625 2.234375 4.875q2.234375 1.96875 7.015625 1.96875q4.578125 0 6.890625 -2.03125q2.328125 -2.015625 2.328125 -4.875q0 -2.8125 -2.296875 -4.78125q-2.28125 -1.96875 -6.78125 -1.96875zm-4.875 41.007812l-0.53125 4.359375q-3.828125 -1.03125 -5.9375 -3.828125q-2.109375 -2.78125 -2.109375 -7.109375q0 -5.46875 3.359375 -8.671875q3.375 -3.1875 9.4375 -3.1875q6.28125 0 9.75 3.234375q3.46875 3.234375 3.46875 8.390625q0 4.984375 -3.40625 8.140625q-3.390625 3.171875 -9.546875 3.171875q-0.375 0 -1.125 -0.015625l0 -18.5625q-4.109375 0.234375 -6.296875 2.3125q-2.171875 2.09375 -2.171875 5.203125q0 2.328125 1.21875 3.96875q1.21875 1.640625 3.890625 2.59375zm6.828125 -13.84375l0 13.890625q3.140625 -0.28125 4.703125 -1.59375q2.4375 -2.015625 2.4375 -5.21875q0 -2.90625 -1.953125 -4.890625q-1.9375 -1.984375 -5.1875 -2.1875zm-11.0625 32.710938l-3.734375 0.609375q-0.375 -1.78125 -0.375 -3.1875q0 -2.296875 0.71875 -3.5625q0.734375 -1.265625 1.921875 -1.78125q1.1875 -0.515625 4.984375 -0.515625l14.3125 0l0 -3.09375l3.28125 0l0 3.09375l6.171875 0l2.53125 4.203125l-8.703125 0l0 4.234375l-3.28125 0l0 -4.234375l-14.546875 0q-1.8125 0 -2.328125 0.21875q-0.515625 0.21875 -0.828125 0.71875q-0.296875 0.515625 -0.296875 1.453125q0 0.703125 0.171875 1.84375z" fill-rule="nonzero"/><path fill="#9fc5e8" d="m717.33856 415.74405l364.06305 0l0 286.3937l-364.06305 0z" fill-rule="evenodd"/><path fill="#cfe2f3" d="m765.9672 415.74405l53.228394 0l0 286.3937l-53.228394 0z" fill-rule="evenodd"/><path fill="#a64d79" d="m1085.4022 415.74405l53.22827 0l0 286.3937l-53.22827 0z" fill-rule="evenodd"/><path fill="#6fa8dc" d="m872.44556 415.74405l53.228333 0l0 286.3937l-53.228333 0z" fill-rule="evenodd"/><path fill="#3d85c6" d="m819.2005 415.74405l53.228333 0l0 286.3937l-53.228333 0z" fill-rule="evenodd"/><path fill="#cfe2f3" d="m978.9238 415.74405l53.228394 0l0 286.3937l-53.228394 0z" fill-rule="evenodd"/><path fill="#3d85c6" d="m1032.1571 415.74405l53.228394 0l0 286.3937l-53.228394 0z" fill-rule="evenodd"/><path fill="#9d9d9d" fill-opacity="0.8155" d="m717.9659 415.2939l420.66144 0l0 32.787415l-420.66144 0z" fill-rule="evenodd"/><path stroke="#000000" stroke-width="3.0" stroke-linejoin="round" stroke-linecap="butt" d="m717.9659 415.2939l420.66144 0l0 32.787415l-420.66144 0z" fill-rule="evenodd"/><path fill="#000000" d="m900.4853 438.6076l0 -13.359375l1.640625 0l0 4.796875q1.140625 -1.328125 2.890625 -1.328125q1.078125 0 1.859375 0.421875q0.796875 0.421875 1.140625 1.171875q0.34375 0.75 0.34375 2.171875l0 6.125l-1.640625 0l0 -6.125q0 -1.234375 -0.53125 -1.796875q-0.53125 -0.5625 -1.515625 -0.5625q-0.71875 0 -1.359375 0.390625q-0.640625 0.375 -0.921875 1.015625q-0.265625 0.640625 -0.265625 1.78125l0 5.296875l-1.640625 0zm17.000732 -3.109375l1.6875 0.203125q-0.40625 1.484375 -1.484375 2.3125q-1.078125 0.8125 -2.765625 0.8125q-2.125 0 -3.375 -1.296875q-1.234375 -1.3125 -1.234375 -3.671875q0 -2.453125 1.25 -3.796875q1.265625 -1.34375 3.265625 -1.34375q1.9375 0 3.15625 1.328125q1.234375 1.3125 1.234375 3.703125q0 0.15625 0 0.4375l-7.21875 0q0.09375 1.59375 0.90625 2.453125q0.8125 0.84375 2.015625 0.84375q0.90625 0 1.546875 -0.46875q0.640625 -0.484375 1.015625 -1.515625zm-5.390625 -2.65625l5.40625 0q-0.109375 -1.21875 -0.625 -1.828125q-0.78125 -0.953125 -2.03125 -0.953125q-1.125 0 -1.90625 0.765625q-0.765625 0.75 -0.84375 2.015625zm15.453857 4.578125q-0.921875 0.765625 -1.765625 1.09375q-0.828125 0.3125 -1.796875 0.3125q-1.59375 0 -2.453125 -0.78125q-0.859375 -0.78125 -0.859375 -1.984375q0 -0.71875 0.328125 -1.296875q0.328125 -0.59375 0.84375 -0.9375q0.53125 -0.359375 1.1875 -0.546875q0.46875 -0.125 1.453125 -0.25q1.984375 -0.234375 2.921875 -0.5625q0.015625 -0.34375 0.015625 -0.421875q0 -1.0 -0.46875 -1.421875q-0.625 -0.546875 -1.875 -0.546875q-1.15625 0 -1.703125 0.40625q-0.546875 0.40625 -0.8125 1.421875l-1.609375 -0.21875q0.21875 -1.015625 0.71875 -1.640625q0.5 -0.640625 1.453125 -0.984375q0.953125 -0.34375 2.1875 -0.34375q1.25 0 2.015625 0.296875q0.78125 0.28125 1.140625 0.734375q0.375 0.4375 0.515625 1.109375q0.078125 0.421875 0.078125 1.515625l0 2.1875q0 2.28125 0.109375 2.890625q0.109375 0.59375 0.40625 1.15625l-1.703125 0q-0.265625 -0.515625 -0.328125 -1.1875zm-0.140625 -3.671875q-0.890625 0.375 -2.671875 0.625q-1.015625 0.140625 -1.4375 0.328125q-0.421875 0.1875 -0.65625 0.53125q-0.21875 0.34375 -0.21875 0.78125q0 0.65625 0.5 1.09375q0.5 0.4375 1.453125 0.4375q0.9375 0 1.671875 -0.40625q0.75 -0.421875 1.09375 -1.140625q0.265625 -0.5625 0.265625 -1.640625l0 -0.609375zm10.469482 4.859375l0 -1.21875q-0.90625 1.4375 -2.703125 1.4375q-1.15625 0 -2.125 -0.640625q-0.96875 -0.640625 -1.5 -1.78125q-0.53125 -1.140625 -0.53125 -2.625q0 -1.453125 0.484375 -2.625q0.484375 -1.1875 1.4375 -1.8125q0.96875 -0.625 2.171875 -0.625q0.875 0 1.546875 0.375q0.6875 0.359375 1.109375 0.953125l0 -4.796875l1.640625 0l0 13.359375l-1.53125 0zm-5.171875 -4.828125q0 1.859375 0.78125 2.78125q0.78125 0.921875 1.84375 0.921875q1.078125 0 1.828125 -0.875q0.75 -0.890625 0.75 -2.6875q0 -1.984375 -0.765625 -2.90625q-0.765625 -0.9375 -1.890625 -0.9375q-1.078125 0 -1.8125 0.890625q-0.734375 0.890625 -0.734375 2.8125zm15.906921 1.71875l1.6875 0.203125q-0.40625 1.484375 -1.484375 2.3125q-1.078125 0.8125 -2.765625 0.8125q-2.125 0 -3.375 -1.296875q-1.234375 -1.3125 -1.234375 -3.671875q0 -2.453125 1.25 -3.796875q1.265625 -1.34375 3.265625 -1.34375q1.9375 0 3.15625 1.328125q1.234375 1.3125 1.234375 3.703125q0 0.15625 0 0.4375l-7.21875 0q0.09375 1.59375 0.90625 2.453125q0.8125 0.84375 2.015625 0.84375q0.90625 0 1.546875 -0.46875q0.640625 -0.484375 1.015625 -1.515625zm-5.390625 -2.65625l5.40625 0q-0.109375 -1.21875 -0.625 -1.828125q-0.78125 -0.953125 -2.03125 -0.953125q-1.125 0 -1.90625 0.765625q-0.765625 0.75 -0.84375 2.015625zm9.125732 5.765625l0 -9.671875l1.46875 0l0 1.46875q0.5625 -1.03125 1.03125 -1.359375q0.484375 -0.328125 1.0625 -0.328125q0.828125 0 1.6875 0.53125l-0.5625 1.515625q-0.609375 -0.359375 -1.203125 -0.359375q-0.546875 0 -0.96875 0.328125q-0.421875 0.328125 -0.609375 0.890625q-0.28125 0.875 -0.28125 1.921875l0 5.0625l-1.625 0z" fill-rule="nonzero"/><path fill="#000000" fill-opacity="0.0" d="m765.9672 532.9766l266.17328 0l0 77.57483l-266.17328 0z" fill-rule="evenodd"/><path fill="#000000" d="m816.507 588.05664l0 -21.609375l-3.71875 0l0 -3.28125l3.71875 0l0 -2.65625q0 -2.5 0.453125 -3.71875q0.609375 -1.640625 2.140625 -2.65625q1.53125 -1.03125 4.296875 -1.03125q1.78125 0 3.9375 0.421875l-0.625 3.6875q-1.3125 -0.234375 -2.484375 -0.234375q-1.921875 0 -2.71875 0.828125q-0.796875 0.8125 -0.796875 3.0625l0 2.296875l4.84375 0l0 3.28125l-4.84375 0l0 21.609375l-4.203125 0zm29.367188 -8.015625l4.359375 0.53125q-1.03125 3.828125 -3.828125 5.9375q-2.78125 2.109375 -7.109375 2.109375q-5.46875 0 -8.671875 -3.359375q-3.1875 -3.375 -3.1875 -9.4375q0 -6.28125 3.234375 -9.75q3.234375 -3.46875 8.390625 -3.46875q4.984375 0 8.140625 3.40625q3.171875 3.390625 3.171875 9.546875q0 0.375 -0.015625 1.125l-18.5625 0q0.234375 4.109375 2.3125 6.296875q2.09375 2.171875 5.203125 2.171875q2.328125 0 3.96875 -1.21875q1.640625 -1.21875 2.59375 -3.890625zm-13.84375 -6.828125l13.890625 0q-0.28125 -3.140625 -1.59375 -4.703125q-2.015625 -2.4375 -5.21875 -2.4375q-2.90625 0 -4.890625 1.953125q-1.984375 1.9375 -2.1875 5.1875zm39.742188 11.765625q-2.34375 2.0 -4.515625 2.828125q-2.15625 0.8125 -4.640625 0.8125q-4.109375 0 -6.3125 -2.0q-2.203125 -2.015625 -2.203125 -5.125q0 -1.828125 0.828125 -3.34375q0.84375 -1.515625 2.1875 -2.421875q1.34375 -0.921875 3.03125 -1.390625q1.25 -0.328125 3.75 -0.625q5.109375 -0.609375 7.53125 -1.453125q0.015625 -0.875 0.015625 -1.109375q0 -2.578125 -1.1875 -3.625q-1.625 -1.4375 -4.8125 -1.4375q-2.96875 0 -4.390625 1.046875q-1.421875 1.046875 -2.09375 3.6875l-4.125 -0.5625q0.5625 -2.640625 1.84375 -4.265625q1.296875 -1.640625 3.734375 -2.515625q2.4375 -0.875 5.640625 -0.875q3.1875 0 5.171875 0.75q2.0 0.75 2.9375 1.890625q0.9375 1.125 1.3125 2.859375q0.21875 1.078125 0.21875 3.890625l0 5.625q0 5.890625 0.265625 7.453125q0.265625 1.546875 1.0625 2.984375l-4.40625 0q-0.65625 -1.3125 -0.84375 -3.078125zm-0.34375 -9.421875q-2.296875 0.9375 -6.890625 1.59375q-2.609375 0.375 -3.6875 0.84375q-1.078125 0.46875 -1.671875 1.375q-0.578125 0.90625 -0.578125 2.0q0 1.6875 1.28125 2.8125q1.28125 1.125 3.734375 1.125q2.4375 0 4.328125 -1.0625q1.90625 -1.0625 2.796875 -2.921875q0.6875 -1.421875 0.6875 -4.21875l0 -1.546875zm20.007812 8.71875l0.609375 3.734375q-1.78125 0.375 -3.1875 0.375q-2.296875 0 -3.5625 -0.71875q-1.265625 -0.734375 -1.78125 -1.921875q-0.515625 -1.1875 -0.515625 -4.984375l0 -14.3125l-3.09375 0l0 -3.28125l3.09375 0l0 -6.171875l4.203125 -2.53125l0 8.703125l4.234375 0l0 3.28125l-4.234375 0l0 14.546875q0 1.8125 0.21875 2.328125q0.21875 0.515625 0.71875 0.828125q0.515625 0.296875 1.453125 0.296875q0.703125 0 1.84375 -0.171875zm20.445251 3.78125l0 -3.65625q-2.90625 4.21875 -7.90625 4.21875q-2.203125 0 -4.109375 -0.84375q-1.90625 -0.84375 -2.84375 -2.125q-0.921875 -1.28125 -1.296875 -3.125q-0.25 -1.25 -0.25 -3.9375l0 -15.421875l4.21875 0l0 13.796875q0 3.3125 0.25 4.453125q0.40625 1.671875 1.6875 2.625q1.296875 0.9375 3.1875 0.9375q1.90625 0 3.5625 -0.96875q1.671875 -0.96875 2.359375 -2.640625q0.6875 -1.6875 0.6875 -4.875l0 -13.328125l4.21875 0l0 24.890625l-3.765625 0zm10.3359375 0l0 -24.890625l3.796875 0l0 3.765625q1.453125 -2.640625 2.671875 -3.484375q1.234375 -0.84375 2.71875 -0.84375q2.125 0 4.328125 1.359375l-1.453125 3.90625q-1.546875 -0.90625 -3.09375 -0.90625q-1.375 0 -2.484375 0.828125q-1.09375 0.828125 -1.5625 2.3125q-0.703125 2.25 -0.703125 4.921875l0 13.03125l-4.21875 0zm33.0625 -8.015625l4.359375 0.53125q-1.03125 3.828125 -3.828125 5.9375q-2.78125 2.109375 -7.109375 2.109375q-5.46875 0 -8.671875 -3.359375q-3.1875 -3.375 -3.1875 -9.4375q0 -6.28125 3.234375 -9.75q3.234375 -3.46875 8.390625 -3.46875q4.984375 0 8.140625 3.40625q3.171875 3.390625 3.171875 9.546875q0 0.375 -0.015625 1.125l-18.5625 0q0.234375 4.109375 2.3125 6.296875q2.09375 2.171875 5.203125 2.171875q2.328125 0 3.96875 -1.21875q1.640625 -1.21875 2.59375 -3.890625zm-13.84375 -6.828125l13.890625 0q-0.28125 -3.140625 -1.59375 -4.703125q-2.015625 -2.4375 -5.21875 -2.4375q-2.90625 0 -4.890625 1.953125q-1.984375 1.9375 -2.1875 5.1875zm21.820312 7.40625l4.171875 -0.65625q0.34375 2.515625 1.953125 3.859375q1.609375 1.328125 4.484375 1.328125q2.90625 0 4.3125 -1.1875q1.40625 -1.1875 1.40625 -2.78125q0 -1.421875 -1.234375 -2.25q-0.875 -0.5625 -4.3125 -1.421875q-4.640625 -1.171875 -6.4375 -2.03125q-1.796875 -0.859375 -2.71875 -2.359375q-0.921875 -1.515625 -0.921875 -3.34375q0 -1.671875 0.75 -3.078125q0.765625 -1.421875 2.078125 -2.359375q0.984375 -0.734375 2.6875 -1.234375q1.703125 -0.5 3.640625 -0.5q2.9375 0 5.140625 0.84375q2.21875 0.84375 3.265625 2.28125q1.0625 1.4375 1.46875 3.859375l-4.125 0.5625q-0.28125 -1.921875 -1.640625 -3.0q-1.34375 -1.078125 -3.796875 -1.078125q-2.90625 0 -4.15625 0.96875q-1.234375 0.953125 -1.234375 2.234375q0 0.828125 0.515625 1.484375q0.515625 0.671875 1.609375 1.125q0.640625 0.234375 3.734375 1.078125q4.46875 1.1875 6.234375 1.953125q1.78125 0.765625 2.78125 2.21875q1.015625 1.453125 1.015625 3.609375q0 2.109375 -1.234375 3.96875q-1.234375 1.859375 -3.5625 2.890625q-2.3125 1.015625 -5.234375 1.015625q-4.859375 0 -7.40625 -2.015625q-2.53125 -2.015625 -3.234375 -5.984375z" fill-rule="nonzero"/><path fill="#000000" fill-opacity="0.0" d="m1143.1339 435.30176l0 260.4095l-77.57483 0l0 -260.4095z" fill-rule="evenodd"/><path fill="#000000" d="m1091.8351 516.5104l-3.734375 0.609375q-0.375 -1.78125 -0.375 -3.1875q0 -2.2968445 0.71875 -3.5624695q0.734375 -1.265625 1.921875 -1.78125q1.1875 -0.515625 4.984375 -0.515625l14.3125 0l0 -3.09375l3.28125 0l0 3.09375l6.171875 0l2.53125 4.2030945l-8.703125 0l0 4.234375l-3.28125 0l0 -4.234375l-14.546875 0q-1.8125 0 -2.328125 0.21875q-0.515625 0.21875 -0.828125 0.71875q-0.296875 0.515625 -0.296875 1.453125q0 0.703125 0.171875 1.84375zm-0.703125 20.367188q-2.0 -2.34375 -2.828125 -4.515625q-0.8125 -2.15625 -0.8125 -4.640625q0 -4.109375 2.0 -6.3125q2.015625 -2.203125 5.125 -2.203125q1.828125 0 3.34375 0.828125q1.515625 0.84375 2.421875 2.1875q0.921875 1.34375 1.390625 3.03125q0.328125 1.25 0.625 3.75q0.609375 5.109375 1.453125 7.53125q0.875 0.015625 1.109375 0.015625q2.578125 0 3.625 -1.1875q1.4375 -1.625 1.4375 -4.8125q0 -2.96875 -1.046875 -4.390625q-1.046875 -1.421875 -3.6875 -2.09375l0.5625 -4.125q2.640625 0.5625 4.265625 1.84375q1.640625 1.296875 2.515625 3.734375q0.875 2.4375 0.875 5.640625q0 3.1875 -0.75 5.171875q-0.75 2.0 -1.890625 2.9375q-1.125 0.9375 -2.859375 1.3125q-1.078125 0.21875 -3.890625 0.21875l-5.625 0q-5.890625 0 -7.453125 0.265625q-1.546875 0.265625 -2.984375 1.0625l0 -4.40625q1.3125 -0.65625 3.078125 -0.84375zm9.421875 -0.34375q-0.9375 -2.296875 -1.59375 -6.890625q-0.375 -2.609375 -0.84375 -3.6875q-0.46875 -1.078125 -1.375 -1.671875q-0.90625 -0.578125 -2.0 -0.578125q-1.6875 0 -2.8125 1.28125q-1.125 1.28125 -1.125 3.734375q0 2.4375 1.0625 4.328125q1.0625 1.90625 2.921875 2.796875q1.421875 0.6875 4.21875 0.6875l1.546875 0zm-12.5 10.7578125l24.890625 0l0 3.796875l-3.765625 0q2.640625 1.453125 3.484375 2.671875q0.84375 1.234375 0.84375 2.71875q0 2.125 -1.359375 4.328125l-3.90625 -1.453125q0.90625 -1.546875 0.90625 -3.09375q0 -1.375 -0.828125 -2.484375q-0.828125 -1.09375 -2.3125 -1.5625q-2.25 -0.703125 -4.921875 -0.703125l-13.03125 0l0 -4.21875zm-2.0625 15.25l-0.609375 4.109375q-1.90625 0.25 -2.765625 1.421875q-1.171875 1.578125 -1.171875 4.296875q0 2.921875 1.171875 4.515625q1.171875 1.59375 3.28125 2.15625q1.28125 0.328125 5.421875 0.3125q-3.265625 -2.765625 -3.265625 -6.890625q0 -5.140625 3.703125 -7.953125q3.703125 -2.8125 8.890625 -2.8125q3.5625 0 6.5625 1.28125q3.015625 1.296875 4.65625 3.75q1.640625 2.453125 1.640625 5.75q0 4.40625 -3.5625 7.265625l3.0 0l0 3.890625l-21.515625 0q-5.8125 0 -8.234375 -1.1875q-2.4375 -1.171875 -3.84375 -3.75q-1.40625 -2.5625 -1.40625 -6.3125q0 -4.453125 2.015625 -7.203125q2.0 -2.734375 6.03125 -2.640625zm14.953125 3.5q-4.890625 0 -7.140625 1.9375q-2.25 1.953125 -2.25 4.875q0 2.90625 2.234375 4.875q2.234375 1.96875 7.015625 1.96875q4.578125 0 6.890625 -2.03125q2.328125 -2.015625 2.328125 -4.875q0 -2.8125 -2.296875 -4.78125q-2.28125 -1.96875 -6.78125 -1.96875zm-4.875 41.007812l-0.53125 4.359375q-3.828125 -1.03125 -5.9375 -3.828125q-2.109375 -2.78125 -2.109375 -7.109375q0 -5.46875 3.359375 -8.671875q3.375 -3.1875 9.4375 -3.1875q6.28125 0 9.75 3.234375q3.46875 3.234375 3.46875 8.390625q0 4.984375 -3.40625 8.140625q-3.390625 3.171875 -9.546875 3.171875q-0.375 0 -1.125 -0.015625l0 -18.5625q-4.109375 0.234375 -6.296875 2.3125q-2.171875 2.09375 -2.171875 5.203125q0 2.328125 1.21875 3.96875q1.21875 1.640625 3.890625 2.59375zm6.828125 -13.84375l0 13.890625q3.140625 -0.28125 4.703125 -1.59375q2.4375 -2.015625 2.4375 -5.21875q0 -2.90625 -1.953125 -4.890625q-1.9375 -1.984375 -5.1875 -2.1875zm-11.0625 32.710938l-3.734375 0.609375q-0.375 -1.78125 -0.375 -3.1875q0 -2.296875 0.71875 -3.5625q0.734375 -1.265625 1.921875 -1.78125q1.1875 -0.515625 4.984375 -0.515625l14.3125 0l0 -3.09375l3.28125 0l0 3.09375l6.171875 0l2.53125 4.203125l-8.703125 0l0 4.234375l-3.28125 0l0 -4.234375l-14.546875 0q-1.8125 0 -2.328125 0.21875q-0.515625 0.21875 -0.828125 0.71875q-0.296875 0.515625 -0.296875 1.453125q0 0.703125 0.171875 1.84375z" fill-rule="nonzero"/><path fill="#f9cb9c" d="m504.7257 308.7638l99.41736 0l0 -52.314972l99.4173 104.62991l-99.4173 104.62991l0 -52.31494l-99.41736 0z" fill-rule="evenodd"/><path fill="#000000" d="m516.24133 353.79874l0 -22.90625l10.15625 0q3.0625 0 4.65625 0.625q1.59375 0.609375 2.546875 2.171875q0.953125 1.5625 0.953125 3.453125q0 2.4375 -1.578125 4.109375q-1.578125 1.671875 -4.875 2.125q1.203125 0.578125 1.828125 1.140625q1.328125 1.21875 2.515625 3.046875l3.984375 6.234375l-3.8125 0l-3.03125 -4.765625q-1.328125 -2.0625 -2.1875 -3.15625q-0.859375 -1.09375 -1.546875 -1.53125q-0.671875 -0.4375 -1.375 -0.609375q-0.515625 -0.109375 -1.6875 -0.109375l-3.515625 0l0 10.171875l-3.03125 0zm3.03125 -12.796875l6.515625 0q2.078125 0 3.25 -0.421875q1.171875 -0.4375 1.78125 -1.375q0.609375 -0.953125 0.609375 -2.0625q0 -1.625 -1.1875 -2.671875q-1.171875 -1.046875 -3.71875 -1.046875l-7.25 0l0 7.578125zm30.5 10.75q-1.5625 1.328125 -3.015625 1.875q-1.4375 0.546875 -3.09375 0.546875q-2.734375 0 -4.203125 -1.328125q-1.46875 -1.34375 -1.46875 -3.421875q0 -1.21875 0.546875 -2.21875q0.5625 -1.015625 1.453125 -1.625q0.90625 -0.609375 2.03125 -0.921875q0.828125 -0.21875 2.5 -0.421875q3.40625 -0.40625 5.015625 -0.96875q0.015625 -0.578125 0.015625 -0.734375q0 -1.71875 -0.796875 -2.421875q-1.078125 -0.953125 -3.203125 -0.953125q-1.984375 0 -2.9375 0.703125q-0.9375 0.6875 -1.390625 2.453125l-2.75 -0.375q0.375 -1.765625 1.234375 -2.84375q0.859375 -1.09375 2.484375 -1.671875q1.625 -0.59375 3.765625 -0.59375q2.125 0 3.453125 0.5q1.328125 0.5 1.953125 1.265625q0.625 0.75 0.875 1.90625q0.140625 0.71875 0.140625 2.59375l0 3.75q0 3.921875 0.171875 4.96875q0.1875 1.03125 0.71875 1.984375l-2.9375 0q-0.4375 -0.875 -0.5625 -2.046875zm-0.234375 -6.28125q-1.53125 0.625 -4.59375 1.0625q-1.734375 0.25 -2.453125 0.5625q-0.71875 0.3125 -1.109375 0.921875q-0.390625 0.59375 -0.390625 1.328125q0 1.125 0.84375 1.875q0.859375 0.75 2.5 0.75q1.625 0 2.890625 -0.703125q1.265625 -0.71875 1.859375 -1.953125q0.453125 -0.953125 0.453125 -2.8125l0 -1.03125zm7.203125 8.328125l0 -16.59375l2.53125 0l0 2.359375q1.828125 -2.734375 5.28125 -2.734375q1.5 0 2.75 0.546875q1.265625 0.53125 1.890625 1.40625q0.625 0.875 0.875 2.078125q0.15625 0.78125 0.15625 2.734375l0 10.203125l-2.8125 0l0 -10.09375q0 -1.71875 -0.328125 -2.5625q-0.328125 -0.859375 -1.171875 -1.359375q-0.828125 -0.515625 -1.953125 -0.515625q-1.796875 0 -3.109375 1.140625q-1.296875 1.140625 -1.296875 4.328125l0 9.0625l-2.8125 0zm28.5625 0l0 -2.09375q-1.578125 2.46875 -4.640625 2.46875q-1.984375 0 -3.65625 -1.09375q-1.65625 -1.09375 -2.578125 -3.046875q-0.90625 -1.96875 -0.90625 -4.515625q0 -2.484375 0.828125 -4.5q0.828125 -2.03125 2.484375 -3.109375q1.65625 -1.078125 3.703125 -1.078125q1.5 0 2.671875 0.640625q1.171875 0.625 1.90625 1.640625l0 -8.21875l2.796875 0l0 22.90625l-2.609375 0zm-8.890625 -8.28125q0 3.1875 1.34375 4.765625q1.34375 1.578125 3.171875 1.578125q1.84375 0 3.125 -1.5q1.296875 -1.515625 1.296875 -4.609375q0 -3.40625 -1.3125 -5.0q-1.3125 -1.59375 -3.234375 -1.59375q-1.875 0 -3.140625 1.53125q-1.25 1.53125 -1.25 4.828125zm14.875 -0.015625q0 -4.609375 2.5625 -6.828125q2.140625 -1.84375 5.21875 -1.84375q3.421875 0 5.59375 2.25q2.171875 2.234375 2.171875 6.1875q0 3.203125 -0.96875 5.046875q-0.953125 1.828125 -2.796875 2.84375q-1.828125 1.015625 -4.0 1.015625q-3.484375 0 -5.640625 -2.234375q-2.140625 -2.234375 -2.140625 -6.4375zm2.890625 0q0 3.1875 1.390625 4.78125q1.390625 1.578125 3.5 1.578125q2.09375 0 3.484375 -1.59375q1.390625 -1.59375 1.390625 -4.859375q0 -3.078125 -1.40625 -4.65625q-1.390625 -1.59375 -3.46875 -1.59375q-2.109375 0 -3.5 1.578125q-1.390625 1.578125 -1.390625 4.765625zm15.953125 8.296875l0 -16.59375l2.515625 0l0 2.328125q0.78125 -1.21875 2.078125 -1.953125q1.296875 -0.75 2.953125 -0.75q1.84375 0 3.015625 0.765625q1.1875 0.765625 1.671875 2.140625q1.96875 -2.90625 5.125 -2.90625q2.46875 0 3.796875 1.375q1.328125 1.359375 1.328125 4.203125l0 11.390625l-2.796875 0l0 -10.453125q0 -1.6875 -0.28125 -2.421875q-0.265625 -0.75 -0.984375 -1.203125q-0.71875 -0.453125 -1.6875 -0.453125q-1.75 0 -2.90625 1.171875q-1.15625 1.15625 -1.15625 3.71875l0 9.640625l-2.8125 0l0 -10.78125q0 -1.875 -0.6875 -2.8125q-0.6875 -0.9375 -2.25 -0.9375q-1.1875 0 -2.203125 0.625q-1.0 0.625 -1.453125 1.828125q-0.453125 1.203125 -0.453125 3.46875l0 8.609375l-2.8125 0z" fill-rule="nonzero"/><path fill="#000000" d="m514.7101 386.8456l2.78125 -0.4375q0.234375 1.671875 1.296875 2.5625q1.078125 0.890625 3.0 0.890625q1.9375 0 2.875 -0.78125q0.9375 -0.796875 0.9375 -1.859375q0 -0.953125 -0.828125 -1.5q-0.578125 -0.375 -2.875 -0.953125q-3.09375 -0.78125 -4.296875 -1.34375q-1.1875 -0.578125 -1.8125 -1.578125q-0.609375 -1.015625 -0.609375 -2.234375q0 -1.109375 0.5 -2.046875q0.515625 -0.953125 1.390625 -1.578125q0.65625 -0.484375 1.78125 -0.8125q1.140625 -0.34375 2.4375 -0.34375q1.953125 0 3.421875 0.5625q1.484375 0.5625 2.1875 1.53125q0.703125 0.953125 0.96875 2.5625l-2.75 0.375q-0.1875 -1.28125 -1.09375 -2.0q-0.890625 -0.71875 -2.53125 -0.71875q-1.9375 0 -2.765625 0.640625q-0.828125 0.640625 -0.828125 1.5q0 0.546875 0.34375 0.984375q0.34375 0.453125 1.078125 0.75q0.421875 0.15625 2.484375 0.71875q2.984375 0.796875 4.15625 1.3125q1.1875 0.5 1.859375 1.46875q0.671875 0.96875 0.671875 2.40625q0 1.40625 -0.828125 2.65625q-0.8125 1.234375 -2.359375 1.921875q-1.546875 0.671875 -3.5 0.671875q-3.234375 0 -4.9375 -1.34375q-1.6875 -1.34375 -2.15625 -3.984375zm17.125 11.3125l0 -22.953125l2.5625 0l0 2.15625q0.90625 -1.265625 2.046875 -1.890625q1.140625 -0.640625 2.765625 -0.640625q2.125 0 3.75 1.09375q1.625 1.09375 2.453125 3.09375q0.828125 1.984375 0.828125 4.359375q0 2.546875 -0.921875 4.59375q-0.90625 2.03125 -2.65625 3.125q-1.734375 1.078125 -3.65625 1.078125q-1.40625 0 -2.53125 -0.59375q-1.109375 -0.59375 -1.828125 -1.5l0 8.078125l-2.8125 0zm2.546875 -14.5625q0 3.203125 1.296875 4.734375q1.296875 1.53125 3.140625 1.53125q1.875 0 3.203125 -1.578125q1.34375 -1.59375 1.34375 -4.921875q0 -3.171875 -1.3125 -4.75q-1.296875 -1.578125 -3.109375 -1.578125q-1.796875 0 -3.1875 1.6875q-1.375 1.671875 -1.375 4.875zm15.1875 8.203125l0 -22.90625l2.8125 0l0 22.90625l-2.8125 0zm7.1875 -19.671875l0 -3.234375l2.8125 0l0 3.234375l-2.8125 0zm0 19.671875l0 -16.59375l2.8125 0l0 16.59375l-2.8125 0zm13.234375 -2.515625l0.40625 2.484375q-1.1875 0.25 -2.125 0.25q-1.53125 0 -2.375 -0.484375q-0.84375 -0.484375 -1.1875 -1.265625q-0.34375 -0.796875 -0.34375 -3.328125l0 -9.546875l-2.0625 0l0 -2.1875l2.0625 0l0 -4.109375l2.796875 -1.6875l0 5.796875l2.828125 0l0 2.1875l-2.828125 0l0 9.703125q0 1.203125 0.140625 1.546875q0.15625 0.34375 0.484375 0.546875q0.34375 0.203125 0.96875 0.203125q0.46875 0 1.234375 -0.109375z" fill-rule="nonzero"/><path fill="#000000" fill-opacity="0.0" d="m7.8950133 16.041994l482.92914 0l0 87.2756l-482.92914 0z" fill-rule="evenodd"/><path fill="#000000" d="m49.816887 64.739494l5.3125 1.34375q-1.671875 6.53125 -6.015625 9.96875q-4.328125 3.4375 -10.59375 3.4375q-6.46875 0 -10.531248 -2.640625q-4.0625 -2.640625 -6.1875 -7.640625q-2.109375 -5.015625 -2.109375 -10.75q0 -6.265625 2.390625 -10.921875q2.390625 -4.671875 6.796875 -7.078125q4.421873 -2.421875 9.734373 -2.421875q6.015625 0 10.109375 3.0625q4.109375 3.0625 5.71875 8.609375l-5.21875 1.234375q-1.40625 -4.375 -4.0625 -6.375q-2.640625 -2.0 -6.65625 -2.0q-4.625 0 -7.734373 2.21875q-3.09375 2.21875 -4.359375 5.953125q-1.25 3.71875 -1.25 7.6875q0 5.109375 1.484375 8.9375q1.484375 3.8125 4.625 5.703125q3.156248 1.875 6.812498 1.875q4.46875 0 7.546875 -2.5625q3.09375 -2.578125 4.1875 -7.640625zm9.378906 -0.453125q0 -8.078125 4.484375 -11.953125q3.75 -3.234375 9.140625 -3.234375q5.984375 0 9.78125 3.9375q3.796875 3.921875 3.796875 10.828125q0 5.609375 -1.6875 8.828125q-1.671875 3.203125 -4.890625 4.984375q-3.203125 1.78125 -7.0 1.78125q-6.109375 0 -9.875 -3.90625q-3.75 -3.921875 -3.75 -11.265625zm5.0625 0q0 5.578125 2.421875 8.359375q2.4375 2.765625 6.140625 2.765625q3.65625 0 6.09375 -2.78125q2.4375 -2.796875 2.4375 -8.515625q0 -5.390625 -2.453125 -8.15625q-2.453125 -2.78125 -6.078125 -2.78125q-3.703125 0 -6.140625 2.765625q-2.421875 2.765625 -2.421875 8.34375zm27.910156 14.515625l0 -29.046875l4.40625 0l0 4.078125q1.375 -2.125 3.640625 -3.421875q2.265625 -1.3125 5.171875 -1.3125q3.21875 0 5.28125 1.34375q2.0625 1.34375 2.921875 3.75q3.4375 -5.09375 8.96875 -5.09375q4.3125 0 6.6406326 2.40625q2.328125 2.390625 2.328125 7.359375l0 19.9375l-4.9062576 0l0 -18.296875q0 -2.953125 -0.484375 -4.25q-0.46875 -1.296875 -1.734375 -2.09375q-1.25 -0.796875 -2.9375 -0.796875q-3.0625 0 -5.09375 2.046875q-2.015625 2.03125 -2.015625 6.515625l0 16.875l-4.921875 0l0 -18.875q0 -3.28125 -1.203125 -4.921875q-1.203125 -1.640625 -3.9375 -1.640625q-2.078125 0 -3.84375 1.09375q-1.765625 1.09375 -2.5625 3.203125q-0.796875 2.109375 -0.796875 6.078125l0 15.0625l-4.921875 0zm46.648445 11.124992l0 -40.171867l4.484375 0l0 3.78125q1.59375 -2.21875 3.578125 -3.328125q2.0 -1.109375 4.84375 -1.109375q3.71875 0 6.5625 1.921875q2.84375 1.90625 4.296875 5.40625q1.453125 3.484375 1.453125 7.640625q0 4.453125 -1.609375 8.03125q-1.59375 3.5625 -4.640625 5.46875q-3.046875 1.890625 -6.40625 1.890625q-2.46875 0 -4.421875 -1.03125q-1.953125 -1.046875 -3.21875 -2.640625l0 14.140617l-4.921875 0zm4.46875 -25.484367q0 5.609375 2.265625 8.296875q2.265625 2.671875 5.5 2.671875q3.28125 0 5.609375 -2.765625q2.34375 -2.78125 2.34375 -8.609375q0 -5.546875 -2.28125 -8.3125q-2.28125 -2.765625 -5.453125 -2.765625q-3.15625 0 -5.578125 2.9375q-2.40625 2.9375 -2.40625 8.546875zm26.566406 14.359375l0 -40.09375l4.921875 0l0 40.09375l-4.921875 0zm32.441406 -9.359375l5.078125 0.640625q-1.203125 4.453125 -4.453125 6.921875q-3.25 2.453125 -8.3125 2.453125q-6.375 0 -10.109375 -3.921875q-3.734375 -3.921875 -3.734375 -11.015625q0 -7.328125 3.765625 -11.375q3.78125 -4.046875 9.796875 -4.046875q5.828125 0 9.515625 3.96875q3.703125 3.96875 3.703125 11.15625q0 0.4375 -0.03125 1.3125l-21.65625 0q0.265625 4.78125 2.703125 7.328125q2.4375 2.546875 6.078125 2.546875q2.703125 0 4.609375 -1.421875q1.921875 -1.421875 3.046875 -4.546875zm-16.171875 -7.953125l16.21875 0q-0.328125 -3.65625 -1.859375 -5.5q-2.34375 -2.84375 -6.09375 -2.84375q-3.390625 0 -5.703125 2.28125q-2.3125 2.265625 -2.5625 6.0625zm38.17578 12.90625l0.71875 4.34375q-2.078125 0.453125 -3.71875 0.453125q-2.6875 0 -4.171875 -0.84375q-1.46875 -0.859375 -2.078125 -2.234375q-0.59375 -1.390625 -0.59375 -5.8125l0 -16.71875l-3.609375 0l0 -3.828125l3.609375 0l0 -7.1875l4.890625 -2.953125l0 10.140625l4.953125 0l0 3.828125l-4.953125 0l0 16.984375q0 2.109375 0.265625 2.71875q0.265625 0.59375 0.84375 0.953125q0.59375 0.34375 1.6875 0.34375q0.8125 0 2.15625 -0.1875zm24.699219 -4.953125l5.078125 0.640625q-1.203125 4.453125 -4.453125 6.921875q-3.25 2.453125 -8.3125 2.453125q-6.375 0 -10.109375 -3.921875q-3.734375 -3.921875 -3.734375 -11.015625q0 -7.328125 3.765625 -11.375q3.78125 -4.046875 9.796875 -4.046875q5.828125 0 9.515625 3.96875q3.703125 3.96875 3.703125 11.15625q0 0.4375 -0.03125 1.3125l-21.65625 0q0.265625 4.78125 2.703125 7.328125q2.4375 2.546875 6.078125 2.546875q2.703125 0 4.609375 -1.421875q1.921875 -1.421875 3.046875 -4.546875zm-16.171875 -7.953125l16.21875 0q-0.328125 -3.65625 -1.859375 -5.5q-2.34375 -2.84375 -6.09375 -2.84375q-3.390625 0 -5.703125 2.28125q-2.3125 2.265625 -2.5625 6.0625zm43.625 17.3125l0 -40.09375l13.796875 0q4.6875 0 7.140625 0.578125q3.453125 0.796875 5.875 2.875q3.171875 2.671875 4.75 6.84375q1.578125 4.171875 1.578125 9.53125q0 4.5625 -1.078125 8.09375q-1.0625 3.53125 -2.734375 5.84375q-1.65625 2.3125 -3.640625 3.640625q-1.984375 1.3125 -4.796875 2.0q-2.796875 0.6875 -6.4375 0.6875l-14.453125 0zm5.296875 -4.734375l8.5625 0q3.96875 0 6.21875 -0.734375q2.25 -0.734375 3.59375 -2.078125q1.890625 -1.890625 2.9375 -5.078125q1.0625 -3.1875 1.0625 -7.71875q0 -6.296875 -2.078125 -9.671875q-2.0625 -3.375 -5.015625 -4.515625q-2.125 -0.828125 -6.859375 -0.828125l-8.421875 0l0 30.625zm53.45703 1.15625q-2.734375 2.3125 -5.265625 3.28125q-2.53125 0.953125 -5.421875 0.953125q-4.78125 0 -7.359375 -2.328125q-2.5625 -2.34375 -2.5625 -5.984375q0 -2.140625 0.96875 -3.890625q0.96875 -1.765625 2.53125 -2.828125q1.578125 -1.078125 3.546875 -1.625q1.453125 -0.375 4.375 -0.734375q5.96875 -0.71875 8.78125 -1.703125q0.03125 -1.0 0.03125 -1.28125q0 -3.0 -1.40625 -4.234375q-1.875 -1.671875 -5.59375 -1.671875q-3.484375 0 -5.140625 1.21875q-1.640625 1.21875 -2.4375 4.3125l-4.8125 -0.65625q0.65625 -3.09375 2.15625 -4.984375q1.5 -1.90625 4.34375 -2.9375q2.84375 -1.03125 6.59375 -1.03125q3.71875 0 6.046875 0.875q2.328125 0.875 3.421875 2.203125q1.09375 1.328125 1.53125 3.359375q0.234375 1.25 0.234375 4.53125l0 6.5625q0 6.859375 0.3125 8.6875q0.328125 1.8125 1.25 3.484375l-5.140625 0q-0.765625 -1.53125 -0.984375 -3.578125zm-0.40625 -11.0q-2.6875 1.09375 -8.046875 1.859375q-3.03125 0.4375 -4.296875 0.984375q-1.25 0.546875 -1.9375 1.609375q-0.671875 1.046875 -0.671875 2.328125q0 1.96875 1.484375 3.28125q1.484375 1.3125 4.359375 1.3125q2.84375 0 5.0625 -1.234375q2.21875 -1.25 3.25 -3.40625q0.796875 -1.671875 0.796875 -4.921875l0 -1.8125zm23.347656 10.171875l0.71875 4.34375q-2.078125 0.453125 -3.71875 0.453125q-2.6875 0 -4.171875 -0.84375q-1.46875 -0.859375 -2.078125 -2.234375q-0.59375 -1.390625 -0.59375 -5.8125l0 -16.71875l-3.609375 0l0 -3.828125l3.609375 0l0 -7.1875l4.890625 -2.953125l0 10.140625l4.953125 0l0 3.828125l-4.953125 0l0 16.984375q0 2.109375 0.265625 2.71875q0.265625 0.59375 0.84375 0.953125q0.59375 0.34375 1.6875 0.34375q0.8125 0 2.15625 -0.1875zm23.761719 0.828125q-2.734375 2.3125 -5.265625 3.28125q-2.53125 0.953125 -5.421875 0.953125q-4.78125 0 -7.359375 -2.328125q-2.5625 -2.34375 -2.5625 -5.984375q0 -2.140625 0.96875 -3.890625q0.96875 -1.765625 2.53125 -2.828125q1.578125 -1.078125 3.546875 -1.625q1.453125 -0.375 4.375 -0.734375q5.96875 -0.71875 8.78125 -1.703125q0.03125 -1.0 0.03125 -1.28125q0 -3.0 -1.40625 -4.234375q-1.875 -1.671875 -5.59375 -1.671875q-3.484375 0 -5.140625 1.21875q-1.640625 1.21875 -2.4375 4.3125l-4.8125 -0.65625q0.65625 -3.09375 2.15625 -4.984375q1.5 -1.90625 4.34375 -2.9375q2.84375 -1.03125 6.59375 -1.03125q3.71875 0 6.046875 0.875q2.328125 0.875 3.421875 2.203125q1.09375 1.328125 1.53125 3.359375q0.234375 1.25 0.234375 4.53125l0 6.5625q0 6.859375 0.3125 8.6875q0.328125 1.8125 1.25 3.484375l-5.140625 0q-0.765625 -1.53125 -0.984375 -3.578125zm-0.40625 -11.0q-2.6875 1.09375 -8.046875 1.859375q-3.03125 0.4375 -4.296875 0.984375q-1.25 0.546875 -1.9375 1.609375q-0.671875 1.046875 -0.671875 2.328125q0 1.96875 1.484375 3.28125q1.484375 1.3125 4.359375 1.3125q2.84375 0 5.0625 -1.234375q2.21875 -1.25 3.25 -3.40625q0.796875 -1.671875 0.796875 -4.921875l0 -1.8125zm10.628906 5.90625l4.875 -0.765625q0.40625 2.921875 2.28125 4.484375q1.875 1.5625 5.234375 1.5625q3.390625 0 5.03125 -1.375q1.640625 -1.390625 1.640625 -3.25q0 -1.671875 -1.453125 -2.625q-1.0 -0.65625 -5.03125 -1.671875q-5.40625 -1.359375 -7.5 -2.359375q-2.09375 -1.0 -3.171875 -2.765625q-1.078125 -1.765625 -1.078125 -3.890625q0 -1.9375 0.890625 -3.59375q0.890625 -1.65625 2.421875 -2.75q1.140625 -0.84375 3.125 -1.4375q1.984375 -0.59375 4.25 -0.59375q3.421875 0 6.0 0.984375q2.59375 0.984375 3.8125 2.671875q1.234375 1.6875 1.703125 4.5l-4.8125 0.65625q-0.328125 -2.25 -1.90625 -3.5q-1.5625 -1.265625 -4.4375 -1.265625q-3.390625 0 -4.84375 1.125q-1.453125 1.125 -1.453125 2.625q0 0.953125 0.609375 1.71875q0.59375 0.796875 1.890625 1.3125q0.734375 0.28125 4.34375 1.265625q5.21875 1.390625 7.28125 2.28125q2.0625 0.890625 3.234375 2.59375q1.1875 1.6875 1.1875 4.203125q0 2.453125 -1.4375 4.640625q-1.4375 2.171875 -4.140625 3.359375q-2.703125 1.1875 -6.125 1.1875q-5.65625 0 -8.625 -2.34375q-2.96875 -2.359375 -3.796875 -6.984375zm49.859375 -0.6875l5.078125 0.640625q-1.203125 4.453125 -4.453125 6.921875q-3.25 2.453125 -8.3125 2.453125q-6.375 0 -10.109375 -3.921875q-3.734375 -3.921875 -3.734375 -11.015625q0 -7.328125 3.765625 -11.375q3.78125 -4.046875 9.796875 -4.046875q5.828125 0 9.515625 3.96875q3.703125 3.96875 3.703125 11.15625q0 0.4375 -0.03125 1.3125l-21.65625 0q0.265625 4.78125 2.703125 7.328125q2.4375 2.546875 6.078125 2.546875q2.703125 0 4.609375 -1.421875q1.921875 -1.421875 3.046875 -4.546875zm-16.171875 -7.953125l16.21875 0q-0.328125 -3.65625 -1.859375 -5.5q-2.34375 -2.84375 -6.09375 -2.84375q-3.390625 0 -5.703125 2.28125q-2.3125 2.265625 -2.5625 6.0625zm38.17578 12.90625l0.71875 4.34375q-2.078125 0.453125 -3.71875 0.453125q-2.6875 0 -4.171875 -0.84375q-1.46875 -0.859375 -2.078125 -2.234375q-0.59375 -1.390625 -0.59375 -5.8125l0 -16.71875l-3.609375 0l0 -3.828125l3.609375 0l0 -7.1875l4.890625 -2.953125l0 10.140625l4.953125 0l0 3.828125l-4.953125 0l0 16.984375q0 2.109375 0.265625 2.71875q0.265625 0.59375 0.84375 0.953125q0.59375 0.34375 1.6875 0.34375q0.8125 0 2.15625 -0.1875z" fill-rule="nonzero"/><path fill="#000000" fill-opacity="0.0" d="m1240.294 30.068241l0 357.5118l-87.27551 0l0 -357.5118z" fill-rule="evenodd"/><path fill="#000000" d="m1177.5339 53.583866l35.359375 0l0 -13.203125l4.734375 0l0 31.781254l-4.734375 0l0 -13.265629l-35.359375 0l0 -5.3125zm0 21.25391l29.046875 0l0 4.421875l-4.40625 0q3.09375 1.703125 4.078125 3.140625q0.984375 1.4375 0.984375 3.15625q0 2.484375 -1.59375 5.0625l-4.5625 -1.703125q1.0625 -1.796875 1.0625 -3.609375q0 -1.609375 -0.96875 -2.90625q-0.96875 -1.28125 -2.6875 -1.828125q-2.625 -0.8125 -5.75 -0.8125l-15.203125 0l0 -4.921875zm3.578125 37.648438q-2.3125 -2.734375 -3.28125 -5.265625q-0.953125 -2.53125 -0.953125 -5.421875q0 -4.78125 2.328125 -7.359375q2.34375 -2.5625 5.984375 -2.5625q2.140625 0 3.890625 0.96875q1.765625 0.96875 2.828125 2.53125q1.078125 1.578125 1.625 3.546875q0.375 1.453125 0.734375 4.375q0.71875 5.96875 1.703125 8.78125q1.0 0.03125 1.28125 0.03125q3.0 0 4.234375 -1.40625q1.671875 -1.875 1.671875 -5.59375q0 -3.484375 -1.21875 -5.140625q-1.21875 -1.640625 -4.3125 -2.4375l0.65625 -4.8125q3.09375 0.65625 4.984375 2.15625q1.90625 1.5 2.9375 4.34375q1.03125 2.84375 1.03125 6.59375q0 3.71875 -0.875 6.046875q-0.875 2.328125 -2.203125 3.421875q-1.328125 1.09375 -3.359375 1.53125q-1.25 0.234375 -4.53125 0.234375l-6.5625 0q-6.859375 0 -8.6875 0.3125q-1.8125 0.328125 -3.484375 1.25l0 -5.140625q1.53125 -0.765625 3.578125 -0.984375zm11.0 -0.40625q-1.09375 -2.6875 -1.859375 -8.046875q-0.4375 -3.03125 -0.984375 -4.296875q-0.546875 -1.25 -1.609375 -1.9375q-1.046875 -0.671875 -2.328125 -0.671875q-1.96875 0 -3.28125 1.484375q-1.3125 1.484375 -1.3125 4.359375q0 2.84375 1.234375 5.0625q1.25 2.21875 3.40625 3.25q1.671875 0.796875 4.921875 0.796875l1.8125 0zm19.84375 12.628906l5.671875 0l0 4.9218674l-5.671875 0l0 -4.9218674zm-34.421875 0l29.046875 0l0 4.9218674l-29.046875 0l0 -4.9218674zm0 12.410149l29.046875 0l0 4.4375l-4.140625 0q4.796875 3.203125 4.796875 9.234375q0 2.625 -0.953125 4.828125q-0.9375 2.203125 -2.46875 3.296875q-1.53125 1.09375 -3.640625 1.53125q-1.359375 0.28125 -4.78125 0.28125l-17.859375 0l0 -4.921875l17.671875 0q3.0 0 4.484375 -0.578125q1.5 -0.578125 2.390625 -2.046875q0.890625 -1.453125 0.890625 -3.421875q0 -3.140625 -2.0 -5.4375q-2.0 -2.28125 -7.578125 -2.28125l-15.859375 0l0 -4.921875zm34.421875 31.175781l5.671875 0l0 4.921875l-5.671875 0l0 -4.921875zm-34.421875 0l29.046875 0l0 4.921875l-29.046875 0l0 -4.921875zm0 12.410156l29.046875 0l0 4.4375l-4.140625 0q4.796875 3.203125 4.796875 9.234375q0 2.625 -0.953125 4.828125q-0.9375 2.203125 -2.46875 3.296875q-1.53125 1.09375 -3.640625 1.53125q-1.359375 0.28125 -4.78125 0.28125l-17.859375 0l0 -4.921875l17.671875 0q3.0 0 4.484375 -0.578125q1.5 -0.578125 2.390625 -2.046875q0.890625 -1.453125 0.890625 -3.421875q0 -3.140625 -2.0 -5.4375q-2.0 -2.28125 -7.578125 -2.28125l-15.859375 0l0 -4.921875zm-2.40625 30.253906l-0.71875 4.78125q-2.203125 0.296875 -3.21875 1.671875q-1.375 1.828125 -1.375 5.0q0 3.421875 1.375 5.28125q1.359375 1.859375 3.828125 2.515625q1.5 0.375 6.3125 0.34375q-3.796875 -3.21875 -3.796875 -8.03125q0 -5.984375 4.3125 -9.265625q4.328125 -3.28125 10.375 -3.28125q4.15625 0 7.671875 1.5q3.515625 1.5 5.421875 4.359375q1.921875 2.859375 1.921875 6.71875q0 5.140625 -4.15625 8.46875l3.5 0l0 4.546875l-25.109375 0q-6.78125 0 -9.609375 -1.390625q-2.828125 -1.375 -4.46875 -4.375q-1.640625 -2.984375 -1.640625 -7.359375q0 -5.203125 2.34375 -8.40625q2.328125 -3.1875 7.03125 -3.078125zm17.453125 4.0625q-5.71875 0 -8.34375 2.265625q-2.625 2.28125 -2.625 5.703125q0 3.390625 2.609375 5.6875q2.609375 2.296875 8.1875 2.296875q5.328125 0 8.03125 -2.375q2.71875 -2.359375 2.71875 -5.703125q0 -3.28125 -2.671875 -5.578125q-2.65625 -2.296875 -7.90625 -2.296875zm-15.046875 62.375l3.671875 0q-4.328125 -2.765625 -4.328125 -8.125q0 -3.46875 1.90625 -6.390625q1.921875 -2.90625 5.34375 -4.5q3.4375 -1.59375 7.90625 -1.59375q4.34375 0 7.875 1.4375q3.546875 1.453125 5.4375 4.34375q1.890625 2.90625 1.890625 6.484375q0 2.625 -1.109375 4.671875q-1.109375 2.0625 -2.890625 3.34375l14.390625 0l0 4.890625l-40.09375 0l0 -4.5625zm14.5 -15.5625q-5.578125 0 -8.34375 2.34375q-2.765625 2.359375 -2.765625 5.5625q0 3.234375 2.640625 5.484375q2.640625 2.25 8.046875 2.25q5.96875 0 8.75 -2.296875q2.796875 -2.296875 2.796875 -5.65625q0 -3.28125 -2.6875 -5.484375q-2.671875 -2.203125 -8.4375 -2.203125zm-10.921875 46.816406q-2.3125 -2.734375 -3.28125 -5.265625q-0.953125 -2.53125 -0.953125 -5.421875q0 -4.78125 2.328125 -7.359375q2.34375 -2.5625 5.984375 -2.5625q2.140625 0 3.890625 0.96875q1.765625 0.96875 2.828125 2.53125q1.078125 1.578125 1.625 3.546875q0.375 1.453125 0.734375 4.375q0.71875 5.96875 1.703125 8.78125q1.0 0.03125 1.28125 0.03125q3.0 0 4.234375 -1.40625q1.671875 -1.875 1.671875 -5.59375q0 -3.484375 -1.21875 -5.140625q-1.21875 -1.640625 -4.3125 -2.4375l0.65625 -4.8125q3.09375 0.65625 4.984375 2.15625q1.90625 1.5 2.9375 4.34375q1.03125 2.84375 1.03125 6.59375q0 3.71875 -0.875 6.046875q-0.875 2.328125 -2.203125 3.421875q-1.328125 1.09375 -3.359375 1.53125q-1.25 0.234375 -4.53125 0.234375l-6.5625 0q-6.859375 0 -8.6875 0.3125q-1.8125 0.328125 -3.484375 1.25l0 -5.140625q1.53125 -0.765625 3.578125 -0.984375zm11.0 -0.40625q-1.09375 -2.6875 -1.859375 -8.046875q-0.4375 -3.03125 -0.984375 -4.296875q-0.546875 -1.25 -1.609375 -1.9375q-1.046875 -0.671875 -2.328125 -0.671875q-1.96875 0 -3.28125 1.484375q-1.3125 1.484375 -1.3125 4.359375q0 2.84375 1.234375 5.0625q1.25 2.21875 3.40625 3.25q1.671875 0.796875 4.921875 0.796875l1.8125 0zm-10.171875 23.347656l-4.34375 0.71875q-0.453125 -2.078125 -0.453125 -3.71875q0 -2.6875 0.84375 -4.171875q0.859375 -1.46875 2.234375 -2.078125q1.390625 -0.59375 5.8125 -0.59375l16.71875 0l0 -3.609375l3.828125 0l0 3.609375l7.1875 0l2.953125 4.890625l-10.140625 0l0 4.953125l-3.828125 0l0 -4.953125l-16.984375 0q-2.109375 0 -2.71875 0.265625q-0.59375 0.265625 -0.953125 0.84375q-0.34375 0.59375 -0.34375 1.6875q0 0.8125 0.1875 2.15625zm-0.828125 23.761719q-2.3125 -2.734375 -3.28125 -5.265625q-0.953125 -2.53125 -0.953125 -5.421875q0 -4.78125 2.328125 -7.359375q2.34375 -2.5625 5.984375 -2.5625q2.140625 0 3.890625 0.96875q1.765625 0.96875 2.828125 2.53125q1.078125 1.578125 1.625 3.546875q0.375 1.453125 0.734375 4.375q0.71875 5.96875 1.703125 8.78125q1.0 0.03125 1.28125 0.03125q3.0 0 4.234375 -1.40625q1.671875 -1.875 1.671875 -5.59375q0 -3.484375 -1.21875 -5.140625q-1.21875 -1.640625 -4.3125 -2.4375l0.65625 -4.8125q3.09375 0.65625 4.984375 2.15625q1.90625 1.5 2.9375 4.34375q1.03125 2.84375 1.03125 6.59375q0 3.71875 -0.875 6.046875q-0.875 2.328125 -2.203125 3.421875q-1.328125 1.09375 -3.359375 1.53125q-1.25 0.234375 -4.53125 0.234375l-6.5625 0q-6.859375 0 -8.6875 0.3125q-1.8125 0.328125 -3.484375 1.25l0 -5.140625q1.53125 -0.765625 3.578125 -0.984375zm11.0 -0.40625q-1.09375 -2.6875 -1.859375 -8.046875q-0.4375 -3.03125 -0.984375 -4.296875q-0.546875 -1.25 -1.609375 -1.9375q-1.046875 -0.671875 -2.328125 -0.671875q-1.96875 0 -3.28125 1.484375q-1.3125 1.484375 -1.3125 4.359375q0 2.84375 1.234375 5.0625q1.25 2.21875 3.40625 3.25q1.671875 0.796875 4.921875 0.796875l1.8125 0z" fill-rule="nonzero"/><path fill="#000000" fill-opacity="0.0" d="m1229.9055 429.0551l0 285.4173l-87.275635 0l0 -285.4173z" fill-rule="evenodd"/><path fill="#000000" d="m1167.1455 452.57074l35.359375 0l0 -13.203125l4.734375 0l0 31.78125l-4.734375 0l0 -13.265625l-35.359375 0l0 -5.3125zm9.359375 37.0625l-0.640625 5.078125q-4.453125 -1.203125 -6.921875 -4.453125q-2.453125 -3.25 -2.453125 -8.3125q0 -6.375 3.921875 -10.109375q3.921875 -3.734375 11.015625 -3.734375q7.328125 0 11.375 3.765625q4.046875 3.78125 4.046875 9.796875q0 5.828125 -3.96875 9.515625q-3.96875 3.703125 -11.15625 3.703125q-0.4375 0 -1.3125 -0.03125l0 -21.65625q-4.78125 0.265625 -7.328125 2.703125q-2.546875 2.4375 -2.546875 6.078125q0 2.703125 1.421875 4.609375q1.421875 1.921875 4.546875 3.046875zm7.953125 -16.171875l0 16.21875q3.65625 -0.328125 5.5 -1.859375q2.84375 -2.34375 2.84375 -6.09375q0 -3.390625 -2.28125 -5.703125q-2.265625 -2.3125 -6.0625 -2.5625zm-8.640625 25.457031l0.765625 4.875q-2.921875 0.40625 -4.484375 2.28125q-1.5625 1.875 -1.5625 5.234375q0 3.390625 1.375 5.03125q1.390625 1.640625 3.25 1.640625q1.671875 0 2.625 -1.453125q0.65625 -1.0 1.671875 -5.03125q1.359375 -5.40625 2.359375 -7.5q1.0 -2.09375 2.765625 -3.171875q1.765625 -1.078125 3.890625 -1.078125q1.9375 0 3.59375 0.890625q1.65625 0.890625 2.75 2.421875q0.84375 1.140625 1.4375 3.125q0.59375 1.984375 0.59375 4.25q0 3.421875 -0.984375 6.0q-0.984375 2.59375 -2.671875 3.8125q-1.6875 1.234375 -4.5 1.703125l-0.65625 -4.8125q2.25 -0.328125 3.5 -1.90625q1.265625 -1.5625 1.265625 -4.4375q0 -3.390625 -1.125 -4.84375q-1.125 -1.453125 -2.625 -1.453125q-0.953125 0 -1.71875 0.609375q-0.796875 0.59375 -1.3125 1.890625q-0.28125 0.734375 -1.265625 4.34375q-1.390625 5.21875 -2.28125 7.28125q-0.890625 2.0625 -2.59375 3.234375q-1.6875 1.1875 -4.203125 1.1875q-2.453125 0 -4.640625 -1.4375q-2.171875 -1.4375 -3.359375 -4.140625q-1.1875 -2.703125 -1.1875 -6.125q0 -5.65625 2.34375 -8.625q2.359375 -2.96875 6.984375 -3.796875zm-4.265625 40.71875l-4.34375 0.71875q-0.453125 -2.078125 -0.453125 -3.71875q0 -2.6875 0.84375 -4.171875q0.859375 -1.46875 2.234375 -2.078125q1.390625 -0.59375 5.8125 -0.59375l16.71875 0l0 -3.609375l3.828125 0l0 3.609375l7.1875 0l2.953125 4.890625l-10.140625 0l0 4.953125l-3.828125 0l0 -4.953125l-16.984375 0q-2.109375 0 -2.71875 0.265625q-0.59375 0.265625 -0.953125 0.84375q-0.34375 0.59375 -0.34375 1.6875q0 0.8125 0.1875 2.15625zm-4.40625 39.210938l3.671875 0q-4.328125 -2.765625 -4.328125 -8.125q0 -3.46875 1.90625 -6.390625q1.921875 -2.90625 5.34375 -4.5q3.4375 -1.59375 7.90625 -1.59375q4.34375 0 7.875 1.4375q3.546875 1.453125 5.4375 4.34375q1.890625 2.90625 1.890625 6.484375q0 2.625 -1.109375 4.671875q-1.109375 2.0625 -2.890625 3.34375l14.390625 0l0 4.890625l-40.09375 0l0 -4.5625zm14.5 -15.5625q-5.578125 0 -8.34375 2.34375q-2.765625 2.359375 -2.765625 5.5625q0 3.234375 2.640625 5.484375q2.640625 2.25 8.046875 2.25q5.96875 0 8.75 -2.296875q2.796875 -2.296875 2.796875 -5.65625q0 -3.28125 -2.6875 -5.484375q-2.671875 -2.203125 -8.4375 -2.203125zm-10.921875 46.816406q-2.3125 -2.734375 -3.28125 -5.265625q-0.953125 -2.53125 -0.953125 -5.421875q0 -4.78125 2.328125 -7.359375q2.34375 -2.5625 5.984375 -2.5625q2.140625 0 3.890625 0.96875q1.765625 0.96875 2.828125 2.53125q1.078125 1.578125 1.625 3.546875q0.375 1.453125 0.734375 4.375q0.71875 5.96875 1.703125 8.78125q1.0 0.03125 1.28125 0.03125q3.0 0 4.234375 -1.40625q1.671875 -1.875 1.671875 -5.59375q0 -3.484375 -1.21875 -5.140625q-1.21875 -1.640625 -4.3125 -2.4375l0.65625 -4.8125q3.09375 0.65625 4.984375 2.15625q1.90625 1.5 2.9375 4.34375q1.03125 2.84375 1.03125 6.59375q0 3.71875 -0.875 6.046875q-0.875 2.328125 -2.203125 3.421875q-1.328125 1.09375 -3.359375 1.53125q-1.25 0.234375 -4.53125 0.234375l-6.5625 0q-6.859375 0 -8.6875 0.3125q-1.8125 0.328125 -3.484375 1.25l0 -5.140625q1.53125 -0.765625 3.578125 -0.984375zm11.0 -0.40625q-1.09375 -2.6875 -1.859375 -8.046875q-0.4375 -3.03125 -0.984375 -4.296875q-0.546875 -1.25 -1.609375 -1.9375q-1.046875 -0.671875 -2.328125 -0.671875q-1.96875 0 -3.28125 1.484375q-1.3125 1.484375 -1.3125 4.359375q0 2.84375 1.234375 5.0625q1.25 2.21875 3.40625 3.25q1.671875 0.796875 4.921875 0.796875l1.8125 0zm-10.171875 23.347656l-4.34375 0.71875q-0.453125 -2.078125 -0.453125 -3.71875q0 -2.6875 0.84375 -4.171875q0.859375 -1.46875 2.234375 -2.078125q1.390625 -0.59375 5.8125 -0.59375l16.71875 0l0 -3.609375l3.828125 0l0 3.609375l7.1875 0l2.953125 4.890625l-10.140625 0l0 4.953125l-3.828125 0l0 -4.953125l-16.984375 0q-2.109375 0 -2.71875 0.265625q-0.59375 0.265625 -0.953125 0.84375q-0.34375 0.59375 -0.34375 1.6875q0 0.8125 0.1875 2.15625zm-0.828125 23.761719q-2.3125 -2.734375 -3.28125 -5.265625q-0.953125 -2.53125 -0.953125 -5.421875q0 -4.78125 2.328125 -7.359375q2.34375 -2.5625 5.984375 -2.5625q2.140625 0 3.890625 0.96875q1.765625 0.96875 2.828125 2.53125q1.078125 1.578125 1.625 3.546875q0.375 1.453125 0.734375 4.375q0.71875 5.96875 1.703125 8.78125q1.0 0.03125 1.28125 0.03125q3.0 0 4.234375 -1.40625q1.671875 -1.875 1.671875 -5.59375q0 -3.484375 -1.21875 -5.140625q-1.21875 -1.640625 -4.3125 -2.4375l0.65625 -4.8125q3.09375 0.65625 4.984375 2.15625q1.90625 1.5 2.9375 4.34375q1.03125 2.84375 1.03125 6.59375q0 3.71875 -0.875 6.046875q-0.875 2.328125 -2.203125 3.421875q-1.328125 1.09375 -3.359375 1.53125q-1.25 0.234375 -4.53125 0.234375l-6.5625 0q-6.859375 0 -8.6875 0.3125q-1.8125 0.328125 -3.484375 1.25l0 -5.140625q1.53125 -0.765625 3.578125 -0.984375zm11.0 -0.40625q-1.09375 -2.6875 -1.859375 -8.046875q-0.4375 -3.03125 -0.984375 -4.296875q-0.546875 -1.25 -1.609375 -1.9375q-1.046875 -0.671875 -2.328125 -0.671875q-1.96875 0 -3.28125 1.484375q-1.3125 1.484375 -1.3125 4.359375q0 2.84375 1.234375 5.0625q1.25 2.21875 3.40625 3.25q1.671875 0.796875 4.921875 0.796875l1.8125 0z" fill-rule="nonzero"/></g></svg>