<?xml version="1.0" encoding="UTF-8" standalone="no" ?>
<!DOCTYPE svg PUBLIC "-//W3C//DTD SVG 1.1//EN" "http://www.w3.org/Graphics/SVG/1.1/DTD/svg11.dtd">
<svg xmlns="http://www.w3.org/2000/svg" xmlns:xlink="http://www.w3.org/1999/xlink" version="1.1" width="864" height="456" viewBox="0 0 864 456" xml:space="preserve">
<desc>Created with Fabric.js 4.3.1</desc>
<defs>
</defs>
<g transform="matrix(1.03 0 0 1.03 421.06 215.25)"  >
<path style="stroke: rgb(78,78,243); stroke-width: 3; stroke-dasharray: none; stroke-linecap: round; stroke-dashoffset: 0; stroke-linejoin: round; stroke-miterlimit: 10; fill: none; fill-rule: nonzero; opacity: 1;"  transform=" translate(-415.8, -174.23)" d="M 98.997 125.497 Q 99 125.5 107.5 147.5 Q 116 169.5 118.5 190.5 Q 121 211.5 114 186.5 Q 107 161.5 99.5 141 Q 92 120.5 118.5 113.5 Q 145 106.5 168 105 Q 191 103.5 217.5 105 Q 244 106.5 275 108 Q 306 109.5 329 109.5 Q 352 109.5 374.5 110.5 Q 397 111.5 419.5 111 Q 442 110.5 472.5 111.5 Q 503 112.5 532.5 111.5 Q 562 110.5 590 108.5 Q 618 106.5 641.5 103.5 Q 665 100.5 687 98 Q 709 95.5 719 118 Q 729 140.5 730.5 164 Q 732 187.5 735 210 Q 738 232.5 716.5 242.5 Q 695 252.5 672.5 250.5 Q 650 248.5 622 246.5 Q 594 244.5 573 243.5 Q 552 242.5 529.5 242 Q 507 241.5 485 240.5 Q 463 239.5 440.5 238.5 Q 418 237.5 395.5 237 Q 373 236.5 351 237.5 Q 329 238.5 300 239 Q 271 239.5 249 238 Q 227 236.5 203 232.5 Q 179 228.5 156 226.5 L 132.997 224.497" stroke-linecap="round" />
</g>
<g transform="matrix(1 0 0 1 212.07 214.5)"  >
<path style="stroke: rgb(0,0,0); stroke-width: 3; stroke-dasharray: none; stroke-linecap: round; stroke-dashoffset: 0; stroke-linejoin: round; stroke-miterlimit: 10; fill: none; fill-rule: nonzero; opacity: 1;"  transform=" translate(-212.06, -214.5)" d="M 211 142.497 Q 211 142.5 207.5 144.5 Q 204 146.5 204 149 Q 204 151.5 203.5 154 Q 203 156.5 203.5 159.5 Q 204 162.5 204.5 165.5 Q 205 168.5 205.5 172.5 Q 206 176.5 207 179.5 Q 208 182.5 208.5 185.5 Q 209 188.5 209.5 191.5 Q 210 194.5 211 197.5 Q 212 200.5 212 203 Q 212 205.5 212.5 209 Q 213 212.5 213.5 215 Q 214 217.5 214.5 220 Q 215 222.5 215.5 225 Q 216 227.5 216.5 229.5 Q 217 231.5 217.5 235 Q 218 238.5 219 241.5 Q 220 244.5 220 246.5 Q 220 248.5 220 251.5 Q 220 254.5 220 257.5 Q 220 260.5 220 263.5 Q 220 266.5 220.5 270.5 Q 221 274.5 221 278.5 Q 221 282.5 221 284.5 L 221 286.503" stroke-linecap="round" />
</g>
<g transform="matrix(1 0 0 1 337 210.5)"  >
<path style="stroke: rgb(0,0,0); stroke-width: 3; stroke-dasharray: none; stroke-linecap: round; stroke-dashoffset: 0; stroke-linejoin: round; stroke-miterlimit: 10; fill: none; fill-rule: nonzero; opacity: 1;"  transform=" translate(-337, -210.5)" d="M 330 149.497 Q 330 149.5 330 153 Q 330 156.5 330 160 Q 330 163.5 330 167 Q 330 170.5 330.5 174 Q 331 177.5 331 181.5 Q 331 185.5 331.5 190 Q 332 194.5 332.5 199.5 Q 333 204.5 333.5 209.5 Q 334 214.5 334 219 Q 334 223.5 334.5 228.5 Q 335 233.5 336 237.5 Q 337 241.5 337.5 245.5 Q 338 249.5 339 253 Q 340 256.5 340.5 259.5 Q 341 262.5 341 264.5 Q 341 266.5 342.5 269 L 344.003 271.503" stroke-linecap="round" />
</g>
<g transform="matrix(1 0 0 1 446 214)"  >
<path style="stroke: rgb(0,0,0); stroke-width: 3; stroke-dasharray: none; stroke-linecap: round; stroke-dashoffset: 0; stroke-linejoin: round; stroke-miterlimit: 10; fill: none; fill-rule: nonzero; opacity: 1;"  transform=" translate(-446, -214)" d="M 436.997 157.497 Q 437 157.5 438 160 Q 439 162.5 441 168 Q 443 173.5 444 179 Q 445 184.5 445.5 188 Q 446 191.5 446.5 196.5 Q 447 201.5 447.5 207 Q 448 212.5 449 217.5 Q 450 222.5 450.5 228 Q 451 233.5 451 239 Q 451 244.5 451.5 249 Q 452 253.5 452 257.5 Q 452 261.5 452.5 264 Q 453 266.5 454 268.5 L 455.003 270.503" stroke-linecap="round" />
</g>
<g transform="matrix(1 0 0 1 568 214.5)"  >
<path style="stroke: rgb(0,0,0); stroke-width: 3; stroke-dasharray: none; stroke-linecap: round; stroke-dashoffset: 0; stroke-linejoin: round; stroke-miterlimit: 10; fill: none; fill-rule: nonzero; opacity: 1;"  transform=" translate(-568, -214.5)" d="M 572 142.497 Q 572 142.5 568.5 145.5 Q 565 148.5 565 152 Q 565 155.5 565 161 Q 565 166.5 564.5 172.5 Q 564 178.5 564 185.5 Q 564 192.5 564 198.5 Q 564 204.5 564.5 211 Q 565 217.5 565.5 223.5 Q 566 229.5 566.5 236 Q 567 242.5 567.5 249 Q 568 255.5 568 262 Q 568 268.5 568.5 272.5 Q 569 276.5 569 279.5 Q 569 282.5 569.5 284.5 L 570.003 286.503" stroke-linecap="round" />
</g>
<g transform="matrix(1 0 0 1 630 365.5)"  >
<path style="stroke: rgb(78,78,243); stroke-width: 3; stroke-dasharray: none; stroke-linecap: round; stroke-dashoffset: 0; stroke-linejoin: round; stroke-miterlimit: 10; fill: none; fill-rule: nonzero; opacity: 1;"  transform=" translate(-630, -365.5)" d="M 632.997 368.5 Q 633 368.5 630 365.5 L 627.003 362.5" stroke-linecap="round" />
</g>
<g transform="matrix(1 0 0 1 152.07 204.45)"  >
<path style="stroke: rgb(78,78,243); stroke-width: 3; stroke-dasharray: none; stroke-linecap: round; stroke-dashoffset: 0; stroke-linejoin: round; stroke-miterlimit: 10; fill: none; fill-rule: nonzero; opacity: 1;"  transform=" translate(-152.07, -204.45)" d="M 135.997 170.503 Q 136 170.5 149.5 160 Q 163 149.5 165 148.5 Q 167 147.5 161.5 152.5 Q 156 157.5 149.5 162.5 Q 143 167.5 136 172 Q 129 176.5 123 180 Q 117 183.5 114 185 Q 111 186.5 113 185.5 Q 115 184.5 119.5 181.5 Q 124 178.5 129 175.5 Q 134 172.5 138 170 Q 142 167.5 145 166 Q 148 164.5 146 166.5 Q 144 168.5 141 171.5 Q 138 174.5 136 176 Q 134 177.5 140 175 Q 146 172.5 152 168.5 Q 158 164.5 163.5 161.5 Q 169 158.5 171.5 157.5 Q 174 156.5 171 159.5 Q 168 162.5 161 168 Q 154 173.5 147 179.5 Q 140 185.5 134 190 Q 128 194.5 124 196.5 Q 120 198.5 118 200 Q 116 201.5 120.5 198 Q 125 194.5 132 190 Q 139 185.5 147 180.5 Q 155 175.5 160.5 173.5 Q 166 171.5 168.5 171 Q 171 170.5 170.5 172.5 Q 170 174.5 165.5 179 Q 161 183.5 153.5 190 Q 146 196.5 139 202.5 Q 132 208.5 128 211 Q 124 213.5 122 215.5 Q 120 217.5 126.5 214 Q 133 210.5 140 206.5 Q 147 202.5 154.5 198 Q 162 193.5 167.5 191.5 Q 173 189.5 175 189.5 Q 177 189.5 175 192.5 Q 173 195.5 168 199.5 Q 163 203.5 157 208 Q 151 212.5 147 215 Q 143 217.5 146.5 218 Q 150 218.5 156 215.5 Q 162 212.5 167 210 Q 172 207.5 175 207 Q 178 206.5 172.5 212 Q 167 217.5 161 222 Q 155 226.5 151 229.5 Q 147 232.5 149.5 233.5 Q 152 234.5 157.5 232 Q 163 229.5 168.5 226.5 Q 174 223.5 177.5 222.5 Q 181 221.5 179.5 224.5 Q 178 227.5 174 231 Q 170 234.5 166.5 238 Q 163 241.5 161 243 Q 159 244.5 165 243.5 Q 171 242.5 176 241 Q 181 239.5 185.5 238.5 Q 190 237.5 193 237.5 Q 196 237.5 194 241 Q 192 244.5 187.5 247.5 Q 183 250.5 181 252 Q 179 253.5 183 252 Q 187 250.5 190.5 249 Q 194 247.5 196.5 246.5 Q 199 245.5 197 246.5 Q 195 247.5 190.5 250 Q 186 252.5 181 255.5 Q 176 258.5 173 260 Q 170 261.5 175 257.5 Q 180 253.5 186 249.5 Q 192 245.5 197 242 Q 202 238.5 204 236.5 Q 206 234.5 201.5 233.5 Q 197 232.5 191 234.5 Q 185 236.5 179 239 Q 173 241.5 167.5 244 Q 162 246.5 157 248 Q 152 249.5 150 250.5 Q 148 251.5 151 248.5 Q 154 245.5 159.5 241.5 Q 165 237.5 170.5 233.5 Q 176 229.5 180.5 226.5 Q 185 223.5 181.5 223.5 Q 178 223.5 171 228 Q 164 232.5 156.5 237 Q 149 241.5 143.5 245 Q 138 248.5 135.5 250 Q 133 251.5 138.5 247 Q 144 242.5 150 237.5 Q 156 232.5 162 228 Q 168 223.5 172 220 Q 176 216.5 173 217 Q 170 217.5 164 222 Q 158 226.5 151.5 231.5 Q 145 236.5 140 240.5 Q 135 244.5 132 246.5 Q 129 248.5 131 246.5 Q 133 244.5 139 239 Q 145 233.5 150.5 228.5 Q 156 223.5 158 222.5 Q 160 221.5 166.5 216 Q 173 210.5 177.5 207.5 Q 182 204.5 180 206.5 Q 178 208.5 171.5 214 Q 165 219.5 158 224.5 Q 151 229.5 145 234 Q 139 238.5 135.5 240.5 Q 132 242.5 134 239 Q 136 235.5 141 230 Q 146 224.5 152 218 Q 158 211.5 164.5 205 Q 171 198.5 175 194 Q 179 189.5 180.5 187.5 Q 182 185.5 176.5 188.5 Q 171 191.5 163.5 196 Q 156 200.5 148 206.5 Q 140 212.5 133.5 216.5 Q 127 220.5 124 222.5 Q 121 224.5 124.5 219.5 Q 128 214.5 135 207.5 Q 142 200.5 150 193.5 Q 158 186.5 165.5 180 Q 173 173.5 177 170.5 Q 181 167.5 176 170.5 Q 171 173.5 162.5 179.5 Q 154 185.5 145.5 191 Q 137 196.5 130.5 200 Q 124 203.5 120 205 Q 116 206.5 119 202 Q 122 197.5 129 192 Q 136 186.5 144 180 Q 152 173.5 160 168 Q 168 162.5 172.5 159 Q 177 155.5 175.5 154 Q 174 152.5 168 155 Q 162 157.5 152.5 162.5 Q 143 167.5 134 172.5 Q 125 177.5 118.5 180.5 Q 112 183.5 109 185 Q 106 186.5 110.5 183 Q 115 179.5 121 175 Q 127 170.5 133.5 166.5 Q 140 162.5 146 158 Q 152 153.5 154.5 151.5 Q 157 149.5 150 151.5 Q 143 153.5 135.5 158 Q 128 162.5 121 166 Q 114 169.5 109 171.5 Q 104 173.5 101.5 174.5 Q 99 175.5 103.5 172.5 Q 108 169.5 113.5 166 Q 119 162.5 123.5 160.5 Q 128 158.5 125 159.5 Q 122 160.5 117 163 Q 112 165.5 107.5 168.5 Q 103 171.5 100.5 173 Q 98 174.5 103 173 Q 108 171.5 113.5 169.5 Q 119 167.5 124.5 165.5 Q 130 163.5 135.5 162 Q 141 160.5 147 158.5 Q 153 156.5 156 156 Q 159 155.5 158.5 157.5 Q 158 159.5 152.5 164.5 Q 147 169.5 141.5 175 Q 136 180.5 131.5 184.5 Q 127 188.5 125.5 190.5 Q 124 192.5 127.5 192 Q 131 191.5 137 188 Q 143 184.5 149.5 180.5 Q 156 176.5 162 173 Q 168 169.5 172 167.5 Q 176 165.5 174 169 Q 172 172.5 167 177.5 Q 162 182.5 156 187.5 Q 150 192.5 147 195 Q 144 197.5 149 196 Q 154 194.5 158.5 192 Q 163 189.5 167.5 187 Q 172 184.5 175.5 183.5 Q 179 182.5 181 182 Q 183 181.5 181.5 184.5 Q 180 187.5 176 191 Q 172 194.5 168 198.5 Q 164 202.5 160 206.5 Q 156 210.5 154.5 212.5 Q 153 214.5 156 214.5 Q 159 214.5 163 212.5 Q 167 210.5 171 209 Q 175 207.5 177.5 206.5 Q 180 205.5 180 208 Q 180 210.5 177.5 213 Q 175 215.5 171.5 219 Q 168 222.5 165 225.5 Q 162 228.5 160 230.5 Q 158 232.5 162.5 229 Q 167 225.5 171.5 222.5 Q 176 219.5 180 216.5 Q 184 213.5 186.5 212 Q 189 210.5 188 213.5 Q 187 216.5 183 220.5 Q 179 224.5 175.5 228 Q 172 231.5 170 233.5 Q 168 235.5 172 233.5 Q 176 231.5 180 229 Q 184 226.5 187 225 Q 190 223.5 192 223 Q 194 222.5 191.5 227 Q 189 231.5 185.5 235 Q 182 238.5 178.5 241.5 Q 175 244.5 173 246.5 Q 171 248.5 176 247 Q 181 245.5 185 244 Q 189 242.5 192 241.5 Q 195 240.5 194.5 243 Q 194 245.5 191.5 247 Q 189 248.5 186 250.5 Q 183 252.5 180 254.5 Q 177 256.5 175 258.5 L 172.997 260.503" stroke-linecap="round" />
</g>
<g transform="matrix(1 0 0 1 276.05 203.08)"  >
<path style="stroke: rgb(35,120,130); stroke-width: 3; stroke-dasharray: none; stroke-linecap: round; stroke-dashoffset: 0; stroke-linejoin: round; stroke-miterlimit: 10; fill: none; fill-rule: nonzero; opacity: 1;"  transform=" translate(-276.05, -203.08)" d="M 267.003 170.497 Q 267 170.5 263.5 165 Q 260 159.5 254.5 163.5 Q 249 167.5 245 172 Q 241 176.5 238.5 179.5 Q 236 182.5 240 182 Q 244 181.5 249 178.5 Q 254 175.5 259.5 172 Q 265 168.5 270 166 Q 275 163.5 277.5 162.5 Q 280 161.5 279 165 Q 278 168.5 273.5 174 Q 269 179.5 263.5 185.5 Q 258 191.5 252.5 197.5 Q 247 203.5 243.5 208 Q 240 212.5 243.5 213 Q 247 213.5 253 210 Q 259 206.5 266.5 202.5 Q 274 198.5 281 195 Q 288 191.5 292.5 190 Q 297 188.5 299.5 188.5 Q 302 188.5 302.5 190.5 Q 303 192.5 302 196 Q 301 199.5 296.5 204.5 Q 292 209.5 287.5 214.5 Q 283 219.5 280 223 Q 277 226.5 281.5 226.5 Q 286 226.5 292.5 223.5 Q 299 220.5 304.5 218 Q 310 215.5 313 214.5 Q 316 213.5 313.5 217 Q 311 220.5 306.5 225.5 Q 302 230.5 297 236 Q 292 241.5 289.5 243.5 L 286.997 245.503" stroke-linecap="round" />
</g>
<g transform="matrix(1 0 0 1 392.37 211.94)"  >
<path style="stroke: rgb(35,120,130); stroke-width: 3; stroke-dasharray: none; stroke-linecap: round; stroke-dashoffset: 0; stroke-linejoin: round; stroke-miterlimit: 10; fill: none; fill-rule: nonzero; opacity: 1;"  transform=" translate(-392.37, -211.94)" d="M 387.003 176.497 Q 387 176.5 383.5 175 Q 380 173.5 377.5 175.5 Q 375 177.5 374 180 Q 373 182.5 373.5 185 Q 374 187.5 376 188 Q 378 188.5 380.5 188 Q 383 187.5 386 186.5 Q 389 185.5 392 184.5 Q 395 183.5 397.5 183.5 Q 400 183.5 402 184.5 Q 404 185.5 403 187.5 Q 402 189.5 399 193 Q 396 196.5 391.5 200.5 Q 387 204.5 382 209 Q 377 213.5 374.5 216 Q 372 218.5 375.5 218.5 Q 379 218.5 383.5 216.5 Q 388 214.5 393 213 Q 398 211.5 400.5 211.5 Q 403 211.5 404 213.5 Q 405 215.5 405 217.5 Q 405 219.5 402 224.5 Q 399 229.5 395.5 234.5 Q 392 239.5 389.5 243 Q 387 246.5 392 248.5 Q 397 250.5 404.5 248 L 412.003 245.497" stroke-linecap="round" />
</g>
<g transform="matrix(1 0 0 1 514.97 218.14)"  >
<path style="stroke: rgb(35,120,130); stroke-width: 3; stroke-dasharray: none; stroke-linecap: round; stroke-dashoffset: 0; stroke-linejoin: round; stroke-miterlimit: 10; fill: none; fill-rule: nonzero; opacity: 1;"  transform=" translate(-514.97, -218.14)" d="M 506.997 190.503 Q 507 190.5 497.5 191.5 Q 488 192.5 490 190.5 Q 492 188.5 498 185.5 Q 504 182.5 510.5 179.5 Q 517 176.5 522 174.5 Q 527 172.5 529 172 Q 531 171.5 527.5 175.5 Q 524 179.5 518 184.5 Q 512 189.5 505.5 195.5 Q 499 201.5 495 205.5 Q 491 209.5 490.5 211.5 Q 490 213.5 492.5 214 Q 495 214.5 501.5 214 Q 508 213.5 515 212 Q 522 210.5 528 210 Q 534 209.5 537 210.5 Q 540 211.5 540 214 Q 540 216.5 536 221 Q 532 225.5 525.5 232 Q 519 238.5 513.5 244 Q 508 249.5 504.5 253 Q 501 256.5 499.5 258 Q 498 259.5 504 258 Q 510 256.5 515.5 255 Q 521 253.5 525 253.5 Q 529 253.5 531.5 255 Q 534 256.5 535.5 259 Q 537 261.5 539 263 L 541.003 264.503" stroke-linecap="round" />
</g>
<g transform="matrix(1 0 0 1 661.49 220.09)"  >
<path style="stroke: rgb(35,120,130); stroke-width: 3; stroke-dasharray: none; stroke-linecap: round; stroke-dashoffset: 0; stroke-linejoin: round; stroke-miterlimit: 10; fill: none; fill-rule: nonzero; opacity: 1;"  transform=" translate(-661.49, -220.09)" d="M 623.003 184.503 Q 623 184.5 621 184.5 Q 619 184.5 611.5 183.5 Q 604 182.5 608.5 180 Q 613 177.5 619.5 174.5 Q 626 171.5 632 168.5 Q 638 165.5 643 164.5 Q 648 163.5 650 164 Q 652 164.5 651 167.5 Q 650 170.5 644.5 176 Q 639 181.5 632 188 Q 625 194.5 619.5 200 Q 614 205.5 611.5 208.5 Q 609 211.5 610 213.5 Q 611 215.5 617 215 Q 623 214.5 633 211 Q 643 207.5 654 204 Q 665 200.5 673 199 Q 681 197.5 685.5 197 Q 690 196.5 691.5 198.5 Q 693 200.5 690.5 205 Q 688 209.5 681 217 Q 674 224.5 666.5 231.5 Q 659 238.5 654 243 Q 649 247.5 646.5 250.5 Q 644 253.5 646 254.5 Q 648 255.5 656.5 251.5 Q 665 247.5 677.5 241.5 Q 690 235.5 700 230.5 Q 710 225.5 714 224.5 Q 718 223.5 717 227 Q 716 230.5 710 237 Q 704 243.5 695 252 Q 686 260.5 679.5 268.5 L 672.997 276.503" stroke-linecap="round" />
</g>
<g transform="matrix(1 0 0 1 270.46 211.53)"  >
<path style="stroke: rgb(255,165,0); stroke-width: 3; stroke-dasharray: none; stroke-linecap: round; stroke-dashoffset: 0; stroke-linejoin: round; stroke-miterlimit: 10; fill: none; fill-rule: nonzero; opacity: 1;"  transform=" translate(-270.46, -211.53)" d="M 262.997 169.503 Q 263 169.5 252 173 Q 241 176.5 245.5 173.5 Q 250 170.5 254.5 168 Q 259 165.5 266 161.5 Q 273 157.5 268.5 162 Q 264 166.5 257.5 173 Q 251 179.5 245 185.5 Q 239 191.5 236.5 195 Q 234 198.5 240 197 Q 246 195.5 255 190 Q 264 184.5 273 178.5 Q 282 172.5 289.5 168.5 Q 297 164.5 300.5 163 Q 304 161.5 302.5 167 Q 301 172.5 294.5 180 Q 288 187.5 279.5 196.5 Q 271 205.5 263 214 Q 255 222.5 252 226.5 Q 249 230.5 251.5 229.5 Q 254 228.5 259 224.5 Q 264 220.5 269 216.5 Q 274 212.5 276.5 210.5 Q 279 208.5 278.5 211.5 Q 278 214.5 273 221 Q 268 227.5 261.5 236 Q 255 244.5 250.5 250.5 Q 246 256.5 248 257.5 Q 250 258.5 255.5 255 Q 261 251.5 269 246 Q 277 240.5 284 235 Q 291 229.5 296.5 226.5 Q 302 223.5 304 223 Q 306 222.5 306 225 Q 306 227.5 303 233.5 Q 300 239.5 294.5 247.5 Q 289 255.5 287 260 L 284.997 264.503" stroke-linecap="round" />
</g>
<g transform="matrix(1 0 0 1 394.19 227)"  >
<path style="stroke: rgb(255,165,0); stroke-width: 3; stroke-dasharray: none; stroke-linecap: round; stroke-dashoffset: 0; stroke-linejoin: round; stroke-miterlimit: 10; fill: none; fill-rule: nonzero; opacity: 1;"  transform=" translate(-394.19, -227)" d="M 372.003 183.497 Q 372 183.5 370 183.5 Q 368 183.5 360 187 Q 352 190.5 356 188 Q 360 185.5 367 181.5 Q 374 177.5 381 174.5 Q 388 171.5 392 170 Q 396 168.5 398 168.5 Q 400 168.5 398.5 170.5 Q 397 172.5 392.5 176.5 Q 388 180.5 381 187 Q 374 193.5 367.5 199.5 Q 361 205.5 358 208.5 Q 355 211.5 361 210.5 Q 367 209.5 376 205 Q 385 200.5 394 197 Q 403 193.5 409.5 191.5 Q 416 189.5 419.5 190.5 Q 423 191.5 422.5 195 Q 422 198.5 416.5 205.5 Q 411 212.5 402.5 222 Q 394 231.5 387 239.5 Q 380 247.5 377.5 251 Q 375 254.5 382.5 253.5 Q 390 252.5 398.5 247.5 Q 407 242.5 416 237.5 Q 425 232.5 430 231 Q 435 229.5 435 235.5 Q 435 241.5 428 250.5 Q 421 259.5 414.5 268.5 Q 408 277.5 405 281.5 L 401.997 285.503" stroke-linecap="round" />
</g>
<g transform="matrix(1 0 0 1 519.47 209.72)"  >
<path style="stroke: rgb(255,165,0); stroke-width: 3; stroke-dasharray: none; stroke-linecap: round; stroke-dashoffset: 0; stroke-linejoin: round; stroke-miterlimit: 10; fill: none; fill-rule: nonzero; opacity: 1;"  transform=" translate(-519.47, -209.72)" d="M 497.997 195.503 Q 498 195.5 494 192.5 Q 490 189.5 493.5 186.5 Q 497 183.5 503 180 Q 509 176.5 516 172.5 Q 523 168.5 526.5 166.5 Q 530 164.5 528 166 Q 526 167.5 518 173.5 Q 510 179.5 502 186 Q 494 192.5 488 198 Q 482 203.5 480 206 Q 478 208.5 480 209 Q 482 209.5 488 208 Q 494 206.5 503 202.5 Q 512 198.5 520 195.5 Q 528 192.5 532 192 Q 536 191.5 534.5 199 Q 533 206.5 527.5 214 Q 522 221.5 516.5 229 Q 511 236.5 507.5 242 Q 504 247.5 503 251 Q 502 254.5 510 253.5 Q 518 252.5 529.5 246 Q 541 239.5 549 236 Q 557 232.5 559 234 Q 561 235.5 558.5 240 Q 556 244.5 553 249.5 L 549.997 254.503" stroke-linecap="round" />
</g>
<g transform="matrix(1 0 0 1 658.27 216.95)"  >
<path style="stroke: rgb(255,165,0); stroke-width: 3; stroke-dasharray: none; stroke-linecap: round; stroke-dashoffset: 0; stroke-linejoin: round; stroke-miterlimit: 10; fill: none; fill-rule: nonzero; opacity: 1;"  transform=" translate(-658.27, -216.95)" d="M 626.997 191.503 Q 627 191.5 624 191 Q 621 190.5 628 185.5 Q 635 180.5 641.5 177 Q 648 173.5 651.5 171 Q 655 168.5 647.5 174 Q 640 179.5 632 185 Q 624 190.5 616.5 195.5 Q 609 200.5 604 204.5 Q 599 208.5 602.5 208 Q 606 207.5 615 202 Q 624 196.5 633.5 191.5 Q 643 186.5 652.5 182.5 Q 662 178.5 666.5 178 Q 671 177.5 671.5 179.5 Q 672 181.5 668.5 187 Q 665 192.5 658.5 200.5 Q 652 208.5 645 215.5 Q 638 222.5 633 228 Q 628 233.5 627 235.5 Q 626 237.5 628.5 237 Q 631 236.5 641 230.5 Q 651 224.5 663.5 216.5 Q 676 208.5 685.5 203.5 Q 695 198.5 699.5 197 Q 704 195.5 702 202 Q 700 208.5 693 217 Q 686 225.5 679 232.5 Q 672 239.5 668.5 244 Q 665 248.5 668.5 249.5 Q 672 250.5 679 247.5 Q 686 244.5 695.5 238.5 Q 705 232.5 711 229.5 Q 717 226.5 716 232 Q 715 237.5 712.5 244 Q 710 250.5 709.5 257.5 L 708.997 264.503" stroke-linecap="round" />
</g>
</svg>