<?xml version="1.0" encoding="UTF-8" standalone="no" ?>
<!DOCTYPE svg PUBLIC "-//W3C//DTD SVG 1.1//EN" "http://www.w3.org/Graphics/SVG/1.1/DTD/svg11.dtd">
<svg xmlns="http://www.w3.org/2000/svg" xmlns:xlink="http://www.w3.org/1999/xlink" version="1.1" width="1047" height="437" viewBox="0 0 1047 437" xml:space="preserve">
<desc>Created with Fabric.js 4.3.1</desc>
<defs>
</defs>
<g transform="matrix(1 0 0 1 470.95 228.41)"  >
<path style="stroke: rgb(0,0,0); stroke-width: 3; stroke-dasharray: none; stroke-linecap: round; stroke-dashoffset: 0; stroke-linejoin: round; stroke-miterlimit: 10; fill: none; fill-rule: nonzero; opacity: 1;"  transform=" translate(-470.95, -228.41)" d="M 480.9540827453316 49.90313089672408 Q 480.9540827453316 49.90613089672408 480.9540827453316 54.40624811660784 Q 480.9540827453316 58.906365336491604 480.9540827453316 61.90644348308078 Q 480.9540827453316 64.90652162966995 480.9540827453316 72.40671699614288 Q 480.9540827453316 79.90691236261581 480.9540827453316 86.90709470465723 Q 480.9540827453316 93.90727704669862 480.9540827453316 101.90748543760309 Q 480.9540827453316 109.90769382850755 480.45407732381193 122.40801943929577 Q 479.9540719022923 134.908345050084 478.45405563773335 145.4086185631461 Q 476.9540393731744 155.90889207620822 475.4540231086154 166.90917861370184 Q 473.95400684405644 177.9094651511955 472.9539960010171 189.40976471312064 Q 471.9539851579778 200.9100642750458 470.45396889341885 216.4104680324232 Q 468.9539526288599 231.9108717898006 467.45393636430094 240.4110932051366 Q 465.95392009974194 248.9113146204726 464.9539092567027 258.9115751091032 Q 463.95389841366335 268.9118355977338 463.45389299214366 274.4119788664806 Q 462.95388757062403 279.9121221352274 462.4538821491044 282.9122002818166 Q 461.9538767275847 285.9122784284057 461.9538767275847 291.4124216971526 Q 461.9538767275847 296.9125649658994 461.9538767275847 301.4126821857831 Q 461.9538767275847 305.9127994056669 461.9538767275847 310.9129296499822 Q 461.9538767275847 315.9130598942975 461.9538767275847 322.9132422363389 Q 461.9538767275847 329.9134245783803 461.9538767275847 337.9136329692848 Q 461.9538767275847 345.9138413601892 461.9538767275847 353.4140367266622 Q 461.9538767275847 360.91423209313507 461.9538767275847 372.4145316550603 Q 461.9538767275847 383.9148312169854 461.9538767275847 390.9150135590268 Q 461.9538767275847 397.9151959010682 461.453871306065 402.41531312095196 L 460.9508658845454 406.91843034083576" stroke-linecap="round" />
</g>
<g transform="matrix(1 0 0 1 460.95 219.91)"  >
<path style="stroke: rgb(0,0,0); stroke-width: 3; stroke-dasharray: none; stroke-linecap: round; stroke-dashoffset: 0; stroke-linejoin: round; stroke-miterlimit: 10; fill: none; fill-rule: nonzero; opacity: 1;"  transform=" translate(-460.95, -219.91)" d="M 232.94839367158252 217.90750710571783 Q 232.9513936715825 217.9105071057178 234.95141535766112 217.9105071057178 Q 236.95143704373976 217.9105071057178 241.9514912589363 218.91053315458086 Q 246.95154547413287 219.9105592034439 254.95163221844734 219.9105592034439 Q 262.95171896276184 219.9105592034439 278.45188702987116 219.9105592034439 Q 293.9520550969805 219.9105592034439 310.9522394286488 219.9105592034439 Q 327.95242376031706 219.9105592034439 344.9526080919853 219.9105592034439 Q 361.95279242365365 219.9105592034439 379.95298759836123 219.9105592034439 Q 397.9531827730688 219.9105592034439 413.45335084017813 219.9105592034439 Q 428.95351890728745 219.9105592034439 441.45365444527886 219.9105592034439 Q 453.9537899832702 219.9105592034439 460.45386046302576 219.9105592034439 Q 466.95393094278126 219.9105592034439 481.95409358837094 219.9105592034439 Q 496.95425623396056 219.9105592034439 506.9543646643537 220.41057222787543 Q 516.9544730947468 220.910585252307 521.9545273099434 220.910585252307 Q 526.9545815251399 220.910585252307 531.4546303188168 220.910585252307 Q 535.9546791124937 220.910585252307 541.4547387492099 220.910585252307 Q 546.9547983859261 220.910585252307 553.9548742872013 220.910585252307 Q 560.9549501884765 220.910585252307 572.4550748834286 221.4105982767385 Q 583.9551995783806 221.91061130117004 595.4553242733327 221.91061130117004 Q 606.9554489682848 221.91061130117004 616.9555573986779 221.4105982767385 Q 626.955665829071 220.910585252307 636.4557688379444 220.910585252307 Q 645.9558718468179 220.910585252307 654.9559694341717 220.910585252307 Q 663.9560670215255 220.910585252307 668.4561158152023 221.4105982767385 Q 672.9561646088792 221.91061130117004 675.4561917164776 221.91061130117004 Q 677.9562188240759 221.91061130117004 681.4562567747134 221.91061130117004 Q 684.9562947253511 221.91061130117004 686.9563164114297 221.91061130117004 L 688.9593380975083 221.91061130117004" stroke-linecap="round" />
</g>
<g transform="matrix(1 0 0 1 524.95 171.91)"  >
<path style="stroke: rgb(78,78,243); stroke-width: 3; stroke-dasharray: none; stroke-linecap: round; stroke-dashoffset: 0; stroke-linejoin: round; stroke-miterlimit: 10; fill: none; fill-rule: nonzero; opacity: 1;"  transform=" translate(-524.95, -171.91)" d="M 524.9515598390612 171.90930885801714 L 524.9575598390613 171.90930885801714" stroke-linecap="round" />
</g>
<g transform="matrix(1 0 0 1 546.95 149.91)"  >
<path style="stroke: rgb(78,78,243); stroke-width: 3; stroke-dasharray: none; stroke-linecap: round; stroke-dashoffset: 0; stroke-linejoin: round; stroke-miterlimit: 10; fill: none; fill-rule: nonzero; opacity: 1;"  transform=" translate(-546.95, -149.91)" d="M 546.951798385926 149.90873578302987 L 546.9577983859261 149.90873578302987" stroke-linecap="round" />
</g>
<g transform="matrix(1 0 0 1 542.95 145.91)"  >
<path style="stroke: rgb(78,78,243); stroke-width: 3; stroke-dasharray: none; stroke-linecap: round; stroke-dashoffset: 0; stroke-linejoin: round; stroke-miterlimit: 10; fill: none; fill-rule: nonzero; opacity: 1;"  transform=" translate(-542.95, -145.91)" d="M 542.9517550137689 145.90863158757764 L 542.957755013769 145.90863158757764" stroke-linecap="round" />
</g>
<g transform="matrix(1 0 0 1 524.95 171.91)"  >
<path style="stroke: rgb(78,78,243); stroke-width: 3; stroke-dasharray: none; stroke-linecap: round; stroke-dashoffset: 0; stroke-linejoin: round; stroke-miterlimit: 10; fill: none; fill-rule: nonzero; opacity: 1;"  transform=" translate(-524.95, -171.91)" d="M 524.9515598390612 171.90930885801714 L 524.9575598390613 171.90930885801714" stroke-linecap="round" />
</g>
<g transform="matrix(1 0 0 1 535.95 134.91)"  >
<path style="stroke: rgb(78,78,243); stroke-width: 3; stroke-dasharray: none; stroke-linecap: round; stroke-dashoffset: 0; stroke-linejoin: round; stroke-miterlimit: 10; fill: none; fill-rule: nonzero; opacity: 1;"  transform=" translate(-535.95, -134.91)" d="M 535.9516791124937 134.908345050084 L 535.9576791124938 134.908345050084" stroke-linecap="round" />
</g>
<g transform="matrix(1 0 0 1 580.96 115.91)"  >
<path style="stroke: rgb(78,78,243); stroke-width: 3; stroke-dasharray: none; stroke-linecap: round; stroke-dashoffset: 0; stroke-linejoin: round; stroke-miterlimit: 10; fill: none; fill-rule: nonzero; opacity: 1;"  transform=" translate(-580.96, -115.91)" d="M 580.9521670492627 115.9078501216859 L 580.9581670492628 115.9078501216859" stroke-linecap="round" />
</g>
<g transform="matrix(1 0 0 1 585.96 125.91)"  >
<path style="stroke: rgb(78,78,243); stroke-width: 3; stroke-dasharray: none; stroke-linecap: round; stroke-dashoffset: 0; stroke-linejoin: round; stroke-miterlimit: 10; fill: none; fill-rule: nonzero; opacity: 1;"  transform=" translate(-585.96, -125.91)" d="M 585.9522212644592 125.90811061031648 L 585.9582212644593 125.90811061031648" stroke-linecap="round" />
</g>
<g transform="matrix(1 0 0 1 632.96 89.91)"  >
<path style="stroke: rgb(78,78,243); stroke-width: 3; stroke-dasharray: none; stroke-linecap: round; stroke-dashoffset: 0; stroke-linejoin: round; stroke-miterlimit: 10; fill: none; fill-rule: nonzero; opacity: 1;"  transform=" translate(-632.96, -89.91)" d="M 632.9527308873069 89.9071728512464 L 632.958730887307 89.9071728512464" stroke-linecap="round" />
</g>
<g transform="matrix(1 0 0 1 631.96 84.91)"  >
<path style="stroke: rgb(78,78,243); stroke-width: 3; stroke-dasharray: none; stroke-linecap: round; stroke-dashoffset: 0; stroke-linejoin: round; stroke-miterlimit: 10; fill: none; fill-rule: nonzero; opacity: 1;"  transform=" translate(-631.96, -84.91)" d="M 631.9527200442675 84.9070426069311 L 631.9587200442676 84.9070426069311" stroke-linecap="round" />
</g>
<g transform="matrix(1 0 0 1 573.96 84.91)"  >
<path style="stroke: rgb(78,78,243); stroke-width: 3; stroke-dasharray: none; stroke-linecap: round; stroke-dashoffset: 0; stroke-linejoin: round; stroke-miterlimit: 10; fill: none; fill-rule: nonzero; opacity: 1;"  transform=" translate(-573.96, -84.91)" d="M 573.9520911479875 84.9070426069311 L 573.9580911479876 84.9070426069311" stroke-linecap="round" />
</g>
<g transform="matrix(1 0 0 1 574.96 84.91)"  >
<path style="stroke: rgb(78,78,243); stroke-width: 3; stroke-dasharray: none; stroke-linecap: round; stroke-dashoffset: 0; stroke-linejoin: round; stroke-miterlimit: 10; fill: none; fill-rule: nonzero; opacity: 1;"  transform=" translate(-574.96, -84.91)" d="M 574.9521019910268 84.9070426069311 L 574.9581019910269 84.9070426069311" stroke-linecap="round" />
</g>
<g transform="matrix(1 0 0 1 562.95 110.91)"  >
<path style="stroke: rgb(78,78,243); stroke-width: 3; stroke-dasharray: none; stroke-linecap: round; stroke-dashoffset: 0; stroke-linejoin: round; stroke-miterlimit: 10; fill: none; fill-rule: nonzero; opacity: 1;"  transform=" translate(-562.95, -110.91)" d="M 562.951971874555 110.90771987737061 L 562.9579718745551 110.90771987737061" stroke-linecap="round" />
</g>
<g transform="matrix(1 0 0 1 591.96 106.91)"  >
<path style="stroke: rgb(78,78,243); stroke-width: 3; stroke-dasharray: none; stroke-linecap: round; stroke-dashoffset: 0; stroke-linejoin: round; stroke-miterlimit: 10; fill: none; fill-rule: nonzero; opacity: 1;"  transform=" translate(-591.96, -106.91)" d="M 591.952286322695 106.90761568191839 L 591.9582863226951 106.90761568191839" stroke-linecap="round" />
</g>
<g transform="matrix(1 0 0 1 602.96 110.91)"  >
<path style="stroke: rgb(78,78,243); stroke-width: 3; stroke-dasharray: none; stroke-linecap: round; stroke-dashoffset: 0; stroke-linejoin: round; stroke-miterlimit: 10; fill: none; fill-rule: nonzero; opacity: 1;"  transform=" translate(-602.96, -110.91)" d="M 602.9524055961275 110.90771987737061 L 602.9584055961276 110.90771987737061" stroke-linecap="round" />
</g>
<g transform="matrix(1 0 0 1 605.96 42.91)"  >
<path style="stroke: rgb(78,78,243); stroke-width: 3; stroke-dasharray: none; stroke-linecap: round; stroke-dashoffset: 0; stroke-linejoin: round; stroke-miterlimit: 10; fill: none; fill-rule: nonzero; opacity: 1;"  transform=" translate(-605.96, -42.91)" d="M 605.9524381252454 42.90594855468267 L 605.9584381252455 42.90594855468267" stroke-linecap="round" />
</g>
<g transform="matrix(1 0 0 1 485.95 182.91)"  >
<path style="stroke: rgb(78,78,243); stroke-width: 3; stroke-dasharray: none; stroke-linecap: round; stroke-dashoffset: 0; stroke-linejoin: round; stroke-miterlimit: 10; fill: none; fill-rule: nonzero; opacity: 1;"  transform=" translate(-485.95, -182.91)" d="M 485.9511369605282 182.9095953955108 L 485.95713696052815 182.9095953955108" stroke-linecap="round" />
</g>
<g transform="matrix(1 0 0 1 389.95 199.91)"  >
<path style="stroke: rgb(78,78,243); stroke-width: 3; stroke-dasharray: none; stroke-linecap: round; stroke-dashoffset: 0; stroke-linejoin: round; stroke-miterlimit: 10; fill: none; fill-rule: nonzero; opacity: 1;"  transform=" translate(-389.95, -199.91)" d="M 389.95009602875433 199.91003822618276 L 389.9560960287543 199.91003822618276" stroke-linecap="round" />
</g>
<g transform="matrix(1 0 0 1 446.95 249.91)"  >
<path style="stroke: rgb(78,78,243); stroke-width: 3; stroke-dasharray: none; stroke-linecap: round; stroke-dashoffset: 0; stroke-linejoin: round; stroke-miterlimit: 10; fill: none; fill-rule: nonzero; opacity: 1;"  transform=" translate(-446.95, -249.91)" d="M 446.95071408199505 249.91134066933566 L 446.956714081995 249.91134066933566" stroke-linecap="round" />
</g>
<g transform="matrix(1 0 0 1 401.95 268.91)"  >
<path style="stroke: rgb(78,78,243); stroke-width: 3; stroke-dasharray: none; stroke-linecap: round; stroke-dashoffset: 0; stroke-linejoin: round; stroke-miterlimit: 10; fill: none; fill-rule: nonzero; opacity: 1;"  transform=" translate(-401.95, -268.91)" d="M 401.95022614522605 268.9118355977338 L 401.956226145226 268.9118355977338" stroke-linecap="round" />
</g>
<g transform="matrix(1 0 0 1 391.95 262.91)"  >
<path style="stroke: rgb(78,78,243); stroke-width: 3; stroke-dasharray: none; stroke-linecap: round; stroke-dashoffset: 0; stroke-linejoin: round; stroke-miterlimit: 10; fill: none; fill-rule: nonzero; opacity: 1;"  transform=" translate(-391.95, -262.91)" d="M 391.95011771483297 262.91167930455543 L 391.95611771483294 262.91167930455543" stroke-linecap="round" />
</g>
<g transform="matrix(1 0 0 1 357.95 334.91)"  >
<path style="stroke: rgb(78,78,243); stroke-width: 3; stroke-dasharray: none; stroke-linecap: round; stroke-dashoffset: 0; stroke-linejoin: round; stroke-miterlimit: 10; fill: none; fill-rule: nonzero; opacity: 1;"  transform=" translate(-357.95, -334.91)" d="M 357.9497490514964 334.9135548226956 L 357.95574905149635 334.9135548226956" stroke-linecap="round" />
</g>
<g transform="matrix(1 0 0 1 316.95 292.91)"  >
<path style="stroke: rgb(78,78,243); stroke-width: 3; stroke-dasharray: none; stroke-linecap: round; stroke-dashoffset: 0; stroke-linejoin: round; stroke-miterlimit: 10; fill: none; fill-rule: nonzero; opacity: 1;"  transform=" translate(-316.95, -292.91)" d="M 316.94930448688467 292.9124607704471 L 316.95530448688464 292.9124607704471" stroke-linecap="round" />
</g>
<g transform="matrix(1 0 0 1 345.95 254.91)"  >
<path style="stroke: rgb(78,78,243); stroke-width: 3; stroke-dasharray: none; stroke-linecap: round; stroke-dashoffset: 0; stroke-linejoin: round; stroke-miterlimit: 10; fill: none; fill-rule: nonzero; opacity: 1;"  transform=" translate(-345.95, -254.91)" d="M 345.94961893502466 254.91147091365096 L 345.95561893502463 254.91147091365096" stroke-linecap="round" />
</g>
<g transform="matrix(1 0 0 1 359.95 271.91)"  >
<path style="stroke: rgb(78,78,243); stroke-width: 3; stroke-dasharray: none; stroke-linecap: round; stroke-dashoffset: 0; stroke-linejoin: round; stroke-miterlimit: 10; fill: none; fill-rule: nonzero; opacity: 1;"  transform=" translate(-359.95, -271.91)" d="M 359.949770737575 271.91191374432293 L 359.955770737575 271.91191374432293" stroke-linecap="round" />
</g>
<g transform="matrix(1 0 0 1 357.95 285.91)"  >
<path style="stroke: rgb(78,78,243); stroke-width: 3; stroke-dasharray: none; stroke-linecap: round; stroke-dashoffset: 0; stroke-linejoin: round; stroke-miterlimit: 10; fill: none; fill-rule: nonzero; opacity: 1;"  transform=" translate(-357.95, -285.91)" d="M 357.9497490514964 285.9122784284057 L 357.95574905149635 285.9122784284057" stroke-linecap="round" />
</g>
<g transform="matrix(1 0 0 1 311.95 321.91)"  >
<path style="stroke: rgb(78,78,243); stroke-width: 3; stroke-dasharray: none; stroke-linecap: round; stroke-dashoffset: 0; stroke-linejoin: round; stroke-miterlimit: 10; fill: none; fill-rule: nonzero; opacity: 1;"  transform=" translate(-311.95, -321.91)" d="M 311.9492502716881 321.9132161874758 L 311.95525027168804 321.9132161874758" stroke-linecap="round" />
</g>
<g transform="matrix(1 0 0 1 289.95 353.91)"  >
<path style="stroke: rgb(78,78,243); stroke-width: 3; stroke-dasharray: none; stroke-linecap: round; stroke-dashoffset: 0; stroke-linejoin: round; stroke-miterlimit: 10; fill: none; fill-rule: nonzero; opacity: 1;"  transform=" translate(-289.95, -353.91)" d="M 289.94901172482327 353.91404975109367 L 289.95501172482324 353.91404975109367" stroke-linecap="round" />
</g>
<g transform="matrix(1 0 0 1 290.95 354.91)"  >
<path style="stroke: rgb(78,78,243); stroke-width: 3; stroke-dasharray: none; stroke-linecap: round; stroke-dashoffset: 0; stroke-linejoin: round; stroke-miterlimit: 10; fill: none; fill-rule: nonzero; opacity: 1;"  transform=" translate(-290.95, -354.91)" d="M 290.9490225678626 354.9140757999567 L 290.95502256786256 354.9140757999567" stroke-linecap="round" />
</g>
<g transform="matrix(1 0 0 1 320.95 345.91)"  >
<path style="stroke: rgb(78,78,243); stroke-width: 3; stroke-dasharray: none; stroke-linecap: round; stroke-dashoffset: 0; stroke-linejoin: round; stroke-miterlimit: 10; fill: none; fill-rule: nonzero; opacity: 1;"  transform=" translate(-320.95, -345.91)" d="M 320.9493478590419 345.9138413601892 L 320.95534785904186 345.9138413601892" stroke-linecap="round" />
</g>
<g transform="matrix(1 0 0 1 319.95 369.91)"  >
<path style="stroke: rgb(78,78,243); stroke-width: 3; stroke-dasharray: none; stroke-linecap: round; stroke-dashoffset: 0; stroke-linejoin: round; stroke-miterlimit: 10; fill: none; fill-rule: nonzero; opacity: 1;"  transform=" translate(-319.95, -369.91)" d="M 319.9493370160026 369.9144665329026 L 319.95533701600255 369.9144665329026" stroke-linecap="round" />
</g>
<g transform="matrix(1 0 0 1 350.95 311.91)"  >
<path style="stroke: rgb(78,78,243); stroke-width: 3; stroke-dasharray: none; stroke-linecap: round; stroke-dashoffset: 0; stroke-linejoin: round; stroke-miterlimit: 10; fill: none; fill-rule: nonzero; opacity: 1;"  transform=" translate(-350.95, -311.91)" d="M 350.9496731502212 311.9129556988452 L 350.9556731502212 311.9129556988452" stroke-linecap="round" />
</g>
<g transform="matrix(1 0 0 1 265.95 339.91)"  >
<path style="stroke: rgb(78,78,243); stroke-width: 3; stroke-dasharray: none; stroke-linecap: round; stroke-dashoffset: 0; stroke-linejoin: round; stroke-miterlimit: 10; fill: none; fill-rule: nonzero; opacity: 1;"  transform=" translate(-265.95, -339.91)" d="M 265.9487514918798 339.9136850670109 L 265.9547514918798 339.9136850670109" stroke-linecap="round" />
</g>
</svg>