<?xml version="1.0" encoding="UTF-8" standalone="no" ?>
<!DOCTYPE svg PUBLIC "-//W3C//DTD SVG 1.1//EN" "http://www.w3.org/Graphics/SVG/1.1/DTD/svg11.dtd">
<svg xmlns="http://www.w3.org/2000/svg" xmlns:xlink="http://www.w3.org/1999/xlink" version="1.1" width="864" height="456" viewBox="0 0 864 456" xml:space="preserve">
<desc>Created with Fabric.js 4.3.1</desc>
<defs>
</defs>
<g transform="matrix(1 0 0 1 394 114.5)"  >
<path style="stroke: rgb(0,0,0); stroke-width: 3; stroke-dasharray: none; stroke-linecap: round; stroke-dashoffset: 0; stroke-linejoin: round; stroke-miterlimit: 10; fill: none; fill-rule: nonzero; opacity: 1;"  transform=" translate(-394, -114.5)" d="M 393.997 114.5 L 394.003 114.5" stroke-linecap="round" />
</g>
<g transform="matrix(1 0 0 1 75 54.5)"  >
<path style="stroke: rgb(0,0,0); stroke-width: 3; stroke-dasharray: none; stroke-linecap: round; stroke-dashoffset: 0; stroke-linejoin: round; stroke-miterlimit: 10; fill: none; fill-rule: nonzero; opacity: 1;"  transform=" translate(-75, -54.5)" d="M 74 39.497 Q 74 39.5 75 44 Q 76 48.5 76 52 Q 76 55.5 76 59.5 Q 76 63.5 76 66.5 L 76 69.503" stroke-linecap="round" />
</g>
<g transform="matrix(1 0 0 1 68.5 48)"  >
<path style="stroke: rgb(0,0,0); stroke-width: 3; stroke-dasharray: none; stroke-linecap: round; stroke-dashoffset: 0; stroke-linejoin: round; stroke-miterlimit: 10; fill: none; fill-rule: nonzero; opacity: 1;"  transform=" translate(-68.5, -48)" d="M 59.997 38.497 Q 60 38.5 62 41 Q 64 43.5 66 45 Q 68 46.5 69.5 48 Q 71 49.5 72.5 51 Q 74 52.5 75.5 55 L 77.003 57.503" stroke-linecap="round" />
</g>
<g transform="matrix(1 0 0 1 110 53)"  >
<path style="stroke: rgb(0,0,0); stroke-width: 3; stroke-dasharray: none; stroke-linecap: round; stroke-dashoffset: 0; stroke-linejoin: round; stroke-miterlimit: 10; fill: none; fill-rule: nonzero; opacity: 1;"  transform=" translate(-110, -53)" d="M 101.997 53.5 Q 102 53.5 110 53 L 118.003 52.5" stroke-linecap="round" />
</g>
<g transform="matrix(1 0 0 1 113 63)"  >
<path style="stroke: rgb(0,0,0); stroke-width: 3; stroke-dasharray: none; stroke-linecap: round; stroke-dashoffset: 0; stroke-linejoin: round; stroke-miterlimit: 10; fill: none; fill-rule: nonzero; opacity: 1;"  transform=" translate(-113, -63)" d="M 108.997 63.503 Q 109 63.5 111 63.5 Q 113 63.5 115 63 L 117.003 62.497" stroke-linecap="round" />
</g>
<g transform="matrix(1 0 0 1 158 45.6)"  >
<path style="stroke: rgb(0,0,0); stroke-width: 3; stroke-dasharray: none; stroke-linecap: round; stroke-dashoffset: 0; stroke-linejoin: round; stroke-miterlimit: 10; fill: none; fill-rule: nonzero; opacity: 1;"  transform=" translate(-158, -45.6)" d="M 167.003 18.497 Q 167 18.5 165 17 Q 163 15.5 160.5 16 Q 158 16.5 155.5 18 Q 153 19.5 151.5 21.5 Q 150 23.5 149.5 26 Q 149 28.5 149 31 Q 149 33.5 150 36.5 Q 151 39.5 152.5 42.5 Q 154 45.5 155 50 Q 156 54.5 156.5 59 Q 157 63.5 156.5 67 Q 156 70.5 155 73 L 153.997 75.503" stroke-linecap="round" />
</g>
<g transform="matrix(1 0 0 1 150 44)"  >
<path style="stroke: rgb(0,0,0); stroke-width: 3; stroke-dasharray: none; stroke-linecap: round; stroke-dashoffset: 0; stroke-linejoin: round; stroke-miterlimit: 10; fill: none; fill-rule: nonzero; opacity: 1;"  transform=" translate(-150, -44)" d="M 140.997 45.5 Q 141 45.5 143.5 44 Q 146 42.5 149.5 42.5 Q 153 42.5 156 42.5 L 159.003 42.5" stroke-linecap="round" />
</g>
<g transform="matrix(1 0 0 1 186.09 45)"  >
<path style="stroke: rgb(0,0,0); stroke-width: 3; stroke-dasharray: none; stroke-linecap: round; stroke-dashoffset: 0; stroke-linejoin: round; stroke-miterlimit: 10; fill: none; fill-rule: nonzero; opacity: 1;"  transform=" translate(-186.09, -45)" d="M 199.003 13.497 Q 199 13.5 196.5 13.5 Q 194 13.5 192.5 15 Q 191 16.5 188 19.5 Q 185 22.5 182 26 Q 179 29.5 177 33.5 Q 175 37.5 174 41 Q 173 44.5 173.5 50 Q 174 55.5 176 59.5 Q 178 63.5 181.5 67 Q 185 70.5 188 73.5 L 191.003 76.503" stroke-linecap="round" />
</g>
<g transform="matrix(1 0 0 1 218.75 50.13)"  >
<path style="stroke: rgb(0,0,0); stroke-width: 3; stroke-dasharray: none; stroke-linecap: round; stroke-dashoffset: 0; stroke-linejoin: round; stroke-miterlimit: 10; fill: none; fill-rule: nonzero; opacity: 1;"  transform=" translate(-218.75, -50.13)" d="M 204.997 36.497 Q 205 36.5 203 36 Q 201 35.5 203 39 Q 205 42.5 208.5 46 Q 212 49.5 217 52.5 Q 222 55.5 226 58 Q 230 60.5 233 62.5 L 236.003 64.503" stroke-linecap="round" />
</g>
<g transform="matrix(1 0 0 1 223 61)"  >
<path style="stroke: rgb(0,0,0); stroke-width: 3; stroke-dasharray: none; stroke-linecap: round; stroke-dashoffset: 0; stroke-linejoin: round; stroke-miterlimit: 10; fill: none; fill-rule: nonzero; opacity: 1;"  transform=" translate(-223, -61)" d="M 235.003 49.497 Q 235 49.5 232.5 50 Q 230 50.5 226 55 Q 222 59.5 219 63.5 Q 216 67.5 213.5 70 L 210.997 72.503" stroke-linecap="round" />
</g>
<g transform="matrix(1 0 0 1 255.89 44)"  >
<path style="stroke: rgb(0,0,0); stroke-width: 3; stroke-dasharray: none; stroke-linecap: round; stroke-dashoffset: 0; stroke-linejoin: round; stroke-miterlimit: 10; fill: none; fill-rule: nonzero; opacity: 1;"  transform=" translate(-255.89, -44)" d="M 245.997 13.497 Q 246 13.5 249.5 14 Q 253 14.5 256 16.5 Q 259 18.5 262 22 Q 265 25.5 266.5 30 Q 268 34.5 268.5 39.5 Q 269 44.5 267 50 Q 265 55.5 261 60.5 Q 257 65.5 253 68.5 Q 249 71.5 246 73 L 242.997 74.503" stroke-linecap="round" />
</g>
<g transform="matrix(1 0 0 1 56 174.5)"  >
<path style="stroke: rgb(0,0,0); stroke-width: 3; stroke-dasharray: none; stroke-linecap: round; stroke-dashoffset: 0; stroke-linejoin: round; stroke-miterlimit: 10; fill: none; fill-rule: nonzero; opacity: 1;"  transform=" translate(-56, -174.5)" d="M 55.997 174.5 L 56.003 174.5" stroke-linecap="round" />
</g>
<g transform="matrix(1 0 0 1 76 160)"  >
<path style="stroke: rgb(0,0,0); stroke-width: 3; stroke-dasharray: none; stroke-linecap: round; stroke-dashoffset: 0; stroke-linejoin: round; stroke-miterlimit: 10; fill: none; fill-rule: nonzero; opacity: 1;"  transform=" translate(-76, -160)" d="M 65.997 148.497 Q 66 148.5 66 151 Q 66 153.5 67.5 155 Q 69 156.5 70.5 158 Q 72 159.5 74 161 Q 76 162.5 78 164 Q 80 165.5 81.5 167 Q 83 168.5 84.5 170 L 86.003 171.503" stroke-linecap="round" />
</g>
<g transform="matrix(1 0 0 1 76.5 152.5)"  >
<path style="stroke: rgb(0,0,0); stroke-width: 3; stroke-dasharray: none; stroke-linecap: round; stroke-dashoffset: 0; stroke-linejoin: round; stroke-miterlimit: 10; fill: none; fill-rule: nonzero; opacity: 1;"  transform=" translate(-76.5, -152.5)" d="M 85.003 143.497 Q 85 143.5 82 145 Q 79 146.5 76.5 149 Q 74 151.5 72 154.5 Q 70 157.5 69 159.5 L 67.997 161.503" stroke-linecap="round" />
</g>
<g transform="matrix(1 0 0 1 99.5 174.5)"  >
<path style="stroke: rgb(0,0,0); stroke-width: 3; stroke-dasharray: none; stroke-linecap: round; stroke-dashoffset: 0; stroke-linejoin: round; stroke-miterlimit: 10; fill: none; fill-rule: nonzero; opacity: 1;"  transform=" translate(-99.5, -174.5)" d="M 100 170.497 Q 100 170.5 99.5 172.5 Q 99 174.5 99 176.5 L 99 178.503" stroke-linecap="round" />
</g>
<g transform="matrix(1 0 0 1 104 161.5)"  >
<path style="stroke: rgb(0,0,0); stroke-width: 3; stroke-dasharray: none; stroke-linecap: round; stroke-dashoffset: 0; stroke-linejoin: round; stroke-miterlimit: 10; fill: none; fill-rule: nonzero; opacity: 1;"  transform=" translate(-104, -161.5)" d="M 103.997 161.5 L 104.003 161.5" stroke-linecap="round" />
</g>
<g transform="matrix(1 0 0 1 121.35 179)"  >
<path style="stroke: rgb(0,0,0); stroke-width: 3; stroke-dasharray: none; stroke-linecap: round; stroke-dashoffset: 0; stroke-linejoin: round; stroke-miterlimit: 10; fill: none; fill-rule: nonzero; opacity: 1;"  transform=" translate(-121.35, -179)" d="M 121.003 174.497 Q 121 174.5 122 176.5 Q 123 178.5 121.5 181 L 119.997 183.503" stroke-linecap="round" />
</g>
<g transform="matrix(1 0 0 1 148.5 154.5)"  >
<path style="stroke: rgb(0,0,0); stroke-width: 3; stroke-dasharray: none; stroke-linecap: round; stroke-dashoffset: 0; stroke-linejoin: round; stroke-miterlimit: 10; fill: none; fill-rule: nonzero; opacity: 1;"  transform=" translate(-148.5, -154.5)" d="M 142 142.497 Q 142 142.5 141.5 144.5 Q 141 146.5 141 148.5 Q 141 150.5 141 152.5 Q 141 154.5 142.5 157 Q 144 159.5 145.5 161 Q 147 162.5 149.5 163.5 Q 152 164.5 154 165.5 L 156.003 166.503" stroke-linecap="round" />
</g>
<g transform="matrix(1 0 0 1 153 157.5)"  >
<path style="stroke: rgb(0,0,0); stroke-width: 3; stroke-dasharray: none; stroke-linecap: round; stroke-dashoffset: 0; stroke-linejoin: round; stroke-miterlimit: 10; fill: none; fill-rule: nonzero; opacity: 1;"  transform=" translate(-153, -157.5)" d="M 167.003 137.497 Q 167 137.5 164.5 138.5 Q 162 139.5 160.5 142 Q 159 144.5 156.5 147.5 Q 154 150.5 151.5 154.5 Q 149 158.5 147 163 Q 145 167.5 143 170.5 Q 141 173.5 140 175.5 L 138.997 177.503" stroke-linecap="round" />
</g>
<g transform="matrix(1 0 0 1 160.5 176.5)"  >
<path style="stroke: rgb(0,0,0); stroke-width: 3; stroke-dasharray: none; stroke-linecap: round; stroke-dashoffset: 0; stroke-linejoin: round; stroke-miterlimit: 10; fill: none; fill-rule: nonzero; opacity: 1;"  transform=" translate(-160.5, -176.5)" d="M 164.003 171.497 Q 164 171.5 161.5 172.5 Q 159 173.5 158 175.5 Q 157 177.5 157 179.5 L 157 181.503" stroke-linecap="round" />
</g>
<g transform="matrix(1 0 0 1 167 157.5)"  >
<path style="stroke: rgb(0,0,0); stroke-width: 3; stroke-dasharray: none; stroke-linecap: round; stroke-dashoffset: 0; stroke-linejoin: round; stroke-miterlimit: 10; fill: none; fill-rule: nonzero; opacity: 1;"  transform=" translate(-167, -157.5)" d="M 166.997 157.5 L 167.003 157.5" stroke-linecap="round" />
</g>
<g transform="matrix(1 0 0 1 207.5 153.5)"  >
<path style="stroke: rgb(0,0,0); stroke-width: 3; stroke-dasharray: none; stroke-linecap: round; stroke-dashoffset: 0; stroke-linejoin: round; stroke-miterlimit: 10; fill: none; fill-rule: nonzero; opacity: 1;"  transform=" translate(-207.5, -153.5)" d="M 195.997 152.497 Q 196 152.5 200.5 153 Q 205 153.5 207 154 Q 209 154.5 211.5 154.5 Q 214 154.5 216.5 154.5 L 219.003 154.5" stroke-linecap="round" />
</g>
<g transform="matrix(1 0 0 1 236.5 155.5)"  >
<path style="stroke: rgb(0,0,0); stroke-width: 3; stroke-dasharray: none; stroke-linecap: round; stroke-dashoffset: 0; stroke-linejoin: round; stroke-miterlimit: 10; fill: none; fill-rule: nonzero; opacity: 1;"  transform=" translate(-236.5, -155.5)" d="M 219.997 136.497 Q 220 136.5 222.5 138.5 Q 225 140.5 227.5 142 Q 230 143.5 234 144.5 Q 238 145.5 241.5 147 Q 245 148.5 247.5 150 Q 250 151.5 251.5 153.5 Q 253 155.5 253 158.5 Q 253 161.5 252 164 Q 251 166.5 249 168.5 Q 247 170.5 245 172.5 L 242.997 174.503" stroke-linecap="round" />
</g>
<g transform="matrix(1 0 0 1 281.11 164.5)"  >
<path style="stroke: rgb(0,0,0); stroke-width: 3; stroke-dasharray: none; stroke-linecap: round; stroke-dashoffset: 0; stroke-linejoin: round; stroke-miterlimit: 10; fill: none; fill-rule: nonzero; opacity: 1;"  transform=" translate(-281.11, -164.5)" d="M 299.003 106.497 Q 299 106.5 285 109.5 Q 271 112.5 269 113.5 Q 267 114.5 265 117.5 Q 263 120.5 263.5 123.5 Q 264 126.5 265 130 Q 266 133.5 267 137.5 Q 268 141.5 269.5 145.5 Q 271 149.5 273 155 Q 275 160.5 276.5 166 Q 278 171.5 278.5 177.5 Q 279 183.5 278.5 189.5 Q 278 195.5 277 200.5 Q 276 205.5 275 209.5 Q 274 213.5 274 216 Q 274 218.5 274.5 220.5 L 275.003 222.503" stroke-linecap="round" />
</g>
<g transform="matrix(1 0 0 1 360.44 164.5)"  >
<path style="stroke: rgb(0,0,0); stroke-width: 3; stroke-dasharray: none; stroke-linecap: round; stroke-dashoffset: 0; stroke-linejoin: round; stroke-miterlimit: 10; fill: none; fill-rule: nonzero; opacity: 1;"  transform=" translate(-360.44, -164.5)" d="M 277.997 104.497 Q 278 104.5 278.5 107 Q 279 109.5 281.5 110 Q 284 110.5 290 111 Q 296 111.5 304 111.5 Q 312 111.5 321.5 111.5 Q 331 111.5 340.5 111.5 Q 350 111.5 358.5 111 Q 367 110.5 375 110.5 Q 383 110.5 389 110 Q 395 109.5 400 109 Q 405 108.5 409 108 Q 413 107.5 416.5 107 Q 420 106.5 422 106.5 Q 424 106.5 425.5 108 Q 427 109.5 427.5 111.5 Q 428 113.5 428.5 117 Q 429 120.5 429.5 125.5 Q 430 130.5 430 136.5 Q 430 142.5 430.5 148.5 Q 431 154.5 432.5 161.5 Q 434 168.5 435.5 176 Q 437 183.5 438 189.5 Q 439 195.5 440.5 200.5 Q 442 205.5 442.5 209.5 Q 443 213.5 442.5 216 Q 442 218.5 439.5 220 Q 437 221.5 432.5 220.5 Q 428 219.5 420.5 218.5 Q 413 217.5 402 217.5 Q 391 217.5 379 218.5 Q 367 219.5 356.5 220.5 Q 346 221.5 335 223 Q 324 224.5 317 224.5 Q 310 224.5 303 224.5 L 295.997 224.5" stroke-linecap="round" />
</g>
<g transform="matrix(1 0 0 1 348.5 161.22)"  >
<path style="stroke: rgb(0,0,0); stroke-width: 3; stroke-dasharray: none; stroke-linecap: round; stroke-dashoffset: 0; stroke-linejoin: round; stroke-miterlimit: 10; fill: none; fill-rule: nonzero; opacity: 1;"  transform=" translate(-348.5, -161.22)" d="M 303.997 192.503 Q 304 192.5 317.5 189.5 Q 331 186.5 335 182.5 Q 339 178.5 341 175 Q 343 171.5 344.5 167 Q 346 162.5 347.5 157.5 Q 349 152.5 349.5 147 Q 350 141.5 350.5 137 Q 351 132.5 351.5 129.5 Q 352 126.5 353 124.5 Q 354 122.5 357 124 Q 360 125.5 361.5 129 Q 363 132.5 364.5 138 Q 366 143.5 367.5 149 Q 369 154.5 370 160.5 Q 371 166.5 372 173 Q 373 179.5 374.5 184.5 Q 376 189.5 378.5 192.5 Q 381 195.5 384 197 Q 387 198.5 390 199 L 393.003 199.503" stroke-linecap="round" />
</g>
<g transform="matrix(1 0 0 1 345.5 167)"  >
<path style="stroke: rgb(0,0,0); stroke-width: 3; stroke-dasharray: none; stroke-linecap: round; stroke-dashoffset: 0; stroke-linejoin: round; stroke-miterlimit: 10; fill: none; fill-rule: nonzero; opacity: 1;"  transform=" translate(-345.5, -167)" d="M 334.997 168.5 Q 335 168.5 337.5 168 Q 340 167.5 344 167.5 Q 348 167.5 352 166.5 L 356.003 165.497" stroke-linecap="round" />
</g>
<g transform="matrix(1 0 0 1 447 157.5)"  >
<path style="stroke: rgb(0,0,0); stroke-width: 3; stroke-dasharray: none; stroke-linecap: round; stroke-dashoffset: 0; stroke-linejoin: round; stroke-miterlimit: 10; fill: none; fill-rule: nonzero; opacity: 1;"  transform=" translate(-447, -157.5)" d="M 432.997 158.5 Q 433 158.5 435 158 Q 437 157.5 440.5 157.5 Q 444 157.5 448.5 157 Q 453 156.5 457 156.5 L 461.003 156.5" stroke-linecap="round" />
</g>
<g transform="matrix(1 0 0 1 490.91 158.5)"  >
<path style="stroke: rgb(0,0,0); stroke-width: 3; stroke-dasharray: none; stroke-linecap: round; stroke-dashoffset: 0; stroke-linejoin: round; stroke-miterlimit: 10; fill: none; fill-rule: nonzero; opacity: 1;"  transform=" translate(-490.91, -158.5)" d="M 473.997 137.497 Q 474 137.5 479 138 Q 484 138.5 488.5 140 Q 493 141.5 496.5 143 Q 500 144.5 503.5 147 Q 507 149.5 507.5 153 Q 508 156.5 507 160 Q 506 163.5 503 166.5 Q 500 169.5 496 173 Q 492 176.5 489 178 L 485.997 179.503" stroke-linecap="round" />
</g>
<g transform="matrix(1 0 0 1 559.37 146.59)"  >
<path style="stroke: rgb(0,0,0); stroke-width: 3; stroke-dasharray: none; stroke-linecap: round; stroke-dashoffset: 0; stroke-linejoin: round; stroke-miterlimit: 10; fill: none; fill-rule: nonzero; opacity: 1;"  transform=" translate(-559.37, -146.59)" d="M 570.003 121.503 Q 570 121.5 570.5 119.5 Q 571 117.5 568 116.5 Q 565 115.5 562.5 116 Q 560 116.5 557.5 118 Q 555 119.5 553.5 121 Q 552 122.5 551.5 125 Q 551 127.5 551 130.5 Q 551 133.5 552 136 Q 553 138.5 554 142 Q 555 145.5 555.5 149.5 Q 556 153.5 556 157.5 Q 556 161.5 555.5 165.5 Q 555 169.5 553.5 172 Q 552 174.5 550 176 L 547.997 177.503" stroke-linecap="round" />
</g>
<g transform="matrix(1 0 0 1 554.5 148)"  >
<path style="stroke: rgb(0,0,0); stroke-width: 3; stroke-dasharray: none; stroke-linecap: round; stroke-dashoffset: 0; stroke-linejoin: round; stroke-miterlimit: 10; fill: none; fill-rule: nonzero; opacity: 1;"  transform=" translate(-554.5, -148)" d="M 542.997 149.503 Q 543 149.5 548 148.5 Q 553 147.5 556.5 147 Q 560 146.5 563 146.5 L 566.003 146.5" stroke-linecap="round" />
</g>
<g transform="matrix(1 0 0 1 563 103.6)"  >
<path style="stroke: rgb(0,0,0); stroke-width: 3; stroke-dasharray: none; stroke-linecap: round; stroke-dashoffset: 0; stroke-linejoin: round; stroke-miterlimit: 10; fill: none; fill-rule: nonzero; opacity: 1;"  transform=" translate(-563, -103.6)" d="M 548.997 107.503 Q 549 107.5 550.5 104 Q 552 100.5 553.5 99 Q 555 97.5 556.5 96 Q 558 94.5 560.5 93 Q 563 91.5 565 92 Q 567 92.5 568.5 95 Q 570 97.5 571 101 Q 572 104.5 573 108 Q 574 111.5 575.5 113.5 L 577.003 115.503" stroke-linecap="round" />
</g>
</svg>