<?xml version="1.0" encoding="UTF-8" standalone="no" ?>
<!DOCTYPE svg PUBLIC "-//W3C//DTD SVG 1.1//EN" "http://www.w3.org/Graphics/SVG/1.1/DTD/svg11.dtd">
<svg xmlns="http://www.w3.org/2000/svg" xmlns:xlink="http://www.w3.org/1999/xlink" version="1.1" width="864" height="456" viewBox="0 0 864 456" xml:space="preserve">
<desc>Created with Fabric.js 4.3.1</desc>
<defs>
</defs>
<g transform="matrix(1 0 0 1 156 71.5)"  >
<path style="stroke: rgb(0,0,0); stroke-width: 3; stroke-dasharray: none; stroke-linecap: round; stroke-dashoffset: 0; stroke-linejoin: round; stroke-miterlimit: 10; fill: none; fill-rule: nonzero; opacity: 1;"  transform=" translate(-156, -71.5)" d="M 143.997 58.497 Q 144 58.5 147.5 62 Q 151 65.5 153.5 67.5 Q 156 69.5 159 72.5 Q 162 75.5 164 78 Q 166 80.5 167 82.5 L 168.003 84.503" stroke-linecap="round" />
</g>
<g transform="matrix(1 0 0 1 157.5 71.5)"  >
<path style="stroke: rgb(0,0,0); stroke-width: 3; stroke-dasharray: none; stroke-linecap: round; stroke-dashoffset: 0; stroke-linejoin: round; stroke-miterlimit: 10; fill: none; fill-rule: nonzero; opacity: 1;"  transform=" translate(-157.5, -71.5)" d="M 170.003 58.497 Q 170 58.5 167 61 Q 164 63.5 161.5 66 Q 159 68.5 156 72 Q 153 75.5 150.5 78.5 Q 148 81.5 146.5 83 L 144.997 84.503" stroke-linecap="round" />
</g>
<g transform="matrix(1 0 0 1 185 78.5)"  >
<path style="stroke: rgb(0,0,0); stroke-width: 3; stroke-dasharray: none; stroke-linecap: round; stroke-dashoffset: 0; stroke-linejoin: round; stroke-miterlimit: 10; fill: none; fill-rule: nonzero; opacity: 1;"  transform=" translate(-185, -78.5)" d="M 184.997 78.5 L 185.003 78.5" stroke-linecap="round" />
</g>
<g transform="matrix(1 0 0 1 181.57 80)"  >
<path style="stroke: rgb(0,0,0); stroke-width: 3; stroke-dasharray: none; stroke-linecap: round; stroke-dashoffset: 0; stroke-linejoin: round; stroke-miterlimit: 10; fill: none; fill-rule: nonzero; opacity: 1;"  transform=" translate(-181.56, -80)" d="M 181.997 75.497 Q 182 75.5 181.5 78 Q 181 80.5 181.5 82.5 L 182.003 84.503" stroke-linecap="round" />
</g>
<g transform="matrix(1 0 0 1 159.5 126)"  >
<path style="stroke: rgb(0,0,0); stroke-width: 3; stroke-dasharray: none; stroke-linecap: round; stroke-dashoffset: 0; stroke-linejoin: round; stroke-miterlimit: 10; fill: none; fill-rule: nonzero; opacity: 1;"  transform=" translate(-159.5, -126)" d="M 148.997 113.497 Q 149 113.5 149.5 115.5 Q 150 117.5 151.5 119.5 Q 153 121.5 155 124 Q 157 126.5 159.5 128.5 Q 162 130.5 164 132.5 Q 166 134.5 168 136.5 L 170.003 138.503" stroke-linecap="round" />
</g>
<g transform="matrix(1 0 0 1 161.5 128.5)"  >
<path style="stroke: rgb(0,0,0); stroke-width: 3; stroke-dasharray: none; stroke-linecap: round; stroke-dashoffset: 0; stroke-linejoin: round; stroke-miterlimit: 10; fill: none; fill-rule: nonzero; opacity: 1;"  transform=" translate(-161.5, -128.5)" d="M 170.003 118.497 Q 170 118.5 167 121 Q 164 123.5 161.5 126.5 Q 159 129.5 157 132 Q 155 134.5 154 136.5 L 152.997 138.503" stroke-linecap="round" />
</g>
<g transform="matrix(1 0 0 1 186 140.21)"  >
<path style="stroke: rgb(0,0,0); stroke-width: 3; stroke-dasharray: none; stroke-linecap: round; stroke-dashoffset: 0; stroke-linejoin: round; stroke-miterlimit: 10; fill: none; fill-rule: nonzero; opacity: 1;"  transform=" translate(-186, -140.21)" d="M 177.997 130.497 Q 178 130.5 180 129.5 Q 182 128.5 182.5 132 Q 183 135.5 182.5 137.5 Q 182 139.5 181.5 143 Q 181 146.5 182 149 Q 183 151.5 186 151.5 Q 189 151.5 191.5 151 L 194.003 150.497" stroke-linecap="round" />
</g>
<g transform="matrix(1 0 0 1 165.5 170)"  >
<path style="stroke: rgb(0,0,0); stroke-width: 3; stroke-dasharray: none; stroke-linecap: round; stroke-dashoffset: 0; stroke-linejoin: round; stroke-miterlimit: 10; fill: none; fill-rule: nonzero; opacity: 1;"  transform=" translate(-165.5, -170)" d="M 157.997 161.497 Q 158 161.5 159 163.5 Q 160 165.5 161.5 167 Q 163 168.5 166.5 172 Q 170 175.5 171.5 177 L 173.003 178.503" stroke-linecap="round" />
</g>
<g transform="matrix(1 0 0 1 170 180.5)"  >
<path style="stroke: rgb(0,0,0); stroke-width: 3; stroke-dasharray: none; stroke-linecap: round; stroke-dashoffset: 0; stroke-linejoin: round; stroke-miterlimit: 10; fill: none; fill-rule: nonzero; opacity: 1;"  transform=" translate(-170, -180.5)" d="M 178.003 165.497 Q 178 165.5 176 169 Q 174 172.5 171.5 177 Q 169 181.5 167 185 Q 165 188.5 163.5 192 L 161.997 195.503" stroke-linecap="round" />
</g>
<g transform="matrix(1 0 0 1 178 188)"  >
<path style="stroke: rgb(0,0,0); stroke-width: 3; stroke-dasharray: none; stroke-linecap: round; stroke-dashoffset: 0; stroke-linejoin: round; stroke-miterlimit: 10; fill: none; fill-rule: nonzero; opacity: 1;"  transform=" translate(-178, -188)" d="M 172.997 188.5 Q 173 188.5 178 188 L 183.003 187.5" stroke-linecap="round" />
</g>
<g transform="matrix(1 0 0 1 178.5 181.5)"  >
<path style="stroke: rgb(0,0,0); stroke-width: 3; stroke-dasharray: none; stroke-linecap: round; stroke-dashoffset: 0; stroke-linejoin: round; stroke-miterlimit: 10; fill: none; fill-rule: nonzero; opacity: 1;"  transform=" translate(-178.5, -181.5)" d="M 166.997 170.497 Q 167 170.5 172 172 Q 177 173.5 178.5 175 Q 180 176.5 182 178 Q 184 179.5 185.5 182 Q 187 184.5 188 186.5 Q 189 188.5 189.5 190.5 L 190.003 192.503" stroke-linecap="round" />
</g>
<g transform="matrix(1 0 0 1 200 191.5)"  >
<path style="stroke: rgb(0,0,0); stroke-width: 3; stroke-dasharray: none; stroke-linecap: round; stroke-dashoffset: 0; stroke-linejoin: round; stroke-miterlimit: 10; fill: none; fill-rule: nonzero; opacity: 1;"  transform=" translate(-200, -191.5)" d="M 199.997 191.5 L 200.003 191.5" stroke-linecap="round" />
</g>
<g transform="matrix(1 0 0 1 360 40.11)"  >
<path style="stroke: rgb(0,0,0); stroke-width: 3; stroke-dasharray: none; stroke-linecap: round; stroke-dashoffset: 0; stroke-linejoin: round; stroke-miterlimit: 10; fill: none; fill-rule: nonzero; opacity: 1;"  transform=" translate(-360, -40.11)" d="M 377.003 30.5 Q 377 30.5 373 25.5 Q 369 20.5 367 20.5 Q 365 20.5 362 20 Q 359 19.5 355.5 21.5 Q 352 23.5 350 26 Q 348 28.5 346.5 31.5 Q 345 34.5 344 39.5 Q 343 44.5 343 48.5 Q 343 52.5 345 55.5 Q 347 58.5 350 59.5 Q 353 60.5 356.5 60.5 Q 360 60.5 363.5 59 Q 367 57.5 369.5 55 Q 372 52.5 374 49.5 Q 376 46.5 376.5 44 Q 377 41.5 376 38.5 Q 375 35.5 373.5 33.5 L 371.997 31.497" stroke-linecap="round" />
</g>
<g transform="matrix(1 0 0 1 354.52 119.9)"  >
<path style="stroke: rgb(0,0,0); stroke-width: 3; stroke-dasharray: none; stroke-linecap: round; stroke-dashoffset: 0; stroke-linejoin: round; stroke-miterlimit: 10; fill: none; fill-rule: nonzero; opacity: 1;"  transform=" translate(-354.52, -119.9)" d="M 361.003 104.5 Q 361 104.5 357 98.5 Q 353 92.5 350 92.5 Q 347 92.5 343 97 Q 339 101.5 337.5 105 Q 336 108.5 335.5 113.5 Q 335 118.5 336 123.5 Q 337 128.5 339 133 Q 341 137.5 344.5 141 Q 348 144.5 352 146 Q 356 147.5 359.5 147 Q 363 146.5 365.5 143.5 Q 368 140.5 370.5 136.5 Q 373 132.5 373.5 128 Q 374 123.5 373.5 119.5 Q 373 115.5 370.5 112 Q 368 108.5 366 106.5 L 363.997 104.497" stroke-linecap="round" />
</g>
<g transform="matrix(1 0 0 1 360.11 199.07)"  >
<path style="stroke: rgb(0,0,0); stroke-width: 3; stroke-dasharray: none; stroke-linecap: round; stroke-dashoffset: 0; stroke-linejoin: round; stroke-miterlimit: 10; fill: none; fill-rule: nonzero; opacity: 1;"  transform=" translate(-360.11, -199.07)" d="M 376.003 183.503 Q 376 183.5 375.5 181.5 Q 375 179.5 372 174 Q 369 168.5 366.5 169.5 Q 364 170.5 362 172 Q 360 173.5 357.5 176.5 Q 355 179.5 351.5 185.5 Q 348 191.5 346 199 Q 344 206.5 344.5 212.5 Q 345 218.5 347.5 223 Q 350 227.5 353.5 228.5 Q 357 229.5 360.5 227.5 Q 364 225.5 366 222.5 Q 368 219.5 368.5 216 Q 369 212.5 369 209.5 Q 369 206.5 368 203 Q 367 199.5 365.5 196.5 L 363.997 193.497" stroke-linecap="round" />
</g>
<g transform="matrix(1 0 0 1 367.62 283.39)"  >
<path style="stroke: rgb(0,0,0); stroke-width: 3; stroke-dasharray: none; stroke-linecap: round; stroke-dashoffset: 0; stroke-linejoin: round; stroke-miterlimit: 10; fill: none; fill-rule: nonzero; opacity: 1;"  transform=" translate(-367.62, -283.39)" d="M 389.003 273.497 Q 389 273.5 378.5 270 Q 368 266.5 366 267 Q 364 267.5 360.5 270 Q 357 272.5 354 275.5 Q 351 278.5 349 281.5 Q 347 284.5 346.5 290 Q 346 295.5 348.5 298 Q 351 300.5 354.5 301 Q 358 301.5 362 299.5 Q 366 297.5 369.5 293.5 Q 373 289.5 375.5 285 Q 378 280.5 379 276.5 Q 380 272.5 379 269 L 377.997 265.497" stroke-linecap="round" />
</g>
<g transform="matrix(1 0 0 1 282 60)"  >
<path style="stroke: rgb(0,0,0); stroke-width: 3; stroke-dasharray: none; stroke-linecap: round; stroke-dashoffset: 0; stroke-linejoin: round; stroke-miterlimit: 10; fill: none; fill-rule: nonzero; opacity: 1;"  transform=" translate(-282, -60)" d="M 201.997 72.503 Q 202 72.5 227.5 71.5 Q 253 70.5 260.5 69.5 Q 268 68.5 275.5 67.5 Q 283 66.5 297 63 Q 311 59.5 322 56.5 Q 333 53.5 342 51.5 Q 351 49.5 356.5 48.5 L 362.003 47.497" stroke-linecap="round" />
</g>
<g transform="matrix(1 0 0 1 270.5 105.34)"  >
<path style="stroke: rgb(0,0,0); stroke-width: 3; stroke-dasharray: none; stroke-linecap: round; stroke-dashoffset: 0; stroke-linejoin: round; stroke-miterlimit: 10; fill: none; fill-rule: nonzero; opacity: 1;"  transform=" translate(-270.5, -105.34)" d="M 210.997 75.497 Q 211 75.5 206.5 72.5 Q 202 69.5 205.5 72 Q 209 74.5 213 76.5 Q 217 78.5 222 80.5 Q 227 82.5 232 84 Q 237 85.5 245 87.5 Q 253 89.5 260.5 92.5 Q 268 95.5 275.5 99 Q 283 102.5 290 106.5 Q 297 110.5 303.5 114 Q 310 117.5 316 121 Q 322 124.5 326.5 127.5 Q 331 130.5 333.5 133.5 Q 336 136.5 337 138.5 L 338.003 140.503" stroke-linecap="round" />
</g>
<g transform="matrix(1 0 0 1 278 138)"  >
<path style="stroke: rgb(0,0,0); stroke-width: 3; stroke-dasharray: none; stroke-linecap: round; stroke-dashoffset: 0; stroke-linejoin: round; stroke-miterlimit: 10; fill: none; fill-rule: nonzero; opacity: 1;"  transform=" translate(-278, -138)" d="M 203.997 77.497 Q 204 77.5 209 77.5 Q 214 77.5 216.5 80 Q 219 82.5 222 85.5 Q 225 88.5 229.5 93.5 Q 234 98.5 239 104 Q 244 109.5 249 114.5 Q 254 119.5 260 125 Q 266 130.5 272 135.5 Q 278 140.5 284 145.5 Q 290 150.5 296 156 Q 302 161.5 307 166 Q 312 170.5 317 174.5 Q 322 178.5 326 182 Q 330 185.5 334.5 188 Q 339 190.5 343 193 Q 347 195.5 349.5 197 L 352.003 198.503" stroke-linecap="round" />
</g>
<g transform="matrix(1 0 0 1 282 98)"  >
<path style="stroke: rgb(0,0,0); stroke-width: 3; stroke-dasharray: none; stroke-linecap: round; stroke-dashoffset: 0; stroke-linejoin: round; stroke-miterlimit: 10; fill: none; fill-rule: nonzero; opacity: 1;"  transform=" translate(-282, -98)" d="M 221.997 136.503 Q 222 136.5 241.5 123.5 Q 261 110.5 268 106 Q 275 101.5 282.5 97.5 Q 290 93.5 297 89 Q 304 84.5 310.5 80.5 Q 317 76.5 322.5 73 Q 328 69.5 332 67 Q 336 64.5 339 62 L 342.003 59.497" stroke-linecap="round" />
</g>
<g transform="matrix(1 0 0 1 290.69 173.61)"  >
<path style="stroke: rgb(0,0,0); stroke-width: 3; stroke-dasharray: none; stroke-linecap: round; stroke-dashoffset: 0; stroke-linejoin: round; stroke-miterlimit: 10; fill: none; fill-rule: nonzero; opacity: 1;"  transform=" translate(-290.69, -173.61)" d="M 227.997 137.497 Q 228 137.5 227 135.5 Q 226 133.5 228.5 134 Q 231 134.5 234 135 Q 237 135.5 242 138 Q 247 140.5 251.5 143 Q 256 145.5 260.5 148 Q 265 150.5 269.5 153.5 Q 274 156.5 278.5 160 Q 283 163.5 287 167 Q 291 170.5 295.5 174.5 Q 300 178.5 304 182 Q 308 185.5 312.5 189 Q 317 192.5 322 195 Q 327 197.5 331 199.5 Q 335 201.5 339.5 204 Q 344 206.5 347.5 208 Q 351 209.5 353 211.5 L 355.003 213.503" stroke-linecap="round" />
</g>
<g transform="matrix(1 0 0 1 281 228.5)"  >
<path style="stroke: rgb(0,0,0); stroke-width: 3; stroke-dasharray: none; stroke-linecap: round; stroke-dashoffset: 0; stroke-linejoin: round; stroke-miterlimit: 10; fill: none; fill-rule: nonzero; opacity: 1;"  transform=" translate(-281, -228.5)" d="M 208.997 176.497 Q 209 176.5 216 181 Q 223 185.5 229 189 Q 235 192.5 241.5 196.5 Q 248 200.5 251.5 203.5 Q 255 206.5 261 210.5 Q 267 214.5 272.5 219 Q 278 223.5 284 228 Q 290 232.5 296 237.5 Q 302 242.5 308 247.5 Q 314 252.5 320 256.5 Q 326 260.5 331 263.5 Q 336 266.5 340 269.5 Q 344 272.5 346.5 274.5 Q 349 276.5 351 278.5 L 353.003 280.503" stroke-linecap="round" />
</g>
<g transform="matrix(1 0 0 1 276.89 155)"  >
<path style="stroke: rgb(0,0,0); stroke-width: 3; stroke-dasharray: none; stroke-linecap: round; stroke-dashoffset: 0; stroke-linejoin: round; stroke-miterlimit: 10; fill: none; fill-rule: nonzero; opacity: 1;"  transform=" translate(-276.89, -155)" d="M 219.997 175.503 Q 220 175.5 224 174 Q 228 172.5 231 171.5 Q 234 170.5 238 169 Q 242 167.5 247 165 Q 252 162.5 257.5 159.5 Q 263 156.5 268.5 153.5 Q 274 150.5 280.5 148 Q 287 145.5 293.5 143 Q 300 140.5 306 139.5 Q 312 138.5 317.5 137 Q 323 135.5 326.5 135 Q 330 134.5 332 134.5 Q 334 134.5 333.5 137 L 332.997 139.503" stroke-linecap="round" />
</g>
<g transform="matrix(1 0 0 1 443 44.56)"  >
<path style="stroke: rgb(0,0,0); stroke-width: 3; stroke-dasharray: none; stroke-linecap: round; stroke-dashoffset: 0; stroke-linejoin: round; stroke-miterlimit: 10; fill: none; fill-rule: nonzero; opacity: 1;"  transform=" translate(-443, -44.56)" d="M 385.997 38.503 Q 386 38.5 388 39 Q 390 39.5 393 39 Q 396 38.5 400 38.5 Q 404 38.5 409 38 Q 414 37.5 420 38 Q 426 38.5 432.5 39.5 Q 439 40.5 446 42.5 Q 453 44.5 460 45.5 Q 467 46.5 472.5 47 Q 478 47.5 483.5 47.5 Q 489 47.5 492.5 48 Q 496 48.5 498 50 L 500.003 51.503" stroke-linecap="round" />
</g>
<g transform="matrix(1 0 0 1 425 122.5)"  >
<path style="stroke: rgb(0,0,0); stroke-width: 3; stroke-dasharray: none; stroke-linecap: round; stroke-dashoffset: 0; stroke-linejoin: round; stroke-miterlimit: 10; fill: none; fill-rule: nonzero; opacity: 1;"  transform=" translate(-425, -122.5)" d="M 380.997 128.503 Q 381 128.5 386.5 127 Q 392 125.5 395.5 125 Q 399 124.5 405.5 124 Q 412 123.5 418.5 122.5 Q 425 121.5 432 121 Q 439 120.5 446 119.5 Q 453 118.5 458 117.5 Q 463 116.5 466 116.5 L 469.003 116.5" stroke-linecap="round" />
</g>
<g transform="matrix(1 0 0 1 433.5 161.5)"  >
<path style="stroke: rgb(0,0,0); stroke-width: 3; stroke-dasharray: none; stroke-linecap: round; stroke-dashoffset: 0; stroke-linejoin: round; stroke-miterlimit: 10; fill: none; fill-rule: nonzero; opacity: 1;"  transform=" translate(-433.5, -161.5)" d="M 388.997 196.503 Q 389 196.5 392.5 194.5 Q 396 192.5 401 187.5 Q 406 182.5 407.5 181 Q 409 179.5 411 177.5 Q 413 175.5 419 170.5 Q 425 165.5 429.5 160.5 Q 434 155.5 438.5 151.5 Q 443 147.5 448.5 144 Q 454 140.5 459.5 137.5 Q 465 134.5 469 132 Q 473 129.5 475.5 128 L 478.003 126.497" stroke-linecap="round" />
</g>
<g transform="matrix(1 0 0 1 443 234.5)"  >
<path style="stroke: rgb(0,0,0); stroke-width: 3; stroke-dasharray: none; stroke-linecap: round; stroke-dashoffset: 0; stroke-linejoin: round; stroke-miterlimit: 10; fill: none; fill-rule: nonzero; opacity: 1;"  transform=" translate(-443, -234.5)" d="M 393.997 278.503 Q 394 278.5 399 268.5 Q 404 258.5 409.5 253 Q 415 247.5 418.5 244 Q 422 240.5 428 234.5 Q 434 228.5 442 221 Q 450 213.5 454.5 210 Q 459 206.5 465 202.5 Q 471 198.5 475.5 196 Q 480 193.5 483.5 192.5 Q 487 191.5 489.5 191 L 492.003 190.497" stroke-linecap="round" />
</g>
<g transform="matrix(1 0 0 1 513.13 53.85)"  >
<path style="stroke: rgb(0,0,0); stroke-width: 3; stroke-dasharray: none; stroke-linecap: round; stroke-dashoffset: 0; stroke-linejoin: round; stroke-miterlimit: 10; fill: none; fill-rule: nonzero; opacity: 1;"  transform=" translate(-513.13, -53.85)" d="M 527 54.503 Q 527 54.5 531 49.5 Q 535 44.5 535 41.5 Q 535 38.5 533.5 36.5 Q 532 34.5 529 33 Q 526 31.5 522.5 31 Q 519 30.5 515.5 30.5 Q 512 30.5 508.5 33 Q 505 35.5 501.5 40 Q 498 44.5 495.5 50 Q 493 55.5 492 61 Q 491 66.5 492 70.5 Q 493 74.5 496 76 Q 499 77.5 503 76.5 Q 507 75.5 511.5 73 Q 516 70.5 519 67.5 Q 522 64.5 524 61.5 Q 526 58.5 526 56 Q 526 53.5 526 50.5 Q 526 47.5 525 45 L 523.997 42.497" stroke-linecap="round" />
</g>
<g transform="matrix(1 0 0 1 507.13 125.62)"  >
<path style="stroke: rgb(0,0,0); stroke-width: 3; stroke-dasharray: none; stroke-linecap: round; stroke-dashoffset: 0; stroke-linejoin: round; stroke-miterlimit: 10; fill: none; fill-rule: nonzero; opacity: 1;"  transform=" translate(-507.13, -125.62)" d="M 522.003 114.497 Q 522 114.5 514 102 Q 506 89.5 502.5 90.5 Q 499 91.5 496 95.5 Q 493 99.5 491 106 Q 489 112.5 488 120.5 Q 487 128.5 488 136.5 Q 489 144.5 492 150.5 Q 495 156.5 499.5 159 Q 504 161.5 509 160.5 Q 514 159.5 517.5 156.5 Q 521 153.5 523.5 149.5 Q 526 145.5 526.5 142.5 Q 527 139.5 527 137 Q 527 134.5 526 132 L 524.997 129.497" stroke-linecap="round" />
</g>
<g transform="matrix(1 0 0 1 523.91 209.87)"  >
<path style="stroke: rgb(0,0,0); stroke-width: 3; stroke-dasharray: none; stroke-linecap: round; stroke-dashoffset: 0; stroke-linejoin: round; stroke-miterlimit: 10; fill: none; fill-rule: nonzero; opacity: 1;"  transform=" translate(-523.91, -209.87)" d="M 537.003 211.503 Q 537 211.5 532.5 202.5 Q 528 193.5 526 192 Q 524 190.5 519.5 193 Q 515 195.5 511.5 199 Q 508 202.5 506.5 206.5 Q 505 210.5 505 215.5 Q 505 220.5 507.5 224 Q 510 227.5 514 228.5 Q 518 229.5 522 228.5 Q 526 227.5 530.5 223.5 Q 535 219.5 538 215 Q 541 210.5 542 206.5 Q 543 202.5 542.5 200 Q 542 197.5 539 195.5 Q 536 193.5 532.5 192 L 528.997 190.497" stroke-linecap="round" />
</g>
<g transform="matrix(1 0 0 1 580 43)"  >
<path style="stroke: rgb(0,0,0); stroke-width: 3; stroke-dasharray: none; stroke-linecap: round; stroke-dashoffset: 0; stroke-linejoin: round; stroke-miterlimit: 10; fill: none; fill-rule: nonzero; opacity: 1;"  transform=" translate(-580, -43)" d="M 568.997 32.497 Q 569 32.5 574 36 Q 579 39.5 583.5 44 Q 588 48.5 589.5 51 L 591.003 53.503" stroke-linecap="round" />
</g>
<g transform="matrix(1 0 0 1 591.5 52.5)"  >
<path style="stroke: rgb(0,0,0); stroke-width: 3; stroke-dasharray: none; stroke-linecap: round; stroke-dashoffset: 0; stroke-linejoin: round; stroke-miterlimit: 10; fill: none; fill-rule: nonzero; opacity: 1;"  transform=" translate(-591.5, -52.5)" d="M 599.003 34.497 Q 599 34.5 597.5 36 Q 596 37.5 594.5 42.5 Q 593 47.5 590.5 53 Q 588 58.5 587 62.5 Q 586 66.5 585 68.5 L 583.997 70.503" stroke-linecap="round" />
</g>
<g transform="matrix(1 0 0 1 618.5 51)"  >
<path style="stroke: rgb(0,0,0); stroke-width: 3; stroke-dasharray: none; stroke-linecap: round; stroke-dashoffset: 0; stroke-linejoin: round; stroke-miterlimit: 10; fill: none; fill-rule: nonzero; opacity: 1;"  transform=" translate(-618.5, -51)" d="M 611.997 51.5 Q 612 51.5 618.5 51 L 625.003 50.5" stroke-linecap="round" />
</g>
<g transform="matrix(1 0 0 1 625 65)"  >
<path style="stroke: rgb(0,0,0); stroke-width: 3; stroke-dasharray: none; stroke-linecap: round; stroke-dashoffset: 0; stroke-linejoin: round; stroke-miterlimit: 10; fill: none; fill-rule: nonzero; opacity: 1;"  transform=" translate(-625, -65)" d="M 618.997 66.503 Q 619 66.5 621.5 65.5 Q 624 64.5 627.5 64 L 631.003 63.497" stroke-linecap="round" />
</g>
<g transform="matrix(1 0 0 1 656 49)"  >
<path style="stroke: rgb(0,0,0); stroke-width: 3; stroke-dasharray: none; stroke-linecap: round; stroke-dashoffset: 0; stroke-linejoin: round; stroke-miterlimit: 10; fill: none; fill-rule: nonzero; opacity: 1;"  transform=" translate(-656, -49)" d="M 657 29.497 Q 657 29.5 656 33 Q 655 36.5 655 39.5 Q 655 42.5 655.5 47.5 Q 656 52.5 656 57 Q 656 61.5 656.5 65 L 657.003 68.503" stroke-linecap="round" />
</g>
<g transform="matrix(1 0 0 1 588.5 124)"  >
<path style="stroke: rgb(0,0,0); stroke-width: 3; stroke-dasharray: none; stroke-linecap: round; stroke-dashoffset: 0; stroke-linejoin: round; stroke-miterlimit: 10; fill: none; fill-rule: nonzero; opacity: 1;"  transform=" translate(-588.5, -124)" d="M 577.997 113.497 Q 578 113.5 583.5 118.5 Q 589 123.5 591.5 126 Q 594 128.5 596.5 131.5 L 599.003 134.503" stroke-linecap="round" />
</g>
<g transform="matrix(1 0 0 1 603 133.5)"  >
<path style="stroke: rgb(0,0,0); stroke-width: 3; stroke-dasharray: none; stroke-linecap: round; stroke-dashoffset: 0; stroke-linejoin: round; stroke-miterlimit: 10; fill: none; fill-rule: nonzero; opacity: 1;"  transform=" translate(-603, -133.5)" d="M 610.003 118.497 Q 610 118.5 607 122.5 Q 604 126.5 603 129.5 Q 602 132.5 600 137 Q 598 141.5 597 145 L 595.997 148.503" stroke-linecap="round" />
</g>
<g transform="matrix(1 0 0 1 625.5 112.5)"  >
<path style="stroke: rgb(0,0,0); stroke-width: 3; stroke-dasharray: none; stroke-linecap: round; stroke-dashoffset: 0; stroke-linejoin: round; stroke-miterlimit: 10; fill: none; fill-rule: nonzero; opacity: 1;"  transform=" translate(-625.5, -112.5)" d="M 621.997 114.503 Q 622 114.5 623.5 113 Q 625 111.5 627 111 L 629.003 110.497" stroke-linecap="round" />
</g>
<g transform="matrix(1 0 0 1 622.5 132)"  >
<path style="stroke: rgb(0,0,0); stroke-width: 3; stroke-dasharray: none; stroke-linecap: round; stroke-dashoffset: 0; stroke-linejoin: round; stroke-miterlimit: 10; fill: none; fill-rule: nonzero; opacity: 1;"  transform=" translate(-622.5, -132)" d="M 616.997 134.503 Q 617 134.5 619.5 133 Q 622 131.5 625 130.5 L 628.003 129.497" stroke-linecap="round" />
</g>
<g transform="matrix(1 0 0 1 660.5 123.84)"  >
<path style="stroke: rgb(0,0,0); stroke-width: 3; stroke-dasharray: none; stroke-linecap: round; stroke-dashoffset: 0; stroke-linejoin: round; stroke-miterlimit: 10; fill: none; fill-rule: nonzero; opacity: 1;"  transform=" translate(-660.5, -123.84)" d="M 647.997 113.497 Q 648 113.5 653 109.5 Q 658 105.5 661 107.5 Q 664 109.5 665.5 111 Q 667 112.5 668 116 Q 669 119.5 669 122.5 Q 669 125.5 667.5 129 Q 666 132.5 663.5 134.5 Q 661 136.5 659 137 Q 657 137.5 657 135.5 Q 657 133.5 660.5 135 Q 664 136.5 666 138 Q 668 139.5 670.5 140.5 L 673.003 141.503" stroke-linecap="round" />
</g>
<g transform="matrix(1 0 0 1 590 195)"  >
<path style="stroke: rgb(0,0,0); stroke-width: 3; stroke-dasharray: none; stroke-linecap: round; stroke-dashoffset: 0; stroke-linejoin: round; stroke-miterlimit: 10; fill: none; fill-rule: nonzero; opacity: 1;"  transform=" translate(-590, -195)" d="M 582.997 187.497 Q 583 187.5 586 190.5 Q 589 193.5 593 198 L 597.003 202.503" stroke-linecap="round" />
</g>
<g transform="matrix(1 0 0 1 610 213.5)"  >
<path style="stroke: rgb(0,0,0); stroke-width: 3; stroke-dasharray: none; stroke-linecap: round; stroke-dashoffset: 0; stroke-linejoin: round; stroke-miterlimit: 10; fill: none; fill-rule: nonzero; opacity: 1;"  transform=" translate(-610, -213.5)" d="M 614.003 192.497 Q 614 192.5 613 195.5 Q 612 198.5 611 203.5 Q 610 208.5 609 214 Q 608 219.5 607 224 Q 606 228.5 606 231.5 L 606 234.503" stroke-linecap="round" />
</g>
<g transform="matrix(1 0 0 1 631.5 201)"  >
<path style="stroke: rgb(0,0,0); stroke-width: 3; stroke-dasharray: none; stroke-linecap: round; stroke-dashoffset: 0; stroke-linejoin: round; stroke-miterlimit: 10; fill: none; fill-rule: nonzero; opacity: 1;"  transform=" translate(-631.5, -201)" d="M 627.997 201.5 Q 628 201.5 631.5 201 L 635.003 200.5" stroke-linecap="round" />
</g>
<g transform="matrix(1 0 0 1 639 218)"  >
<path style="stroke: rgb(0,0,0); stroke-width: 3; stroke-dasharray: none; stroke-linecap: round; stroke-dashoffset: 0; stroke-linejoin: round; stroke-miterlimit: 10; fill: none; fill-rule: nonzero; opacity: 1;"  transform=" translate(-639, -218)" d="M 634.997 217.5 Q 635 217.5 639 218 L 643.003 218.5" stroke-linecap="round" />
</g>
<g transform="matrix(1 0 0 1 680.16 213.09)"  >
<path style="stroke: rgb(0,0,0); stroke-width: 3; stroke-dasharray: none; stroke-linecap: round; stroke-dashoffset: 0; stroke-linejoin: round; stroke-miterlimit: 10; fill: none; fill-rule: nonzero; opacity: 1;"  transform=" translate(-680.16, -213.09)" d="M 658.997 195.503 Q 659 195.5 657 195 Q 655 194.5 659 193.5 Q 663 192.5 665 193 Q 667 193.5 668.5 196 Q 670 198.5 670 200.5 Q 670 202.5 671.5 204.5 Q 673 206.5 678 205.5 Q 683 204.5 689 204 Q 695 203.5 699 205 Q 703 206.5 704 209 Q 705 211.5 702.5 215.5 Q 700 219.5 696 223 Q 692 226.5 688.5 230 L 684.997 233.503" stroke-linecap="round" />
</g>
</svg>