<?xml version="1.0" encoding="UTF-8" standalone="no" ?>
<!DOCTYPE svg PUBLIC "-//W3C//DTD SVG 1.1//EN" "http://www.w3.org/Graphics/SVG/1.1/DTD/svg11.dtd">
<svg xmlns="http://www.w3.org/2000/svg" xmlns:xlink="http://www.w3.org/1999/xlink" version="1.1" width="864" height="456" viewBox="0 0 864 456" xml:space="preserve">
<desc>Created with Fabric.js 4.3.1</desc>
<defs>
</defs>
<g transform="matrix(1 0 0 1 433 239)"  >
<path style="stroke: rgb(0,0,0); stroke-width: 3; stroke-dasharray: none; stroke-linecap: round; stroke-dashoffset: 0; stroke-linejoin: round; stroke-miterlimit: 10; fill: none; fill-rule: nonzero; opacity: 1;"  transform=" translate(-433, -239)" d="M 250 62.497 Q 250 62.5 249 69 Q 248 75.5 248 80.5 Q 248 85.5 248 87.5 Q 248 89.5 248 95.5 Q 248 101.5 247.5 107.5 Q 247 113.5 247 120 Q 247 126.5 247 133.5 Q 247 140.5 246.5 146 Q 246 151.5 245.5 157 Q 245 162.5 244.5 168 Q 244 173.5 243.5 178 Q 243 182.5 242.5 186.5 Q 242 190.5 242 194 Q 242 197.5 242 200.5 Q 242 203.5 242 206 Q 242 208.5 242 211 Q 242 213.5 242 215.5 Q 242 217.5 242.5 219.5 Q 243 221.5 243 224 Q 243 226.5 243 230 Q 243 233.5 243 237 Q 243 240.5 242.5 244.5 Q 242 248.5 242 252.5 Q 242 256.5 241.5 260.5 Q 241 264.5 241 268.5 Q 241 272.5 241 277.5 Q 241 282.5 240.5 289 Q 240 295.5 239.5 302 Q 239 308.5 239 314.5 Q 239 320.5 238.5 326.5 Q 238 332.5 237 338 Q 236 343.5 235 349 Q 234 354.5 233.5 358.5 Q 233 362.5 232.5 366 Q 232 369.5 232 373 Q 232 376.5 232 379.5 Q 232 382.5 233 385.5 Q 234 388.5 237 390.5 Q 240 392.5 242 393.5 Q 244 394.5 246.5 395.5 Q 249 396.5 251 398 Q 253 399.5 255.5 400.5 Q 258 401.5 260.5 403 Q 263 404.5 266 405.5 Q 269 406.5 272 407.5 Q 275 408.5 278.5 409.5 Q 282 410.5 285.5 411.5 Q 289 412.5 292.5 413 Q 296 413.5 299.5 414 Q 303 414.5 307 415 Q 311 415.5 315 415.5 Q 319 415.5 323 415.5 Q 327 415.5 331 415.5 Q 335 415.5 339.5 415.5 Q 344 415.5 348.5 415.5 Q 353 415.5 357.5 415 Q 362 414.5 366.5 414.5 Q 371 414.5 376 414 Q 381 413.5 386.5 412.5 Q 392 411.5 398 410.5 Q 404 409.5 410 408 Q 416 406.5 422.5 404.5 Q 429 402.5 435.5 401.5 Q 442 400.5 448 399.5 Q 454 398.5 460 398 Q 466 397.5 472 397 Q 478 396.5 483.5 396 Q 489 395.5 494.5 395.5 Q 500 395.5 505 395.5 Q 510 395.5 515 395.5 Q 520 395.5 525.5 396 Q 531 396.5 536.5 396.5 Q 542 396.5 547 397 Q 552 397.5 558 397.5 Q 564 397.5 569.5 397.5 Q 575 397.5 580.5 397.5 Q 586 397.5 591 398 Q 596 398.5 600.5 399 Q 605 399.5 609.5 399.5 Q 614 399.5 617 400 Q 620 400.5 623 401 Q 626 401.5 628 401.5 Q 630 401.5 632 402 L 634.003 402.503" stroke-linecap="round" />
</g>
<g transform="matrix(1 0 0 1 452 352.5)"  >
<path style="stroke: rgb(78,78,243); stroke-width: 3; stroke-dasharray: none; stroke-linecap: round; stroke-dashoffset: 0; stroke-linejoin: round; stroke-miterlimit: 10; fill: none; fill-rule: nonzero; opacity: 1;"  transform=" translate(-452, -352.5)" d="M 451.997 352.5 L 452.003 352.5" stroke-linecap="round" />
</g>
<g transform="matrix(1 0 0 1 452 352)"  >
<path style="stroke: rgb(78,78,243); stroke-width: 3; stroke-dasharray: none; stroke-linecap: round; stroke-dashoffset: 0; stroke-linejoin: round; stroke-miterlimit: 10; fill: none; fill-rule: nonzero; opacity: 1;"  transform=" translate(-452, -352)" d="M 445.997 346.497 Q 446 346.5 448 348.5 Q 450 350.5 452.5 352.5 Q 455 354.5 456.5 356 L 458.003 357.503" stroke-linecap="round" />
</g>
<g transform="matrix(1 0 0 1 454 354)"  >
<path style="stroke: rgb(78,78,243); stroke-width: 3; stroke-dasharray: none; stroke-linecap: round; stroke-dashoffset: 0; stroke-linejoin: round; stroke-miterlimit: 10; fill: none; fill-rule: nonzero; opacity: 1;"  transform=" translate(-454, -354)" d="M 461.003 344.497 Q 461 344.5 459.5 346.5 Q 458 348.5 456.5 351 Q 455 353.5 453 356.5 Q 451 359.5 449 361.5 L 446.997 363.503" stroke-linecap="round" />
</g>
<g transform="matrix(1 0 0 1 509 279)"  >
<path style="stroke: rgb(78,78,243); stroke-width: 3; stroke-dasharray: none; stroke-linecap: round; stroke-dashoffset: 0; stroke-linejoin: round; stroke-miterlimit: 10; fill: none; fill-rule: nonzero; opacity: 1;"  transform=" translate(-509, -279)" d="M 501.997 272.497 Q 502 272.5 504 276 Q 506 279.5 508.5 281.5 Q 511 283.5 513.5 284.5 L 516.003 285.503" stroke-linecap="round" />
</g>
<g transform="matrix(1 0 0 1 508.5 280)"  >
<path style="stroke: rgb(78,78,243); stroke-width: 3; stroke-dasharray: none; stroke-linecap: round; stroke-dashoffset: 0; stroke-linejoin: round; stroke-miterlimit: 10; fill: none; fill-rule: nonzero; opacity: 1;"  transform=" translate(-508.5, -280)" d="M 525.003 264.497 Q 525 264.5 522 266 Q 519 267.5 517 271 Q 515 274.5 511 278.5 Q 507 282.5 502.5 286.5 Q 498 290.5 495 293 L 491.997 295.503" stroke-linecap="round" />
</g>
<g transform="matrix(1 0 0 1 573 254.5)"  >
<path style="stroke: rgb(78,78,243); stroke-width: 3; stroke-dasharray: none; stroke-linecap: round; stroke-dashoffset: 0; stroke-linejoin: round; stroke-miterlimit: 10; fill: none; fill-rule: nonzero; opacity: 1;"  transform=" translate(-573, -254.5)" d="M 561.997 242.497 Q 562 242.5 571 252 Q 580 261.5 582 264 L 584.003 266.503" stroke-linecap="round" />
</g>
<g transform="matrix(1 0 0 1 582.5 254.76)"  >
<path style="stroke: rgb(78,78,243); stroke-width: 3; stroke-dasharray: none; stroke-linecap: round; stroke-dashoffset: 0; stroke-linejoin: round; stroke-miterlimit: 10; fill: none; fill-rule: nonzero; opacity: 1;"  transform=" translate(-582.5, -254.76)" d="M 590.003 251.497 Q 590 251.5 588.5 250 Q 587 248.5 583.5 251.5 Q 580 254.5 577.5 257.5 L 574.997 260.503" stroke-linecap="round" />
</g>
<g transform="matrix(1 0 0 1 551.5 317)"  >
<path style="stroke: rgb(78,78,243); stroke-width: 3; stroke-dasharray: none; stroke-linecap: round; stroke-dashoffset: 0; stroke-linejoin: round; stroke-miterlimit: 10; fill: none; fill-rule: nonzero; opacity: 1;"  transform=" translate(-551.5, -317)" d="M 543.997 310.497 Q 544 310.5 544.5 312.5 Q 545 314.5 546.5 316 Q 548 317.5 550.5 319 Q 553 320.5 556 322 L 559.003 323.503" stroke-linecap="round" />
</g>
<g transform="matrix(1 0 0 1 555 322)"  >
<path style="stroke: rgb(78,78,243); stroke-width: 3; stroke-dasharray: none; stroke-linecap: round; stroke-dashoffset: 0; stroke-linejoin: round; stroke-miterlimit: 10; fill: none; fill-rule: nonzero; opacity: 1;"  transform=" translate(-555, -322)" d="M 565.003 312.497 Q 565 312.5 561.5 314 Q 558 315.5 556.5 317.5 Q 555 319.5 552.5 322.5 Q 550 325.5 547.5 328.5 L 544.997 331.503" stroke-linecap="round" />
</g>
<g transform="matrix(1 0 0 1 442.5 310)"  >
<path style="stroke: rgb(78,78,243); stroke-width: 3; stroke-dasharray: none; stroke-linecap: round; stroke-dashoffset: 0; stroke-linejoin: round; stroke-miterlimit: 10; fill: none; fill-rule: nonzero; opacity: 1;"  transform=" translate(-442.5, -310)" d="M 429.997 306.5 Q 430 306.5 442.5 310 L 455.003 313.5" stroke-linecap="round" />
</g>
<g transform="matrix(1 0 0 1 439.5 304.5)"  >
<path style="stroke: rgb(78,78,243); stroke-width: 3; stroke-dasharray: none; stroke-linecap: round; stroke-dashoffset: 0; stroke-linejoin: round; stroke-miterlimit: 10; fill: none; fill-rule: nonzero; opacity: 1;"  transform=" translate(-439.5, -304.5)" d="M 446.003 296.497 Q 446 296.5 443 298.5 Q 440 300.5 438.5 302.5 Q 437 304.5 435 308.5 L 432.997 312.503" stroke-linecap="round" />
</g>
<g transform="matrix(1 0 0 1 375 346.5)"  >
<path style="stroke: rgb(78,78,243); stroke-width: 3; stroke-dasharray: none; stroke-linecap: round; stroke-dashoffset: 0; stroke-linejoin: round; stroke-miterlimit: 10; fill: none; fill-rule: nonzero; opacity: 1;"  transform=" translate(-375, -346.5)" d="M 365.997 339.497 Q 366 339.5 369.5 343.5 Q 373 347.5 375.5 349 Q 378 350.5 381 352 L 384.003 353.503" stroke-linecap="round" />
</g>
<g transform="matrix(1 0 0 1 374 347)"  >
<path style="stroke: rgb(78,78,243); stroke-width: 3; stroke-dasharray: none; stroke-linecap: round; stroke-dashoffset: 0; stroke-linejoin: round; stroke-miterlimit: 10; fill: none; fill-rule: nonzero; opacity: 1;"  transform=" translate(-374, -347)" d="M 383.003 333.497 Q 383 333.5 379 336.5 Q 375 339.5 373 343.5 Q 371 347.5 370 350 Q 369 352.5 367 356.5 L 364.997 360.503" stroke-linecap="round" />
</g>
<g transform="matrix(1 0 0 1 498.5 213)"  >
<path style="stroke: rgb(78,78,243); stroke-width: 3; stroke-dasharray: none; stroke-linecap: round; stroke-dashoffset: 0; stroke-linejoin: round; stroke-miterlimit: 10; fill: none; fill-rule: nonzero; opacity: 1;"  transform=" translate(-498.5, -213)" d="M 484.997 206.497 Q 485 206.5 493 211 Q 501 215.5 503.5 216.5 Q 506 217.5 509 218.5 L 512.003 219.503" stroke-linecap="round" />
</g>
<g transform="matrix(1 0 0 1 499.5 214)"  >
<path style="stroke: rgb(78,78,243); stroke-width: 3; stroke-dasharray: none; stroke-linecap: round; stroke-dashoffset: 0; stroke-linejoin: round; stroke-miterlimit: 10; fill: none; fill-rule: nonzero; opacity: 1;"  transform=" translate(-499.5, -214)" d="M 511.003 201.497 Q 511 201.5 505 207 Q 499 212.5 495.5 217 Q 492 221.5 490 224 L 487.997 226.503" stroke-linecap="round" />
</g>
<g transform="matrix(1 0 0 1 574.5 159.5)"  >
<path style="stroke: rgb(78,78,243); stroke-width: 3; stroke-dasharray: none; stroke-linecap: round; stroke-dashoffset: 0; stroke-linejoin: round; stroke-miterlimit: 10; fill: none; fill-rule: nonzero; opacity: 1;"  transform=" translate(-574.5, -159.5)" d="M 568.997 150.497 Q 569 150.5 573 157.5 Q 577 164.5 578.5 166.5 L 580.003 168.503" stroke-linecap="round" />
</g>
<g transform="matrix(1 0 0 1 569.5 172)"  >
<path style="stroke: rgb(78,78,243); stroke-width: 3; stroke-dasharray: none; stroke-linecap: round; stroke-dashoffset: 0; stroke-linejoin: round; stroke-miterlimit: 10; fill: none; fill-rule: nonzero; opacity: 1;"  transform=" translate(-569.5, -172)" d="M 580.003 162.497 Q 580 162.5 576 164 Q 572 165.5 570.5 167 Q 569 168.5 566.5 171.5 Q 564 174.5 561.5 178 L 558.997 181.503" stroke-linecap="round" />
</g>
<g transform="matrix(1 0 0 1 291 344.39)"  >
<path style="stroke: rgb(234,41,42); stroke-width: 3; stroke-dasharray: none; stroke-linecap: round; stroke-dashoffset: 0; stroke-linejoin: round; stroke-miterlimit: 10; fill: none; fill-rule: nonzero; opacity: 1;"  transform=" translate(-291, -344.39)" d="M 297.003 333.497 Q 297 333.5 293.5 334.5 Q 290 335.5 288 339 Q 286 342.5 285 345 Q 284 347.5 284.5 349.5 Q 285 351.5 286 353.5 Q 287 355.5 290 355 Q 293 354.5 295 350.5 Q 297 346.5 297.5 343.5 Q 298 340.5 297 338.5 Q 296 336.5 293 335 L 289.997 333.497" stroke-linecap="round" />
</g>
<g transform="matrix(1 0 0 1 333 279.85)"  >
<path style="stroke: rgb(234,41,42); stroke-width: 3; stroke-dasharray: none; stroke-linecap: round; stroke-dashoffset: 0; stroke-linejoin: round; stroke-miterlimit: 10; fill: none; fill-rule: nonzero; opacity: 1;"  transform=" translate(-333, -279.85)" d="M 342.003 275.497 Q 342 275.5 335 273.5 Q 328 271.5 326.5 274 Q 325 276.5 324.5 279 Q 324 281.5 324 284 Q 324 286.5 326 287.5 Q 328 288.5 329.5 287 Q 331 285.5 332.5 283.5 Q 334 281.5 334.5 279 Q 335 276.5 335 274 L 335 271.497" stroke-linecap="round" />
</g>
<g transform="matrix(1 0 0 1 293.06 245.37)"  >
<path style="stroke: rgb(234,41,42); stroke-width: 3; stroke-dasharray: none; stroke-linecap: round; stroke-dashoffset: 0; stroke-linejoin: round; stroke-miterlimit: 10; fill: none; fill-rule: nonzero; opacity: 1;"  transform=" translate(-293.06, -245.37)" d="M 303.003 244.503 Q 303 244.5 300.5 241.5 Q 298 238.5 294.5 237.5 Q 291 236.5 289 237.5 Q 287 238.5 285.5 241 Q 284 243.5 283.5 247 Q 283 250.5 283.5 253.5 Q 284 256.5 286 257.5 Q 288 258.5 290.5 257.5 Q 293 256.5 295 253 Q 297 249.5 298 246 Q 299 242.5 299 239.5 Q 299 236.5 299 234.5 L 299 232.497" stroke-linecap="round" />
</g>
<g transform="matrix(1 0 0 1 329.5 204.88)"  >
<path style="stroke: rgb(234,41,42); stroke-width: 3; stroke-dasharray: none; stroke-linecap: round; stroke-dashoffset: 0; stroke-linejoin: round; stroke-miterlimit: 10; fill: none; fill-rule: nonzero; opacity: 1;"  transform=" translate(-329.5, -204.88)" d="M 336.003 200.497 Q 336 200.5 334.5 197 Q 333 193.5 329.5 195.5 Q 326 197.5 324.5 201 Q 323 204.5 323 208 Q 323 211.5 324 214 Q 325 216.5 327 217 Q 329 217.5 330.5 215 Q 332 212.5 333.5 209 Q 335 205.5 335.5 202 Q 336 198.5 335.5 195.5 L 334.997 192.497" stroke-linecap="round" />
</g>
<g transform="matrix(1 0 0 1 325.09 130.35)"  >
<path style="stroke: rgb(234,41,42); stroke-width: 3; stroke-dasharray: none; stroke-linecap: round; stroke-dashoffset: 0; stroke-linejoin: round; stroke-miterlimit: 10; fill: none; fill-rule: nonzero; opacity: 1;"  transform=" translate(-325.09, -130.35)" d="M 328.003 132.5 Q 328 132.5 326 129.5 Q 324 126.5 322 126.5 Q 320 126.5 318.5 129 Q 317 131.5 315.5 136 Q 314 140.5 315 144 Q 316 147.5 318.5 148.5 Q 321 149.5 323.5 148 Q 326 146.5 328.5 142.5 Q 331 138.5 333 134.5 Q 335 130.5 335.5 126 Q 336 121.5 335.5 118.5 Q 335 115.5 335 113.5 L 335 111.497" stroke-linecap="round" />
</g>
<g transform="matrix(1 0 0 1 381 105.85)"  >
<path style="stroke: rgb(234,41,42); stroke-width: 3; stroke-dasharray: none; stroke-linecap: round; stroke-dashoffset: 0; stroke-linejoin: round; stroke-miterlimit: 10; fill: none; fill-rule: nonzero; opacity: 1;"  transform=" translate(-381, -105.85)" d="M 394.003 109.503 Q 394 109.5 392.5 104 Q 391 98.5 386.5 98 Q 382 97.5 379 99 Q 376 100.5 373.5 102 Q 371 103.5 369.5 105.5 Q 368 107.5 368 110.5 Q 368 113.5 370 115 Q 372 116.5 374.5 115.5 Q 377 114.5 378.5 112.5 Q 380 110.5 381.5 107.5 Q 383 104.5 384.5 102 Q 386 99.5 386.5 97.5 L 387.003 95.497" stroke-linecap="round" />
</g>
<g transform="matrix(1 0 0 1 394.09 153.01)"  >
<path style="stroke: rgb(234,41,42); stroke-width: 3; stroke-dasharray: none; stroke-linecap: round; stroke-dashoffset: 0; stroke-linejoin: round; stroke-miterlimit: 10; fill: none; fill-rule: nonzero; opacity: 1;"  transform=" translate(-394.09, -153.01)" d="M 404.003 157.503 Q 404 157.5 400.5 149 Q 397 140.5 393.5 140 Q 390 139.5 388 142 Q 386 144.5 385 148.5 Q 384 152.5 384.5 157.5 Q 385 162.5 387 164.5 Q 389 166.5 391.5 166 Q 394 165.5 396.5 163.5 Q 399 161.5 401 159 L 403.003 156.497" stroke-linecap="round" />
</g>
<g transform="matrix(1 0 0 1 468.5 93)"  >
<path style="stroke: rgb(234,41,42); stroke-width: 3; stroke-dasharray: none; stroke-linecap: round; stroke-dashoffset: 0; stroke-linejoin: round; stroke-miterlimit: 10; fill: none; fill-rule: nonzero; opacity: 1;"  transform=" translate(-468.5, -93)" d="M 485.003 84.497 Q 485 84.5 480.5 80.5 Q 476 76.5 469.5 80.5 Q 463 84.5 459.5 89.5 Q 456 94.5 454 98.5 Q 452 102.5 452 105.5 Q 452 108.5 454 108.5 Q 456 108.5 458.5 107.5 Q 461 106.5 463 104.5 Q 465 102.5 466 100 Q 467 97.5 467 95.5 L 467 93.497" stroke-linecap="round" />
</g>
<g transform="matrix(1 0 0 1 384.17 206.03)"  >
<path style="stroke: rgb(234,41,42); stroke-width: 3; stroke-dasharray: none; stroke-linecap: round; stroke-dashoffset: 0; stroke-linejoin: round; stroke-miterlimit: 10; fill: none; fill-rule: nonzero; opacity: 1;"  transform=" translate(-384.17, -206.03)" d="M 387.003 212.503 Q 387 212.5 388 206 Q 389 199.5 388.5 197.5 Q 388 195.5 386.5 197 Q 385 198.5 383 202.5 Q 381 206.5 380 210 Q 379 213.5 381 215 Q 383 216.5 385 215 Q 387 213.5 388 210.5 Q 389 207.5 389 205 Q 389 202.5 388 200 L 386.997 197.497" stroke-linecap="round" />
</g>
</svg>