<?xml version="1.0" encoding="UTF-8" standalone="no" ?>
<!DOCTYPE svg PUBLIC "-//W3C//DTD SVG 1.1//EN" "http://www.w3.org/Graphics/SVG/1.1/DTD/svg11.dtd">
<svg xmlns="http://www.w3.org/2000/svg" xmlns:xlink="http://www.w3.org/1999/xlink" version="1.1" width="864" height="456" viewBox="0 0 864 456" xml:space="preserve">
<desc>Created with Fabric.js 4.3.1</desc>
<defs>
</defs>
<g transform="matrix(1 0 0 1 470.13 222.5)"  >
<path style="stroke: rgb(0,0,0); stroke-width: 3; stroke-dasharray: none; stroke-linecap: round; stroke-dashoffset: 0; stroke-linejoin: round; stroke-miterlimit: 10; fill: none; fill-rule: nonzero; opacity: 1;"  transform=" translate(-470.13, -222.5)" d="M 230.997 27.497 Q 231 27.5 231.5 34 Q 232 40.5 232.5 43.5 Q 233 46.5 233.5 49 Q 234 51.5 234.5 55.5 Q 235 59.5 235.5 63.5 Q 236 67.5 236 71.5 Q 236 75.5 236 80 Q 236 84.5 236.5 89.5 Q 237 94.5 238 100 Q 239 105.5 239.5 111.5 Q 240 117.5 240 124 Q 240 130.5 240 137 Q 240 143.5 240 150 Q 240 156.5 239.5 162.5 Q 239 168.5 238.5 174 Q 238 179.5 238 185 Q 238 190.5 238 195.5 Q 238 200.5 238 206 Q 238 211.5 238 216.5 Q 238 221.5 238.5 227 Q 239 232.5 239.5 238 Q 240 243.5 240.5 249 Q 241 254.5 241.5 260.5 Q 242 266.5 242 272.5 Q 242 278.5 242 284.5 Q 242 290.5 242 296.5 Q 242 302.5 241.5 309 Q 241 315.5 240.5 321.5 Q 240 327.5 239 333.5 Q 238 339.5 238 345.5 Q 238 351.5 237.5 356 Q 237 360.5 237 365 Q 237 369.5 236.5 374 Q 236 378.5 235 382.5 Q 234 386.5 233 391 Q 232 395.5 231 399 Q 230 402.5 229.5 405.5 Q 229 408.5 228.5 411 Q 228 413.5 231 415.5 Q 234 417.5 236.5 417.5 Q 239 417.5 242.5 417 Q 246 416.5 250 416 Q 254 415.5 258 415 Q 262 414.5 267 414 Q 272 413.5 278 413 Q 284 412.5 290 412.5 Q 296 412.5 302.5 411.5 Q 309 410.5 316 410 Q 323 409.5 330 409 Q 337 408.5 344.5 408.5 Q 352 408.5 359.5 407.5 Q 367 406.5 375.5 405.5 Q 384 404.5 393.5 403.5 Q 403 402.5 412.5 401 Q 422 399.5 431.5 397.5 Q 441 395.5 450.5 394 Q 460 392.5 469 391 Q 478 389.5 487 388 Q 496 386.5 505.5 385.5 Q 515 384.5 524 384 Q 533 383.5 541 383.5 Q 549 383.5 557 383.5 Q 565 383.5 572 383.5 Q 579 383.5 586.5 383.5 Q 594 383.5 601.5 383.5 Q 609 383.5 616.5 383.5 Q 624 383.5 631.5 383.5 Q 639 383.5 645.5 383.5 Q 652 383.5 659 383 Q 666 382.5 672.5 382.5 Q 679 382.5 684 382.5 Q 689 382.5 694 382 Q 699 381.5 703 381.5 Q 707 381.5 709.5 381.5 L 712.003 381.5" stroke-linecap="round" />
</g>
<g transform="matrix(1 0 0 1 396.5 346.5)"  >
<path style="stroke: rgb(78,78,243); stroke-width: 3; stroke-dasharray: none; stroke-linecap: round; stroke-dashoffset: 0; stroke-linejoin: round; stroke-miterlimit: 10; fill: none; fill-rule: nonzero; opacity: 1;"  transform=" translate(-396.5, -346.5)" d="M 385.997 342.5 Q 386 342.5 396.5 346.5 L 407.003 350.5" stroke-linecap="round" />
</g>
<g transform="matrix(1 0 0 1 391.5 352)"  >
<path style="stroke: rgb(78,78,243); stroke-width: 3; stroke-dasharray: none; stroke-linecap: round; stroke-dashoffset: 0; stroke-linejoin: round; stroke-miterlimit: 10; fill: none; fill-rule: nonzero; opacity: 1;"  transform=" translate(-391.5, -352)" d="M 398.003 342.497 Q 398 342.5 395.5 344.5 Q 393 346.5 391.5 348.5 Q 390 350.5 389 353.5 Q 388 356.5 386.5 359 L 384.997 361.503" stroke-linecap="round" />
</g>
<g transform="matrix(1 0 0 1 469 328.5)"  >
<path style="stroke: rgb(78,78,243); stroke-width: 3; stroke-dasharray: none; stroke-linecap: round; stroke-dashoffset: 0; stroke-linejoin: round; stroke-miterlimit: 10; fill: none; fill-rule: nonzero; opacity: 1;"  transform=" translate(-469, -328.5)" d="M 460.997 319.5 Q 461 319.5 469 328.5 L 477.003 337.5" stroke-linecap="round" />
</g>
<g transform="matrix(1 0 0 1 478 329)"  >
<path style="stroke: rgb(78,78,243); stroke-width: 3; stroke-dasharray: none; stroke-linecap: round; stroke-dashoffset: 0; stroke-linejoin: round; stroke-miterlimit: 10; fill: none; fill-rule: nonzero; opacity: 1;"  transform=" translate(-478, -329)" d="M 483.003 325.497 Q 483 325.5 480 327 Q 477 328.5 475 330.5 L 472.997 332.503" stroke-linecap="round" />
</g>
<g transform="matrix(1 0 0 1 531.5 304)"  >
<path style="stroke: rgb(78,78,243); stroke-width: 3; stroke-dasharray: none; stroke-linecap: round; stroke-dashoffset: 0; stroke-linejoin: round; stroke-miterlimit: 10; fill: none; fill-rule: nonzero; opacity: 1;"  transform=" translate(-531.5, -304)" d="M 524.997 294.497 Q 525 294.5 528.5 300.5 Q 532 306.5 535 310 L 538.003 313.503" stroke-linecap="round" />
</g>
<g transform="matrix(1 0 0 1 538 311.5)"  >
<path style="stroke: rgb(78,78,243); stroke-width: 3; stroke-dasharray: none; stroke-linecap: round; stroke-dashoffset: 0; stroke-linejoin: round; stroke-miterlimit: 10; fill: none; fill-rule: nonzero; opacity: 1;"  transform=" translate(-538, -311.5)" d="M 550.003 304.497 Q 550 304.5 544 307.5 Q 538 310.5 535.5 312.5 Q 533 314.5 529.5 316.5 L 525.997 318.503" stroke-linecap="round" />
</g>
<g transform="matrix(1 0 0 1 582.5 267.5)"  >
<path style="stroke: rgb(78,78,243); stroke-width: 3; stroke-dasharray: none; stroke-linecap: round; stroke-dashoffset: 0; stroke-linejoin: round; stroke-miterlimit: 10; fill: none; fill-rule: nonzero; opacity: 1;"  transform=" translate(-582.5, -267.5)" d="M 574.997 259.497 Q 575 259.5 577.5 262 Q 580 264.5 583 268.5 Q 586 272.5 588 274 L 590.003 275.503" stroke-linecap="round" />
</g>
<g transform="matrix(1 0 0 1 585.5 262.5)"  >
<path style="stroke: rgb(78,78,243); stroke-width: 3; stroke-dasharray: none; stroke-linecap: round; stroke-dashoffset: 0; stroke-linejoin: round; stroke-miterlimit: 10; fill: none; fill-rule: nonzero; opacity: 1;"  transform=" translate(-585.5, -262.5)" d="M 594.003 253.497 Q 594 253.5 592 254.5 Q 590 255.5 586.5 259.5 Q 583 263.5 580 267.5 L 576.997 271.503" stroke-linecap="round" />
</g>
<g transform="matrix(1 0 0 1 609 209.5)"  >
<path style="stroke: rgb(78,78,243); stroke-width: 3; stroke-dasharray: none; stroke-linecap: round; stroke-dashoffset: 0; stroke-linejoin: round; stroke-miterlimit: 10; fill: none; fill-rule: nonzero; opacity: 1;"  transform=" translate(-609, -209.5)" d="M 600.997 204.497 Q 601 204.5 604 207.5 Q 607 210.5 612 212.5 L 617.003 214.503" stroke-linecap="round" />
</g>
<g transform="matrix(1 0 0 1 609 195.5)"  >
<path style="stroke: rgb(78,78,243); stroke-width: 3; stroke-dasharray: none; stroke-linecap: round; stroke-dashoffset: 0; stroke-linejoin: round; stroke-miterlimit: 10; fill: none; fill-rule: nonzero; opacity: 1;"  transform=" translate(-609, -195.5)" d="M 614.003 194.497 Q 614 194.5 611 195 Q 608 195.5 606 196 L 603.997 196.503" stroke-linecap="round" />
</g>
<g transform="matrix(1 0 0 1 615.5 145.5)"  >
<path style="stroke: rgb(78,78,243); stroke-width: 3; stroke-dasharray: none; stroke-linecap: round; stroke-dashoffset: 0; stroke-linejoin: round; stroke-miterlimit: 10; fill: none; fill-rule: nonzero; opacity: 1;"  transform=" translate(-615.5, -145.5)" d="M 604.997 141.497 Q 605 141.5 607.5 143.5 Q 610 145.5 613 146.5 Q 616 147.5 621 148.5 L 626.003 149.503" stroke-linecap="round" />
</g>
<g transform="matrix(1 0 0 1 612 126.5)"  >
<path style="stroke: rgb(78,78,243); stroke-width: 3; stroke-dasharray: none; stroke-linecap: round; stroke-dashoffset: 0; stroke-linejoin: round; stroke-miterlimit: 10; fill: none; fill-rule: nonzero; opacity: 1;"  transform=" translate(-612, -126.5)" d="M 616.003 121.497 Q 616 121.5 613 124 Q 610 126.5 609 129 L 607.997 131.503" stroke-linecap="round" />
</g>
<g transform="matrix(1 0 0 1 599.5 85)"  >
<path style="stroke: rgb(78,78,243); stroke-width: 3; stroke-dasharray: none; stroke-linecap: round; stroke-dashoffset: 0; stroke-linejoin: round; stroke-miterlimit: 10; fill: none; fill-rule: nonzero; opacity: 1;"  transform=" translate(-599.5, -85)" d="M 598.997 75.497 Q 599 75.5 599 79 Q 599 82.5 599.5 85 Q 600 87.5 600 91 L 600 94.503" stroke-linecap="round" />
</g>
<g transform="matrix(1 0 0 1 602.5 80.5)"  >
<path style="stroke: rgb(78,78,243); stroke-width: 3; stroke-dasharray: none; stroke-linecap: round; stroke-dashoffset: 0; stroke-linejoin: round; stroke-miterlimit: 10; fill: none; fill-rule: nonzero; opacity: 1;"  transform=" translate(-602.5, -80.5)" d="M 589.997 75.497 Q 590 75.5 598.5 79 Q 607 82.5 611 84 L 615.003 85.503" stroke-linecap="round" />
</g>
<g transform="matrix(1 0 0 1 612.5 152)"  >
<path style="stroke: rgb(78,78,243); stroke-width: 3; stroke-dasharray: none; stroke-linecap: round; stroke-dashoffset: 0; stroke-linejoin: round; stroke-miterlimit: 10; fill: none; fill-rule: nonzero; opacity: 1;"  transform=" translate(-612.5, -152)" d="M 615.997 140.5 Q 616 140.5 612.5 152 L 609.003 163.5" stroke-linecap="round" />
</g>
<g transform="matrix(1 0 0 1 611.5 329.5)"  >
<path style="stroke: rgb(78,78,243); stroke-width: 3; stroke-dasharray: none; stroke-linecap: round; stroke-dashoffset: 0; stroke-linejoin: round; stroke-miterlimit: 10; fill: none; fill-rule: nonzero; opacity: 1;"  transform=" translate(-611.5, -329.5)" d="M 597.997 326.5 Q 598 326.5 611.5 329.5 L 625.003 332.5" stroke-linecap="round" />
</g>
<g transform="matrix(1 0 0 1 611 333.5)"  >
<path style="stroke: rgb(78,78,243); stroke-width: 3; stroke-dasharray: none; stroke-linecap: round; stroke-dashoffset: 0; stroke-linejoin: round; stroke-miterlimit: 10; fill: none; fill-rule: nonzero; opacity: 1;"  transform=" translate(-611, -333.5)" d="M 620.003 316.497 Q 620 316.5 616.5 321 Q 613 325.5 611.5 328 Q 610 330.5 607 336 Q 604 341.5 603 346 L 601.997 350.503" stroke-linecap="round" />
</g>
<g transform="matrix(1 0 0 1 655 269)"  >
<path style="stroke: rgb(78,78,243); stroke-width: 3; stroke-dasharray: none; stroke-linecap: round; stroke-dashoffset: 0; stroke-linejoin: round; stroke-miterlimit: 10; fill: none; fill-rule: nonzero; opacity: 1;"  transform=" translate(-655, -269)" d="M 642.997 260.497 Q 643 260.5 644 262.5 Q 645 264.5 648.5 267.5 Q 652 270.5 656.5 273 Q 661 275.5 664 276.5 L 667.003 277.503" stroke-linecap="round" />
</g>
<g transform="matrix(1 0 0 1 650 252)"  >
<path style="stroke: rgb(78,78,243); stroke-width: 3; stroke-dasharray: none; stroke-linecap: round; stroke-dashoffset: 0; stroke-linejoin: round; stroke-miterlimit: 10; fill: none; fill-rule: nonzero; opacity: 1;"  transform=" translate(-650, -252)" d="M 659.003 239.497 Q 659 239.5 657 240.5 Q 655 241.5 651.5 247.5 Q 648 253.5 644.5 259 L 640.997 264.503" stroke-linecap="round" />
</g>
<g transform="matrix(1 0 0 1 312.5 368.5)"  >
<path style="stroke: rgb(234,41,42); stroke-width: 3; stroke-dasharray: none; stroke-linecap: round; stroke-dashoffset: 0; stroke-linejoin: round; stroke-miterlimit: 10; fill: none; fill-rule: nonzero; opacity: 1;"  transform=" translate(-312.5, -368.5)" d="M 300.997 361.5 Q 301 361.5 309.5 368.5 Q 318 375.5 321 375.5 L 324.003 375.5" stroke-linecap="round" />
</g>
<g transform="matrix(1 0 0 1 313.87 363.85)"  >
<path style="stroke: rgb(234,41,42); stroke-width: 3; stroke-dasharray: none; stroke-linecap: round; stroke-dashoffset: 0; stroke-linejoin: round; stroke-miterlimit: 10; fill: none; fill-rule: nonzero; opacity: 1;"  transform=" translate(-313.87, -363.85)" d="M 317.003 361.497 Q 317 361.5 311.5 360.5 Q 306 359.5 304 362 Q 302 364.5 302 368 Q 302 371.5 303.5 374 Q 305 376.5 307.5 377.5 Q 310 378.5 313 377 Q 316 375.5 318.5 372 Q 321 368.5 323 365 Q 325 361.5 325.5 358.5 Q 326 355.5 322.5 352.5 L 318.997 349.497" stroke-linecap="round" />
</g>
<g transform="matrix(1 0 0 1 324 316.81)"  >
<path style="stroke: rgb(234,41,42); stroke-width: 3; stroke-dasharray: none; stroke-linecap: round; stroke-dashoffset: 0; stroke-linejoin: round; stroke-miterlimit: 10; fill: none; fill-rule: nonzero; opacity: 1;"  transform=" translate(-324, -316.81)" d="M 323.003 316.497 Q 323 316.5 322.5 314.5 Q 322 312.5 318.5 313 Q 315 313.5 313 317.5 Q 311 321.5 311 325.5 Q 311 329.5 313 332 Q 315 334.5 318.5 333.5 Q 322 332.5 325 328.5 Q 328 324.5 330.5 319.5 Q 333 314.5 334.5 310 Q 336 305.5 336.5 302.5 L 337.003 299.497" stroke-linecap="round" />
</g>
<g transform="matrix(1 0 0 1 393.11 283.79)"  >
<path style="stroke: rgb(234,41,42); stroke-width: 3; stroke-dasharray: none; stroke-linecap: round; stroke-dashoffset: 0; stroke-linejoin: round; stroke-miterlimit: 10; fill: none; fill-rule: nonzero; opacity: 1;"  transform=" translate(-393.11, -283.78)" d="M 406.003 273.497 Q 406 273.5 404 274 Q 402 274.5 391.5 278 Q 381 281.5 380.5 286.5 Q 380 291.5 382 293 Q 384 294.5 388 292.5 Q 392 290.5 396 287 Q 400 283.5 402.5 280.5 L 405.003 277.497" stroke-linecap="round" />
</g>
<g transform="matrix(1 0 0 1 463.31 259.88)"  >
<path style="stroke: rgb(234,41,42); stroke-width: 3; stroke-dasharray: none; stroke-linecap: round; stroke-dashoffset: 0; stroke-linejoin: round; stroke-miterlimit: 10; fill: none; fill-rule: nonzero; opacity: 1;"  transform=" translate(-463.31, -259.88)" d="M 473.003 267.503 Q 473 267.5 474 265 Q 475 262.5 472.5 260 Q 470 257.5 466 256.5 Q 462 255.5 459 256.5 Q 456 257.5 454 261 Q 452 264.5 452 267.5 Q 452 270.5 454 271 Q 456 271.5 459 269 Q 462 266.5 465 263 Q 468 259.5 468.5 256.5 Q 469 253.5 468.5 251 L 467.997 248.497" stroke-linecap="round" />
</g>
<g transform="matrix(1 0 0 1 517.75 204.5)"  >
<path style="stroke: rgb(234,41,42); stroke-width: 3; stroke-dasharray: none; stroke-linecap: round; stroke-dashoffset: 0; stroke-linejoin: round; stroke-miterlimit: 10; fill: none; fill-rule: nonzero; opacity: 1;"  transform=" translate(-517.75, -204.5)" d="M 537.003 223.503 Q 537 223.5 536 221 Q 535 218.5 533 217 Q 531 215.5 527.5 214 Q 524 212.5 519.5 211 Q 515 209.5 511.5 210 Q 508 210.5 505 212.5 Q 502 214.5 500 215.5 Q 498 216.5 500 214 Q 502 211.5 505.5 206.5 Q 509 201.5 511 197 Q 513 192.5 513.5 189 L 514.003 185.497" stroke-linecap="round" />
</g>
<g transform="matrix(1 0 0 1 520.25 127)"  >
<path style="stroke: rgb(234,41,42); stroke-width: 3; stroke-dasharray: none; stroke-linecap: round; stroke-dashoffset: 0; stroke-linejoin: round; stroke-miterlimit: 10; fill: none; fill-rule: nonzero; opacity: 1;"  transform=" translate(-520.25, -127)" d="M 534.003 147.503 Q 534 147.5 534 143 Q 534 138.5 532.5 135 Q 531 131.5 527 130 Q 523 128.5 519.5 128 Q 516 127.5 513 129 Q 510 130.5 508 133 Q 506 135.5 508 137 Q 510 138.5 513 136.5 Q 516 134.5 518.5 131 Q 521 127.5 522 124 Q 523 120.5 522.5 117.5 Q 522 114.5 521 110.5 L 519.997 106.497" stroke-linecap="round" />
</g>
<g transform="matrix(1 0 0 1 505.5 76.5)"  >
<path style="stroke: rgb(234,41,42); stroke-width: 3; stroke-dasharray: none; stroke-linecap: round; stroke-dashoffset: 0; stroke-linejoin: round; stroke-miterlimit: 10; fill: none; fill-rule: nonzero; opacity: 1;"  transform=" translate(-505.5, -76.5)" d="M 519 88.503 Q 519 88.5 521 86.5 Q 523 84.5 523 81.5 Q 523 78.5 521 77.5 Q 519 76.5 515.5 75 Q 512 73.5 507.5 71.5 Q 503 69.5 499 67.5 Q 495 65.5 491.5 65 L 487.997 64.497" stroke-linecap="round" />
</g>
<g transform="matrix(1 0 0 1 439.5 154.5)"  >
<path style="stroke: rgb(234,41,42); stroke-width: 3; stroke-dasharray: none; stroke-linecap: round; stroke-dashoffset: 0; stroke-linejoin: round; stroke-miterlimit: 10; fill: none; fill-rule: nonzero; opacity: 1;"  transform=" translate(-439.5, -154.5)" d="M 459.003 163.503 Q 459 163.5 458 159.5 Q 457 155.5 453.5 151.5 Q 450 147.5 447 146 Q 444 144.5 439 144.5 Q 434 144.5 430.5 147 Q 427 149.5 424.5 153.5 Q 422 157.5 421 161 L 419.997 164.503" stroke-linecap="round" />
</g>
<g transform="matrix(1 0 0 1 346.91 217.58)"  >
<path style="stroke: rgb(234,41,42); stroke-width: 3; stroke-dasharray: none; stroke-linecap: round; stroke-dashoffset: 0; stroke-linejoin: round; stroke-miterlimit: 10; fill: none; fill-rule: nonzero; opacity: 1;"  transform=" translate(-346.91, -217.58)" d="M 364.003 227.503 Q 364 227.5 364.5 225.5 Q 365 223.5 364 217 Q 363 210.5 360.5 208.5 Q 358 206.5 353 205 Q 348 203.5 343.5 205 Q 339 206.5 335.5 209.5 Q 332 212.5 330.5 216.5 Q 329 220.5 329 224 Q 329 227.5 330.5 229.5 Q 332 231.5 335 231 L 338.003 230.497" stroke-linecap="round" />
</g>
<g transform="matrix(1 0 0 1 305.85 212.5)"  >
<path style="stroke: rgb(234,41,42); stroke-width: 3; stroke-dasharray: none; stroke-linecap: round; stroke-dashoffset: 0; stroke-linejoin: round; stroke-miterlimit: 10; fill: none; fill-rule: nonzero; opacity: 1;"  transform=" translate(-305.85, -212.5)" d="M 294.997 239.503 Q 295 239.5 298.5 238 Q 302 236.5 306 233.5 Q 310 230.5 312.5 226.5 Q 315 222.5 316 217.5 Q 317 212.5 315.5 208 Q 314 203.5 311.5 199.5 Q 309 195.5 306 190.5 L 302.997 185.497" stroke-linecap="round" />
</g>
<g transform="matrix(1 0 0 1 314.12 136.88)"  >
<path style="stroke: rgb(234,41,42); stroke-width: 3; stroke-dasharray: none; stroke-linecap: round; stroke-dashoffset: 0; stroke-linejoin: round; stroke-miterlimit: 10; fill: none; fill-rule: nonzero; opacity: 1;"  transform=" translate(-314.12, -136.88)" d="M 325.003 144.503 Q 325 144.5 322.5 141 Q 320 137.5 318 137 Q 316 136.5 312 137.5 Q 308 138.5 306 142 Q 304 145.5 303.5 148.5 Q 303 151.5 305.5 152 Q 308 152.5 310 150 Q 312 147.5 314 144.5 Q 316 141.5 317 138.5 Q 318 135.5 318.5 132.5 Q 319 129.5 317.5 127.5 Q 316 125.5 314.5 123.5 L 312.997 121.497" stroke-linecap="round" />
</g>
<g transform="matrix(1 0 0 1 374.6 88.88)"  >
<path style="stroke: rgb(234,41,42); stroke-width: 3; stroke-dasharray: none; stroke-linecap: round; stroke-dashoffset: 0; stroke-linejoin: round; stroke-miterlimit: 10; fill: none; fill-rule: nonzero; opacity: 1;"  transform=" translate(-374.6, -88.87)" d="M 392.003 87.497 Q 392 87.5 388.5 85.5 Q 385 83.5 380.5 84.5 Q 376 85.5 371 87 Q 366 88.5 363 92 Q 360 95.5 358.5 100.5 Q 357 105.5 357.5 108.5 Q 358 111.5 361.5 111 Q 365 110.5 370.5 104.5 Q 376 98.5 379.5 91.5 Q 383 84.5 384.5 79.5 Q 386 74.5 386.5 70.5 L 387.003 66.497" stroke-linecap="round" />
</g>
<g transform="matrix(1 0 0 1 421.6 78.67)"  >
<path style="stroke: rgb(234,41,42); stroke-width: 3; stroke-dasharray: none; stroke-linecap: round; stroke-dashoffset: 0; stroke-linejoin: round; stroke-miterlimit: 10; fill: none; fill-rule: nonzero; opacity: 1;"  transform=" translate(-421.6, -78.67)" d="M 442.003 66.497 Q 442 66.5 434 64.5 Q 426 62.5 423.5 63.5 Q 421 64.5 416.5 67.5 Q 412 70.5 408 75.5 Q 404 80.5 402.5 85 Q 401 89.5 401.5 92 Q 402 94.5 406.5 94.5 Q 411 94.5 418 91.5 Q 425 88.5 430 85.5 Q 435 82.5 438 80 L 441.003 77.497" stroke-linecap="round" />
</g>
<g transform="matrix(1 0 0 1 380.5 138.5)"  >
<path style="stroke: rgb(234,41,42); stroke-width: 3; stroke-dasharray: none; stroke-linecap: round; stroke-dashoffset: 0; stroke-linejoin: round; stroke-miterlimit: 10; fill: none; fill-rule: nonzero; opacity: 1;"  transform=" translate(-380.5, -138.5)" d="M 391.003 150.503 Q 391 150.5 389 150 Q 387 149.5 386 147 Q 385 144.5 383 141 Q 381 137.5 377.5 134 Q 374 130.5 372 128.5 L 369.997 126.497" stroke-linecap="round" />
</g>
<g transform="matrix(1 0 0 1 653.38 180.25)"  >
<path style="stroke: rgb(78,78,243); stroke-width: 3; stroke-dasharray: none; stroke-linecap: round; stroke-dashoffset: 0; stroke-linejoin: round; stroke-miterlimit: 10; fill: none; fill-rule: nonzero; opacity: 1;"  transform=" translate(-653.37, -180.26)" d="M 653.997 173.503 Q 654 173.5 655.5 182.5 Q 657 191.5 659.5 187.5 Q 662 183.5 662.5 179.5 Q 663 175.5 663.5 172.5 Q 664 169.5 661 171 Q 658 172.5 654 177 Q 650 181.5 646.5 186 L 642.997 190.503" stroke-linecap="round" />
</g>
<g transform="matrix(1 0 0 1 663 126)"  >
<path style="stroke: rgb(78,78,243); stroke-width: 3; stroke-dasharray: none; stroke-linecap: round; stroke-dashoffset: 0; stroke-linejoin: round; stroke-miterlimit: 10; fill: none; fill-rule: nonzero; opacity: 1;"  transform=" translate(-663, -126)" d="M 651.997 116.497 Q 652 116.5 654.5 120 Q 657 123.5 659.5 126.5 Q 662 129.5 665 131.5 Q 668 133.5 671 134.5 L 674.003 135.503" stroke-linecap="round" />
</g>
<g transform="matrix(1 0 0 1 675 111.81)"  >
<path style="stroke: rgb(78,78,243); stroke-width: 3; stroke-dasharray: none; stroke-linecap: round; stroke-dashoffset: 0; stroke-linejoin: round; stroke-miterlimit: 10; fill: none; fill-rule: nonzero; opacity: 1;"  transform=" translate(-675, -111.8)" d="M 683.003 104.497 Q 683 104.5 682 101.5 Q 681 98.5 679 100.5 Q 677 102.5 674.5 108 Q 672 113.5 669.5 119 L 666.997 124.503" stroke-linecap="round" />
</g>
<g transform="matrix(1 0 0 1 432.5 209.5)"  >
<path style="stroke: rgb(128,128,128); stroke-width: 3; stroke-dasharray: none; stroke-linecap: round; stroke-dashoffset: 0; stroke-linejoin: round; stroke-miterlimit: 10; fill: none; fill-rule: nonzero; opacity: 1;"  transform=" translate(-432.5, -209.5)" d="M 289.997 415.503 Q 290 415.5 293.5 414 Q 297 412.5 298.5 411 Q 300 409.5 301.5 408 Q 303 406.5 304 404.5 Q 305 402.5 307.5 400 Q 310 397.5 311.5 395.5 Q 313 393.5 314.5 391.5 Q 316 389.5 317.5 388 Q 319 386.5 321 384.5 Q 323 382.5 325.5 380.5 Q 328 378.5 330.5 376.5 Q 333 374.5 335.5 373 Q 338 371.5 340.5 370 Q 343 368.5 345 367.5 Q 347 366.5 349.5 364 Q 352 361.5 353.5 360 Q 355 358.5 356.5 357 Q 358 355.5 360 354 Q 362 352.5 364 351 Q 366 349.5 368 348 Q 370 346.5 372 345 Q 374 343.5 376 342 Q 378 340.5 380 339 Q 382 337.5 384 336 Q 386 334.5 389 332.5 Q 392 330.5 394.5 329 Q 397 327.5 399.5 325.5 Q 402 323.5 404.5 321.5 Q 407 319.5 409.5 317.5 Q 412 315.5 415 313 Q 418 310.5 421 308.5 Q 424 306.5 427 304 Q 430 301.5 433 299.5 Q 436 297.5 439 295 Q 442 292.5 444.5 290.5 Q 447 288.5 450 287 Q 453 285.5 456 284 Q 459 282.5 462 280.5 Q 465 278.5 468 277 Q 471 275.5 474 274 Q 477 272.5 480 271.5 Q 483 270.5 485.5 269 Q 488 267.5 491 266 Q 494 264.5 496 263 Q 498 261.5 500.5 260.5 Q 503 259.5 505 258 Q 507 256.5 509 255 Q 511 253.5 513 252 Q 515 250.5 517 249 Q 519 247.5 521.5 245.5 Q 524 243.5 526 242 Q 528 240.5 530.5 238.5 Q 533 236.5 535 235 Q 537 233.5 539.5 231.5 Q 542 229.5 544 227.5 Q 546 225.5 548 223.5 Q 550 221.5 552.5 220 Q 555 218.5 557 216.5 Q 559 214.5 561 213 Q 563 211.5 564.5 209.5 Q 566 207.5 568 204.5 Q 570 201.5 571.5 198.5 Q 573 195.5 573.5 192 Q 574 188.5 574.5 185.5 Q 575 182.5 575 179 Q 575 175.5 574.5 172.5 Q 574 169.5 574 167.5 Q 574 165.5 574 162 Q 574 158.5 574 156 Q 574 153.5 574 151.5 Q 574 149.5 573.5 147.5 Q 573 145.5 572.5 143 Q 572 140.5 572 138.5 Q 572 136.5 572 134 Q 572 131.5 571.5 128.5 Q 571 125.5 571 123 Q 571 120.5 571 117.5 Q 571 114.5 570.5 112 Q 570 109.5 570 106.5 Q 570 103.5 570 101 Q 570 98.5 569.5 95.5 Q 569 92.5 569 89.5 Q 569 86.5 569 84 Q 569 81.5 568.5 78.5 Q 568 75.5 567.5 73 Q 567 70.5 566.5 68 Q 566 65.5 565.5 63 Q 565 60.5 564.5 58.5 Q 564 56.5 563.5 54 Q 563 51.5 562.5 49 Q 562 46.5 561.5 44 Q 561 41.5 560.5 39.5 Q 560 37.5 559.5 35 Q 559 32.5 558.5 30.5 Q 558 28.5 557.5 26.5 Q 557 24.5 556 22.5 Q 555 20.5 553.5 17.5 Q 552 14.5 551 11.5 Q 550 8.5 549 6 L 547.997 3.497" stroke-linecap="round" />
</g>
</svg>