<?xml version="1.0" encoding="UTF-8" standalone="no" ?>
<!DOCTYPE svg PUBLIC "-//W3C//DTD SVG 1.1//EN" "http://www.w3.org/Graphics/SVG/1.1/DTD/svg11.dtd">
<svg xmlns="http://www.w3.org/2000/svg" xmlns:xlink="http://www.w3.org/1999/xlink" version="1.1" width="864" height="456" viewBox="0 0 864 456" xml:space="preserve">
<desc>Created with Fabric.js 4.3.1</desc>
<defs>
</defs>
<g transform="matrix(1 0 0 1 400 254)"  >
<path style="stroke: rgb(0,0,0); stroke-width: 3; stroke-dasharray: none; stroke-linecap: round; stroke-dashoffset: 0; stroke-linejoin: round; stroke-miterlimit: 10; fill: none; fill-rule: nonzero; opacity: 1;"  transform=" translate(-433, -239)" d="M 250 62.497 Q 250 62.5 249 69 Q 248 75.5 248 80.5 Q 248 85.5 248 87.5 Q 248 89.5 248 95.5 Q 248 101.5 247.5 107.5 Q 247 113.5 247 120 Q 247 126.5 247 133.5 Q 247 140.5 246.5 146 Q 246 151.5 245.5 157 Q 245 162.5 244.5 168 Q 244 173.5 243.5 178 Q 243 182.5 242.5 186.5 Q 242 190.5 242 194 Q 242 197.5 242 200.5 Q 242 203.5 242 206 Q 242 208.5 242 211 Q 242 213.5 242 215.5 Q 242 217.5 242.5 219.5 Q 243 221.5 243 224 Q 243 226.5 243 230 Q 243 233.5 243 237 Q 243 240.5 242.5 244.5 Q 242 248.5 242 252.5 Q 242 256.5 241.5 260.5 Q 241 264.5 241 268.5 Q 241 272.5 241 277.5 Q 241 282.5 240.5 289 Q 240 295.5 239.5 302 Q 239 308.5 239 314.5 Q 239 320.5 238.5 326.5 Q 238 332.5 237 338 Q 236 343.5 235 349 Q 234 354.5 233.5 358.5 Q 233 362.5 232.5 366 Q 232 369.5 232 373 Q 232 376.5 232 379.5 Q 232 382.5 233 385.5 Q 234 388.5 237 390.5 Q 240 392.5 242 393.5 Q 244 394.5 246.5 395.5 Q 249 396.5 251 398 Q 253 399.5 255.5 400.5 Q 258 401.5 260.5 403 Q 263 404.5 266 405.5 Q 269 406.5 272 407.5 Q 275 408.5 278.5 409.5 Q 282 410.5 285.5 411.5 Q 289 412.5 292.5 413 Q 296 413.5 299.5 414 Q 303 414.5 307 415 Q 311 415.5 315 415.5 Q 319 415.5 323 415.5 Q 327 415.5 331 415.5 Q 335 415.5 339.5 415.5 Q 344 415.5 348.5 415.5 Q 353 415.5 357.5 415 Q 362 414.5 366.5 414.5 Q 371 414.5 376 414 Q 381 413.5 386.5 412.5 Q 392 411.5 398 410.5 Q 404 409.5 410 408 Q 416 406.5 422.5 404.5 Q 429 402.5 435.5 401.5 Q 442 400.5 448 399.5 Q 454 398.5 460 398 Q 466 397.5 472 397 Q 478 396.5 483.5 396 Q 489 395.5 494.5 395.5 Q 500 395.5 505 395.5 Q 510 395.5 515 395.5 Q 520 395.5 525.5 396 Q 531 396.5 536.5 396.5 Q 542 396.5 547 397 Q 552 397.5 558 397.5 Q 564 397.5 569.5 397.5 Q 575 397.5 580.5 397.5 Q 586 397.5 591 398 Q 596 398.5 600.5 399 Q 605 399.5 609.5 399.5 Q 614 399.5 617 400 Q 620 400.5 623 401 Q 626 401.5 628 401.5 Q 630 401.5 632 402 L 634.003 402.503" stroke-linecap="round" />
</g>
<g transform="matrix(1 0 0 1 452 352.5)"  >
<path style="stroke: rgb(78,78,243); stroke-width: 3; stroke-dasharray: none; stroke-linecap: round; stroke-dashoffset: 0; stroke-linejoin: round; stroke-miterlimit: 10; fill: none; fill-rule: nonzero; opacity: 1;"  transform=" translate(-452, -352.5)" d="M 451.997 352.5 L 452.003 352.5" stroke-linecap="round" />
</g>
<g transform="matrix(1 0 0 1 452 352)"  >
<path style="stroke: rgb(78,78,243); stroke-width: 3; stroke-dasharray: none; stroke-linecap: round; stroke-dashoffset: 0; stroke-linejoin: round; stroke-miterlimit: 10; fill: none; fill-rule: nonzero; opacity: 1;"  transform=" translate(-452, -352)" d="M 445.997 346.497 Q 446 346.5 448 348.5 Q 450 350.5 452.5 352.5 Q 455 354.5 456.5 356 L 458.003 357.503" stroke-linecap="round" />
</g>
<g transform="matrix(1 0 0 1 454 354)"  >
<path style="stroke: rgb(78,78,243); stroke-width: 3; stroke-dasharray: none; stroke-linecap: round; stroke-dashoffset: 0; stroke-linejoin: round; stroke-miterlimit: 10; fill: none; fill-rule: nonzero; opacity: 1;"  transform=" translate(-454, -354)" d="M 461.003 344.497 Q 461 344.5 459.5 346.5 Q 458 348.5 456.5 351 Q 455 353.5 453 356.5 Q 451 359.5 449 361.5 L 446.997 363.503" stroke-linecap="round" />
</g>
<g transform="matrix(1 0 0 1 509 279)"  >
<path style="stroke: rgb(78,78,243); stroke-width: 3; stroke-dasharray: none; stroke-linecap: round; stroke-dashoffset: 0; stroke-linejoin: round; stroke-miterlimit: 10; fill: none; fill-rule: nonzero; opacity: 1;"  transform=" translate(-509, -279)" d="M 501.997 272.497 Q 502 272.5 504 276 Q 506 279.5 508.5 281.5 Q 511 283.5 513.5 284.5 L 516.003 285.503" stroke-linecap="round" />
</g>
<g transform="matrix(1 0 0 1 508.5 280)"  >
<path style="stroke: rgb(78,78,243); stroke-width: 3; stroke-dasharray: none; stroke-linecap: round; stroke-dashoffset: 0; stroke-linejoin: round; stroke-miterlimit: 10; fill: none; fill-rule: nonzero; opacity: 1;"  transform=" translate(-508.5, -280)" d="M 525.003 264.497 Q 525 264.5 522 266 Q 519 267.5 517 271 Q 515 274.5 511 278.5 Q 507 282.5 502.5 286.5 Q 498 290.5 495 293 L 491.997 295.503" stroke-linecap="round" />
</g>
<g transform="matrix(1 0 0 1 573 254.5)"  >
<path style="stroke: rgb(78,78,243); stroke-width: 3; stroke-dasharray: none; stroke-linecap: round; stroke-dashoffset: 0; stroke-linejoin: round; stroke-miterlimit: 10; fill: none; fill-rule: nonzero; opacity: 1;"  transform=" translate(-573, -254.5)" d="M 561.997 242.497 Q 562 242.5 571 252 Q 580 261.5 582 264 L 584.003 266.503" stroke-linecap="round" />
</g>
<g transform="matrix(1 0 0 1 582.5 254.75)"  >
<path style="stroke: rgb(78,78,243); stroke-width: 3; stroke-dasharray: none; stroke-linecap: round; stroke-dashoffset: 0; stroke-linejoin: round; stroke-miterlimit: 10; fill: none; fill-rule: nonzero; opacity: 1;"  transform=" translate(-582.5, -254.76)" d="M 590.003 251.497 Q 590 251.5 588.5 250 Q 587 248.5 583.5 251.5 Q 580 254.5 577.5 257.5 L 574.997 260.503" stroke-linecap="round" />
</g>
<g transform="matrix(1 0 0 1 551.5 317)"  >
<path style="stroke: rgb(78,78,243); stroke-width: 3; stroke-dasharray: none; stroke-linecap: round; stroke-dashoffset: 0; stroke-linejoin: round; stroke-miterlimit: 10; fill: none; fill-rule: nonzero; opacity: 1;"  transform=" translate(-551.5, -317)" d="M 543.997 310.497 Q 544 310.5 544.5 312.5 Q 545 314.5 546.5 316 Q 548 317.5 550.5 319 Q 553 320.5 556 322 L 559.003 323.503" stroke-linecap="round" />
</g>
<g transform="matrix(1 0 0 1 555 322)"  >
<path style="stroke: rgb(78,78,243); stroke-width: 3; stroke-dasharray: none; stroke-linecap: round; stroke-dashoffset: 0; stroke-linejoin: round; stroke-miterlimit: 10; fill: none; fill-rule: nonzero; opacity: 1;"  transform=" translate(-555, -322)" d="M 565.003 312.497 Q 565 312.5 561.5 314 Q 558 315.5 556.5 317.5 Q 555 319.5 552.5 322.5 Q 550 325.5 547.5 328.5 L 544.997 331.503" stroke-linecap="round" />
</g>
<g transform="matrix(1 0 0 1 442.5 310)"  >
<path style="stroke: rgb(78,78,243); stroke-width: 3; stroke-dasharray: none; stroke-linecap: round; stroke-dashoffset: 0; stroke-linejoin: round; stroke-miterlimit: 10; fill: none; fill-rule: nonzero; opacity: 1;"  transform=" translate(-442.5, -310)" d="M 429.997 306.5 Q 430 306.5 442.5 310 L 455.003 313.5" stroke-linecap="round" />
</g>
<g transform="matrix(1 0 0 1 439.5 304.5)"  >
<path style="stroke: rgb(78,78,243); stroke-width: 3; stroke-dasharray: none; stroke-linecap: round; stroke-dashoffset: 0; stroke-linejoin: round; stroke-miterlimit: 10; fill: none; fill-rule: nonzero; opacity: 1;"  transform=" translate(-439.5, -304.5)" d="M 446.003 296.497 Q 446 296.5 443 298.5 Q 440 300.5 438.5 302.5 Q 437 304.5 435 308.5 L 432.997 312.503" stroke-linecap="round" />
</g>
<g transform="matrix(1 0 0 1 375 346.5)"  >
<path style="stroke: rgb(78,78,243); stroke-width: 3; stroke-dasharray: none; stroke-linecap: round; stroke-dashoffset: 0; stroke-linejoin: round; stroke-miterlimit: 10; fill: none; fill-rule: nonzero; opacity: 1;"  transform=" translate(-375, -346.5)" d="M 365.997 339.497 Q 366 339.5 369.5 343.5 Q 373 347.5 375.5 349 Q 378 350.5 381 352 L 384.003 353.503" stroke-linecap="round" />
</g>
<g transform="matrix(1 0 0 1 374 347)"  >
<path style="stroke: rgb(78,78,243); stroke-width: 3; stroke-dasharray: none; stroke-linecap: round; stroke-dashoffset: 0; stroke-linejoin: round; stroke-miterlimit: 10; fill: none; fill-rule: nonzero; opacity: 1;"  transform=" translate(-374, -347)" d="M 383.003 333.497 Q 383 333.5 379 336.5 Q 375 339.5 373 343.5 Q 371 347.5 370 350 Q 369 352.5 367 356.5 L 364.997 360.503" stroke-linecap="round" />
</g>
<g transform="matrix(1 0 0 1 498.5 213)"  >
<path style="stroke: rgb(78,78,243); stroke-width: 3; stroke-dasharray: none; stroke-linecap: round; stroke-dashoffset: 0; stroke-linejoin: round; stroke-miterlimit: 10; fill: none; fill-rule: nonzero; opacity: 1;"  transform=" translate(-498.5, -213)" d="M 484.997 206.497 Q 485 206.5 493 211 Q 501 215.5 503.5 216.5 Q 506 217.5 509 218.5 L 512.003 219.503" stroke-linecap="round" />
</g>
<g transform="matrix(1 0 0 1 499.5 214)"  >
<path style="stroke: rgb(78,78,243); stroke-width: 3; stroke-dasharray: none; stroke-linecap: round; stroke-dashoffset: 0; stroke-linejoin: round; stroke-miterlimit: 10; fill: none; fill-rule: nonzero; opacity: 1;"  transform=" translate(-499.5, -214)" d="M 511.003 201.497 Q 511 201.5 505 207 Q 499 212.5 495.5 217 Q 492 221.5 490 224 L 487.997 226.503" stroke-linecap="round" />
</g>
<g transform="matrix(1 0 0 1 574.5 159.5)"  >
<path style="stroke: rgb(78,78,243); stroke-width: 3; stroke-dasharray: none; stroke-linecap: round; stroke-dashoffset: 0; stroke-linejoin: round; stroke-miterlimit: 10; fill: none; fill-rule: nonzero; opacity: 1;"  transform=" translate(-574.5, -159.5)" d="M 568.997 150.497 Q 569 150.5 573 157.5 Q 577 164.5 578.5 166.5 L 580.003 168.503" stroke-linecap="round" />
</g>
<g transform="matrix(1 0 0 1 569.5 172)"  >
<path style="stroke: rgb(78,78,243); stroke-width: 3; stroke-dasharray: none; stroke-linecap: round; stroke-dashoffset: 0; stroke-linejoin: round; stroke-miterlimit: 10; fill: none; fill-rule: nonzero; opacity: 1;"  transform=" translate(-569.5, -172)" d="M 580.003 162.497 Q 580 162.5 576 164 Q 572 165.5 570.5 167 Q 569 168.5 566.5 171.5 Q 564 174.5 561.5 178 L 558.997 181.503" stroke-linecap="round" />
</g>
<g transform="matrix(1 0 0 1 291 344.39)"  >
<path style="stroke: rgb(234,41,42); stroke-width: 3; stroke-dasharray: none; stroke-linecap: round; stroke-dashoffset: 0; stroke-linejoin: round; stroke-miterlimit: 10; fill: none; fill-rule: nonzero; opacity: 1;"  transform=" translate(-291, -344.39)" d="M 297.003 333.497 Q 297 333.5 293.5 334.5 Q 290 335.5 288 339 Q 286 342.5 285 345 Q 284 347.5 284.5 349.5 Q 285 351.5 286 353.5 Q 287 355.5 290 355 Q 293 354.5 295 350.5 Q 297 346.5 297.5 343.5 Q 298 340.5 297 338.5 Q 296 336.5 293 335 L 289.997 333.497" stroke-linecap="round" />
</g>
<g transform="matrix(1 0 0 1 333 279.85)"  >
<path style="stroke: rgb(234,41,42); stroke-width: 3; stroke-dasharray: none; stroke-linecap: round; stroke-dashoffset: 0; stroke-linejoin: round; stroke-miterlimit: 10; fill: none; fill-rule: nonzero; opacity: 1;"  transform=" translate(-333, -279.85)" d="M 342.003 275.497 Q 342 275.5 335 273.5 Q 328 271.5 326.5 274 Q 325 276.5 324.5 279 Q 324 281.5 324 284 Q 324 286.5 326 287.5 Q 328 288.5 329.5 287 Q 331 285.5 332.5 283.5 Q 334 281.5 334.5 279 Q 335 276.5 335 274 L 335 271.497" stroke-linecap="round" />
</g>
<g transform="matrix(1 0 0 1 293.07 245.38)"  >
<path style="stroke: rgb(234,41,42); stroke-width: 3; stroke-dasharray: none; stroke-linecap: round; stroke-dashoffset: 0; stroke-linejoin: round; stroke-miterlimit: 10; fill: none; fill-rule: nonzero; opacity: 1;"  transform=" translate(-293.06, -245.37)" d="M 303.003 244.503 Q 303 244.5 300.5 241.5 Q 298 238.5 294.5 237.5 Q 291 236.5 289 237.5 Q 287 238.5 285.5 241 Q 284 243.5 283.5 247 Q 283 250.5 283.5 253.5 Q 284 256.5 286 257.5 Q 288 258.5 290.5 257.5 Q 293 256.5 295 253 Q 297 249.5 298 246 Q 299 242.5 299 239.5 Q 299 236.5 299 234.5 L 299 232.497" stroke-linecap="round" />
</g>
<g transform="matrix(1 0 0 1 329.5 204.88)"  >
<path style="stroke: rgb(234,41,42); stroke-width: 3; stroke-dasharray: none; stroke-linecap: round; stroke-dashoffset: 0; stroke-linejoin: round; stroke-miterlimit: 10; fill: none; fill-rule: nonzero; opacity: 1;"  transform=" translate(-329.5, -204.88)" d="M 336.003 200.497 Q 336 200.5 334.5 197 Q 333 193.5 329.5 195.5 Q 326 197.5 324.5 201 Q 323 204.5 323 208 Q 323 211.5 324 214 Q 325 216.5 327 217 Q 329 217.5 330.5 215 Q 332 212.5 333.5 209 Q 335 205.5 335.5 202 Q 336 198.5 335.5 195.5 L 334.997 192.497" stroke-linecap="round" />
</g>
<g transform="matrix(1 0 0 1 325.09 130.35)"  >
<path style="stroke: rgb(234,41,42); stroke-width: 3; stroke-dasharray: none; stroke-linecap: round; stroke-dashoffset: 0; stroke-linejoin: round; stroke-miterlimit: 10; fill: none; fill-rule: nonzero; opacity: 1;"  transform=" translate(-325.09, -130.35)" d="M 328.003 132.5 Q 328 132.5 326 129.5 Q 324 126.5 322 126.5 Q 320 126.5 318.5 129 Q 317 131.5 315.5 136 Q 314 140.5 315 144 Q 316 147.5 318.5 148.5 Q 321 149.5 323.5 148 Q 326 146.5 328.5 142.5 Q 331 138.5 333 134.5 Q 335 130.5 335.5 126 Q 336 121.5 335.5 118.5 Q 335 115.5 335 113.5 L 335 111.497" stroke-linecap="round" />
</g>
<g transform="matrix(1 0 0 1 381 105.85)"  >
<path style="stroke: rgb(234,41,42); stroke-width: 3; stroke-dasharray: none; stroke-linecap: round; stroke-dashoffset: 0; stroke-linejoin: round; stroke-miterlimit: 10; fill: none; fill-rule: nonzero; opacity: 1;"  transform=" translate(-381, -105.85)" d="M 394.003 109.503 Q 394 109.5 392.5 104 Q 391 98.5 386.5 98 Q 382 97.5 379 99 Q 376 100.5 373.5 102 Q 371 103.5 369.5 105.5 Q 368 107.5 368 110.5 Q 368 113.5 370 115 Q 372 116.5 374.5 115.5 Q 377 114.5 378.5 112.5 Q 380 110.5 381.5 107.5 Q 383 104.5 384.5 102 Q 386 99.5 386.5 97.5 L 387.003 95.497" stroke-linecap="round" />
</g>
<g transform="matrix(1 0 0 1 394.09 153.01)"  >
<path style="stroke: rgb(234,41,42); stroke-width: 3; stroke-dasharray: none; stroke-linecap: round; stroke-dashoffset: 0; stroke-linejoin: round; stroke-miterlimit: 10; fill: none; fill-rule: nonzero; opacity: 1;"  transform=" translate(-394.09, -153.01)" d="M 404.003 157.503 Q 404 157.5 400.5 149 Q 397 140.5 393.5 140 Q 390 139.5 388 142 Q 386 144.5 385 148.5 Q 384 152.5 384.5 157.5 Q 385 162.5 387 164.5 Q 389 166.5 391.5 166 Q 394 165.5 396.5 163.5 Q 399 161.5 401 159 L 403.003 156.497" stroke-linecap="round" />
</g>
<g transform="matrix(1 0 0 1 468.5 93)"  >
<path style="stroke: rgb(234,41,42); stroke-width: 3; stroke-dasharray: none; stroke-linecap: round; stroke-dashoffset: 0; stroke-linejoin: round; stroke-miterlimit: 10; fill: none; fill-rule: nonzero; opacity: 1;"  transform=" translate(-468.5, -93)" d="M 485.003 84.497 Q 485 84.5 480.5 80.5 Q 476 76.5 469.5 80.5 Q 463 84.5 459.5 89.5 Q 456 94.5 454 98.5 Q 452 102.5 452 105.5 Q 452 108.5 454 108.5 Q 456 108.5 458.5 107.5 Q 461 106.5 463 104.5 Q 465 102.5 466 100 Q 467 97.5 467 95.5 L 467 93.497" stroke-linecap="round" />
</g>
<g transform="matrix(1 0 0 1 384.17 206.03)"  >
<path style="stroke: rgb(234,41,42); stroke-width: 3; stroke-dasharray: none; stroke-linecap: round; stroke-dashoffset: 0; stroke-linejoin: round; stroke-miterlimit: 10; fill: none; fill-rule: nonzero; opacity: 1;"  transform=" translate(-384.17, -206.03)" d="M 387.003 212.503 Q 387 212.5 388 206 Q 389 199.5 388.5 197.5 Q 388 195.5 386.5 197 Q 385 198.5 383 202.5 Q 381 206.5 380 210 Q 379 213.5 381 215 Q 383 216.5 385 215 Q 387 213.5 388 210.5 Q 389 207.5 389 205 Q 389 202.5 388 200 L 386.997 197.497" stroke-linecap="round" />
</g>
<g transform="matrix(1 0 0 1 438 234)"  >
<path style="stroke: rgb(128,128,128); stroke-width: 3; stroke-dasharray: none; stroke-linecap: round; stroke-dashoffset: 0; stroke-linejoin: round; stroke-miterlimit: 10; fill: none; fill-rule: nonzero; opacity: 1;"  transform=" translate(-432, -240)" d="M 259.997 436.503 Q 260 436.5 267 425.5 Q 274 414.5 277.5 411.5 Q 281 408.5 286 402.5 Q 291 396.5 296 391 Q 301 385.5 306 380 Q 311 374.5 315.5 369.5 Q 320 364.5 325 359.5 Q 330 354.5 334.5 349 Q 339 343.5 343.5 338.5 Q 348 333.5 352 328 Q 356 322.5 360.5 316.5 Q 365 310.5 369.5 305 Q 374 299.5 378 294 Q 382 288.5 385.5 284.5 Q 389 280.5 392.5 277 Q 396 273.5 399.5 269.5 Q 403 265.5 405.5 261.5 Q 408 257.5 411 254 Q 414 250.5 417.5 246.5 Q 421 242.5 424.5 238 Q 428 233.5 432 229 Q 436 224.5 440 219.5 Q 444 214.5 449 209 Q 454 203.5 458.5 198 Q 463 192.5 467.5 186.5 Q 472 180.5 477 174.5 Q 482 168.5 488 162.5 Q 494 156.5 500 150 Q 506 143.5 511.5 138 Q 517 132.5 522 127 Q 527 121.5 531.5 116.5 Q 536 111.5 541 106.5 Q 546 101.5 551 96.5 Q 556 91.5 561.5 86.5 Q 567 81.5 571.5 77 Q 576 72.5 580 68.5 Q 584 64.5 587.5 60.5 Q 591 56.5 594 54 Q 597 51.5 599 49 Q 601 46.5 602.5 45 L 604.003 43.497" stroke-linecap="round" />
</g>
<g transform="matrix(1 0 0 1 259 407)"  >
<path style="stroke: rgb(128,128,128); stroke-width: 3; stroke-dasharray: none; stroke-linecap: round; stroke-dashoffset: 0; stroke-linejoin: round; stroke-miterlimit: 10; fill: none; fill-rule: nonzero; opacity: 1;"  transform=" translate(-259, -407)" d="M 252.997 416.503 Q 253 416.5 254.5 412.5 Q 256 408.5 258 406 Q 260 403.5 262.5 400.5 L 265.003 397.497" stroke-linecap="round" />
</g>
<g transform="matrix(1 0 0 1 290 367.5)"  >
<path style="stroke: rgb(128,128,128); stroke-width: 3; stroke-dasharray: none; stroke-linecap: round; stroke-dashoffset: 0; stroke-linejoin: round; stroke-miterlimit: 10; fill: none; fill-rule: nonzero; opacity: 1;"  transform=" translate(-290, -367.5)" d="M 289.997 367.5 L 290.003 367.5" stroke-linecap="round" />
</g>
<g transform="matrix(1 0 0 1 305.5 343)"  >
<path style="stroke: rgb(128,128,128); stroke-width: 3; stroke-dasharray: none; stroke-linecap: round; stroke-dashoffset: 0; stroke-linejoin: round; stroke-miterlimit: 10; fill: none; fill-rule: nonzero; opacity: 1;"  transform=" translate(-305.5, -343)" d="M 293.997 359.503 Q 294 359.5 295.5 357.5 Q 297 355.5 298 353 Q 299 350.5 300.5 348 Q 302 345.5 304 342.5 Q 306 339.5 308 337 Q 310 334.5 312 332.5 Q 314 330.5 315.5 328.5 L 317.003 326.497" stroke-linecap="round" />
</g>
<g transform="matrix(1 0 0 1 333 300)"  >
<path style="stroke: rgb(128,128,128); stroke-width: 3; stroke-dasharray: none; stroke-linecap: round; stroke-dashoffset: 0; stroke-linejoin: round; stroke-miterlimit: 10; fill: none; fill-rule: nonzero; opacity: 1;"  transform=" translate(-333, -300)" d="M 323.997 312.503 Q 324 312.5 326 309.5 Q 328 306.5 329.5 304 Q 331 301.5 333.5 298 Q 336 294.5 339 291 L 342.003 287.497" stroke-linecap="round" />
</g>
<g transform="matrix(1 0 0 1 366 257.5)"  >
<path style="stroke: rgb(128,128,128); stroke-width: 3; stroke-dasharray: none; stroke-linecap: round; stroke-dashoffset: 0; stroke-linejoin: round; stroke-miterlimit: 10; fill: none; fill-rule: nonzero; opacity: 1;"  transform=" translate(-366, -257.5)" d="M 358.997 264.503 Q 359 264.5 361 262 Q 363 259.5 364.5 258 Q 366 256.5 368 255 Q 370 253.5 371.5 252 L 373.003 250.497" stroke-linecap="round" />
</g>
<g transform="matrix(1 0 0 1 398 217.5)"  >
<path style="stroke: rgb(128,128,128); stroke-width: 3; stroke-dasharray: none; stroke-linecap: round; stroke-dashoffset: 0; stroke-linejoin: round; stroke-miterlimit: 10; fill: none; fill-rule: nonzero; opacity: 1;"  transform=" translate(-398, -217.5)" d="M 390.997 225.503 Q 391 225.5 392.5 223 Q 394 220.5 395.5 219 Q 397 217.5 399 215.5 Q 401 213.5 403 211.5 L 405.003 209.497" stroke-linecap="round" />
</g>
<g transform="matrix(1 0 0 1 431.5 174)"  >
<path style="stroke: rgb(128,128,128); stroke-width: 3; stroke-dasharray: none; stroke-linecap: round; stroke-dashoffset: 0; stroke-linejoin: round; stroke-miterlimit: 10; fill: none; fill-rule: nonzero; opacity: 1;"  transform=" translate(-431.5, -174)" d="M 422.997 182.503 Q 423 182.5 426 179 Q 429 175.5 430.5 174 Q 432 172.5 434 170.5 Q 436 168.5 438 167 L 440.003 165.497" stroke-linecap="round" />
</g>
<g transform="matrix(1 0 0 1 469.5 125.5)"  >
<path style="stroke: rgb(128,128,128); stroke-width: 3; stroke-dasharray: none; stroke-linecap: round; stroke-dashoffset: 0; stroke-linejoin: round; stroke-miterlimit: 10; fill: none; fill-rule: nonzero; opacity: 1;"  transform=" translate(-469.5, -125.5)" d="M 463.997 131.503 Q 464 131.5 465.5 129.5 Q 467 127.5 469 125 Q 471 122.5 473 121 L 475.003 119.497" stroke-linecap="round" />
</g>
<g transform="matrix(1 0 0 1 507.5 76.5)"  >
<path style="stroke: rgb(128,128,128); stroke-width: 3; stroke-dasharray: none; stroke-linecap: round; stroke-dashoffset: 0; stroke-linejoin: round; stroke-miterlimit: 10; fill: none; fill-rule: nonzero; opacity: 1;"  transform=" translate(-507.5, -76.5)" d="M 499.997 82.503 Q 500 82.5 501.5 80.5 Q 503 78.5 505 77.5 Q 507 76.5 509 75 Q 511 73.5 513 72 L 515.003 70.497" stroke-linecap="round" />
</g>
<g transform="matrix(1 0 0 1 546 40)"  >
<path style="stroke: rgb(128,128,128); stroke-width: 3; stroke-dasharray: none; stroke-linecap: round; stroke-dashoffset: 0; stroke-linejoin: round; stroke-miterlimit: 10; fill: none; fill-rule: nonzero; opacity: 1;"  transform=" translate(-546, -40)" d="M 541.997 41.503 Q 542 41.5 544 40.5 Q 546 39.5 548 39 L 550.003 38.497" stroke-linecap="round" />
</g>
<g transform="matrix(1 0 0 1 305.5 423)"  >
<path style="stroke: rgb(128,128,128); stroke-width: 3; stroke-dasharray: none; stroke-linecap: round; stroke-dashoffset: 0; stroke-linejoin: round; stroke-miterlimit: 10; fill: none; fill-rule: nonzero; opacity: 1;"  transform=" translate(-305.5, -423)" d="M 297.997 434.503 Q 298 434.5 299.5 430.5 Q 301 426.5 303.5 422.5 Q 306 418.5 309.5 415 L 313.003 411.497" stroke-linecap="round" />
</g>
<g transform="matrix(1 0 0 1 345 371)"  >
<path style="stroke: rgb(128,128,128); stroke-width: 3; stroke-dasharray: none; stroke-linecap: round; stroke-dashoffset: 0; stroke-linejoin: round; stroke-miterlimit: 10; fill: none; fill-rule: nonzero; opacity: 1;"  transform=" translate(-345, -371)" d="M 340.997 377.503 Q 341 377.5 342 375 Q 343 372.5 344.5 370.5 Q 346 368.5 347.5 366.5 L 349.003 364.497" stroke-linecap="round" />
</g>
<g transform="matrix(1 0 0 1 360.5 343)"  >
<path style="stroke: rgb(128,128,128); stroke-width: 3; stroke-dasharray: none; stroke-linecap: round; stroke-dashoffset: 0; stroke-linejoin: round; stroke-miterlimit: 10; fill: none; fill-rule: nonzero; opacity: 1;"  transform=" translate(-360.5, -343)" d="M 356.997 348.503 Q 357 348.5 358 346 Q 359 343.5 361.5 340.5 L 364.003 337.497" stroke-linecap="round" />
</g>
<g transform="matrix(1 0 0 1 404 287)"  >
<path style="stroke: rgb(128,128,128); stroke-width: 3; stroke-dasharray: none; stroke-linecap: round; stroke-dashoffset: 0; stroke-linejoin: round; stroke-miterlimit: 10; fill: none; fill-rule: nonzero; opacity: 1;"  transform=" translate(-404, -287)" d="M 399.997 292.503 Q 400 292.5 400 290.5 Q 400 288.5 404 285 L 408.003 281.497" stroke-linecap="round" />
</g>
<g transform="matrix(1 0 0 1 443 244.5)"  >
<path style="stroke: rgb(128,128,128); stroke-width: 3; stroke-dasharray: none; stroke-linecap: round; stroke-dashoffset: 0; stroke-linejoin: round; stroke-miterlimit: 10; fill: none; fill-rule: nonzero; opacity: 1;"  transform=" translate(-443, -244.5)" d="M 435.997 251.503 Q 436 251.5 437.5 249 Q 439 246.5 441.5 244.5 Q 444 242.5 447 240 L 450.003 237.497" stroke-linecap="round" />
</g>
<g transform="matrix(1 0 0 1 494.5 196.5)"  >
<path style="stroke: rgb(128,128,128); stroke-width: 3; stroke-dasharray: none; stroke-linecap: round; stroke-dashoffset: 0; stroke-linejoin: round; stroke-miterlimit: 10; fill: none; fill-rule: nonzero; opacity: 1;"  transform=" translate(-494.5, -196.5)" d="M 488.997 199.503 Q 489 199.5 491 198 Q 493 196.5 496.5 195 L 500.003 193.497" stroke-linecap="round" />
</g>
<g transform="matrix(1 0 0 1 528.5 160)"  >
<path style="stroke: rgb(128,128,128); stroke-width: 3; stroke-dasharray: none; stroke-linecap: round; stroke-dashoffset: 0; stroke-linejoin: round; stroke-miterlimit: 10; fill: none; fill-rule: nonzero; opacity: 1;"  transform=" translate(-528.5, -160)" d="M 522.997 164.503 Q 523 164.5 525 162.5 Q 527 160.5 530.5 158 L 534.003 155.497" stroke-linecap="round" />
</g>
<g transform="matrix(1 0 0 1 569 117)"  >
<path style="stroke: rgb(128,128,128); stroke-width: 3; stroke-dasharray: none; stroke-linecap: round; stroke-dashoffset: 0; stroke-linejoin: round; stroke-miterlimit: 10; fill: none; fill-rule: nonzero; opacity: 1;"  transform=" translate(-569, -117)" d="M 561.997 121.503 Q 562 121.5 564 119.5 Q 566 117.5 569 115.5 Q 572 113.5 574 113 L 576.003 112.497" stroke-linecap="round" />
</g>
<g transform="matrix(1 0 0 1 616.5 80)"  >
<path style="stroke: rgb(128,128,128); stroke-width: 3; stroke-dasharray: none; stroke-linecap: round; stroke-dashoffset: 0; stroke-linejoin: round; stroke-miterlimit: 10; fill: none; fill-rule: nonzero; opacity: 1;"  transform=" translate(-616.5, -80)" d="M 606.997 84.503 Q 607 84.5 608.5 83 Q 610 81.5 612.5 80 Q 615 78.5 617.5 78 Q 620 77.5 623 76.5 L 626.003 75.497" stroke-linecap="round" />
</g>
<g transform="matrix(1 0 0 1 643 57.5)"  >
<path style="stroke: rgb(128,128,128); stroke-width: 3; stroke-dasharray: none; stroke-linecap: round; stroke-dashoffset: 0; stroke-linejoin: round; stroke-miterlimit: 10; fill: none; fill-rule: nonzero; opacity: 1;"  transform=" translate(-643, -57.5)" d="M 640.997 59.5 Q 641 59.5 643 57.5 L 645.003 55.5" stroke-linecap="round" />
</g>
<g transform="matrix(1 0 0 1 377 345.5)"  >
<path style="stroke: rgb(255,165,0); stroke-width: 3; stroke-dasharray: none; stroke-linecap: round; stroke-dashoffset: 0; stroke-linejoin: round; stroke-miterlimit: 10; fill: none; fill-rule: nonzero; opacity: 1;"  transform=" translate(-377, -345.5)" d="M 385.003 332.5 Q 385 332.5 382.5 331.5 Q 380 330.5 377.5 330.5 Q 375 330.5 373 331.5 Q 371 332.5 369.5 334 Q 368 335.5 366.5 337.5 Q 365 339.5 364 341.5 Q 363 343.5 362.5 346 Q 362 348.5 361.5 350.5 Q 361 352.5 361 354.5 Q 361 356.5 361 358.5 Q 361 360.5 362.5 362 Q 364 363.5 366 363.5 Q 368 363.5 371 363 Q 374 362.5 376.5 362 Q 379 361.5 381 361 Q 383 360.5 385 359.5 Q 387 358.5 388.5 356.5 Q 390 354.5 391 352 Q 392 349.5 392.5 347 Q 393 344.5 393 342.5 Q 393 340.5 393 338.5 Q 393 336.5 392 334.5 Q 391 332.5 389.5 331 Q 388 329.5 386 328.5 Q 384 327.5 382 327.5 Q 380 327.5 378 327.5 Q 376 327.5 374 327.5 L 371.997 327.5" stroke-linecap="round" />
</g>
<g transform="matrix(1 0 0 1 505 209.06)"  >
<path style="stroke: rgb(255,165,0); stroke-width: 3; stroke-dasharray: none; stroke-linecap: round; stroke-dashoffset: 0; stroke-linejoin: round; stroke-miterlimit: 10; fill: none; fill-rule: nonzero; opacity: 1;"  transform=" translate(-505, -209.06)" d="M 509.003 197.497 Q 509 197.5 506.5 196.5 Q 504 195.5 501 196.5 Q 498 197.5 495.5 198.5 Q 493 199.5 491.5 201.5 Q 490 203.5 489.5 206 Q 489 208.5 489 210.5 Q 489 212.5 489 214.5 Q 489 216.5 489.5 219 Q 490 221.5 492 224 Q 494 226.5 496.5 228 Q 499 229.5 502.5 229.5 Q 506 229.5 508.5 228.5 Q 511 227.5 513 225 Q 515 222.5 516.5 221 Q 518 219.5 518.5 217.5 Q 519 215.5 520 213 Q 521 210.5 521 207.5 Q 521 204.5 520 202 Q 519 199.5 516.5 197 Q 514 194.5 512 193 Q 510 191.5 507.5 190.5 Q 505 189.5 503 189 Q 501 188.5 498.5 189 L 495.997 189.503" stroke-linecap="round" />
</g>
<g transform="matrix(1 0 0 1 681.5 222)"  >
<path style="stroke: rgb(255,165,0); stroke-width: 3; stroke-dasharray: none; stroke-linecap: round; stroke-dashoffset: 0; stroke-linejoin: round; stroke-miterlimit: 10; fill: none; fill-rule: nonzero; opacity: 1;"  transform=" translate(-681.5, -222)" d="M 682.997 220.5 Q 683 220.5 681.5 222 L 680.003 223.5" stroke-linecap="round" />
</g>
<g transform="matrix(1 0 0 1 296 337)"  >
<path style="stroke: rgb(255,165,0); stroke-width: 3; stroke-dasharray: none; stroke-linecap: round; stroke-dashoffset: 0; stroke-linejoin: round; stroke-miterlimit: 10; fill: none; fill-rule: nonzero; opacity: 1;"  transform=" translate(-296, -337)" d="M 304.003 323.497 Q 304 323.5 300 322 Q 296 320.5 293 322.5 Q 290 324.5 288.5 326 Q 287 327.5 286 329.5 Q 285 331.5 284.5 334 Q 284 336.5 283.5 339 Q 283 341.5 282.5 344 Q 282 346.5 282 349 Q 282 351.5 282.5 353.5 Q 283 355.5 285 357.5 Q 287 359.5 290.5 359.5 Q 294 359.5 297.5 356.5 Q 301 353.5 302.5 351 Q 304 348.5 305 345.5 Q 306 342.5 307 339.5 Q 308 336.5 309 334 Q 310 331.5 310 329.5 Q 310 327.5 310 325.5 Q 310 323.5 307.5 321 Q 305 318.5 302.5 317.5 Q 300 316.5 297.5 315.5 Q 295 314.5 293 314.5 L 290.997 314.5" stroke-linecap="round" />
</g>
<g transform="matrix(1 0 0 1 385.9 209.81)"  >
<path style="stroke: rgb(255,165,0); stroke-width: 3; stroke-dasharray: none; stroke-linecap: round; stroke-dashoffset: 0; stroke-linejoin: round; stroke-miterlimit: 10; fill: none; fill-rule: nonzero; opacity: 1;"  transform=" translate(-385.9, -209.81)" d="M 395.003 192.497 Q 395 192.5 392.5 192.5 Q 390 192.5 388 193.5 Q 386 194.5 383.5 196 Q 381 197.5 379.5 199 Q 378 200.5 376.5 203 Q 375 205.5 374.5 207.5 Q 374 209.5 374 212 Q 374 214.5 374.5 216.5 Q 375 218.5 376 220.5 Q 377 222.5 378.5 224 Q 380 225.5 383.5 227 Q 387 228.5 389.5 227 Q 392 225.5 393 223.5 Q 394 221.5 395 219 Q 396 216.5 396.5 214.5 Q 397 212.5 397.5 209.5 Q 398 206.5 396.5 203.5 Q 395 200.5 394 198.5 Q 393 196.5 391 195 Q 389 193.5 386 192.5 L 382.997 191.497" stroke-linecap="round" />
</g>
</svg>